<?xml version="1.0" encoding="UTF-8" standalone="no"?>
<!DOCTYPE svg PUBLIC "-//W3C//DTD SVG 1.1//EN"
 "http://www.w3.org/Graphics/SVG/1.1/DTD/svg11.dtd">
<!-- Generated by graphviz version 2.38.0 (20140413.2041)
 -->
<!-- Title: G Pages: 1 -->
<svg width="1092pt" height="674pt"
 viewBox="0.00 0.00 1092.00 674.00" xmlns="http://www.w3.org/2000/svg" xmlns:xlink="http://www.w3.org/1999/xlink">
<g id="graph0" class="graph" transform="scale(1 1) rotate(0) translate(4 670)">
<title>G</title>
<polygon fill="white" stroke="none" points="-4,4 -4,-670 1088,-670 1088,4 -4,4"/>
<g id="clust1" class="cluster"><title>cluster_n_github_com_loov_goda</title>
<g id="a_clust1"><a xlink:href="http://godoc.org/github.com/loov/goda" xlink:title="github.com/loov/goda">
<polygon fill="none" stroke="black" points="8,-313 8,-658 708,-658 708,-313 8,-313"/>
<text text-anchor="middle" x="358" y="-642.8" font-family="Times New Roman,serif" font-size="14.00">github.com/loov/goda</text>
</a>
</g>
</g>
<g id="clust2" class="cluster"><title>cluster_n_golang_org_x_tools_go</title>
<g id="a_clust2"><a xlink:href="http://godoc.org/golang.org/x/tools/go" xlink:title="golang.org/x/tools/go">
<polygon fill="none" stroke="black" points="620,-145 620,-305 1076,-305 1076,-145 620,-145"/>
<text text-anchor="middle" x="848" y="-289.8" font-family="Times New Roman,serif" font-size="14.00">golang.org/x/tools/go</text>
</a>
</g>
</g>
<g id="clust3" class="cluster"><title>cluster_n_golang_org_x_tools_go_internal</title>
<g id="a_clust3"><a xlink:href="http://godoc.org/golang.org/x/tools/go/internal" xlink:title="golang.org/x/tools/go/internal">
<polygon fill="none" stroke="black" points="800,-199 800,-274 1068,-274 1068,-199 800,-199"/>
<text text-anchor="middle" x="934" y="-258.8" font-family="Times New Roman,serif" font-size="14.00">./internal</text>
</a>
</g>
</g>
<g id="clust4" class="cluster"><title>cluster_n_golang_org_x_tools_internal</title>
<g id="a_clust4"><a xlink:href="http://godoc.org/golang.org/x/tools/internal" xlink:title="golang.org/x/tools/internal">
<polygon fill="none" stroke="black" points="800,-8 800,-137 1068,-137 1068,-8 800,-8"/>
<text text-anchor="middle" x="934" y="-121.8" font-family="Times New Roman,serif" font-size="14.00">golang.org/x/tools/internal</text>
</a>
</g>
</g>
<!-- n_github_com_google_subcommands -->
<g id="node1" class="node"><title>n_github_com_google_subcommands</title>
<g id="a_node1"><a xlink:href="http://godoc.org/github.com/google/subcommands" xlink:title="github.com/google/subcommands">
<polygon fill="none" stroke="#8a9107" stroke-width="2" stroke-opacity="0.698039" points="520,-305 340,-305 340,-269 520,-269 520,-305"/>
<text text-anchor="start" x="348" y="-290" font-family="Times New Roman,serif" font-size="10.00">github.com/google/subcommands</text>
<text text-anchor="start" x="348" y="-279" font-family="Times New Roman,serif" font-size="10.00">440 / 12.9KB</text>
</a>
</g>
</g>
<!-- n_github_com_loov_goda -->
<g id="node2" class="node"><title>n_github_com_loov_goda</title>
<g id="a_node2"><a xlink:title="github.com/loov/goda">
<ellipse fill="none" stroke="#910721" stroke-width="2" stroke-opacity="0.698039" cx="34" cy="-447" rx="18" ry="18"/>
</a>
</g>
</g>
<!-- n_github_com_loov_goda&#45;&gt;n_github_com_google_subcommands -->
<g id="edge7" class="edge"><title>n_github_com_loov_goda:e&#45;&gt;n_github_com_google_subcommands</title>
<g id="a_edge7"><a xlink:title="github.com/loov/goda &#45;&gt; github.com/google/subcommands">
<path fill="none" stroke="#8a9107" stroke-width="2" stroke-opacity="0.698039" d="M52,-447C128.837,-447 92.3622,-348.457 160,-312 211.393,-284.299 276.407,-277.626 329.645,-278.081"/>
<polygon fill="#8a9107" fill-opacity="0.698039" stroke="#8a9107" stroke-width="2" stroke-opacity="0.698039" points="329.726,-281.583 339.785,-278.254 329.846,-274.584 329.726,-281.583"/>
</a>
</g>
</g>
<!-- n_github_com_loov_goda_cut -->
<g id="node3" class="node"><title>n_github_com_loov_goda_cut</title>
<g id="a_node3"><a xlink:href="http://godoc.org/github.com/loov/goda/cut" xlink:title="github.com/loov/goda/cut">
<polygon fill="none" stroke="#679107" stroke-width="2" stroke-opacity="0.698039" points="232,-519 160,-519 160,-483 232,-483 232,-519"/>
<text text-anchor="start" x="168" y="-504" font-family="Times New Roman,serif" font-size="10.00">cut</text>
<text text-anchor="start" x="168" y="-493" font-family="Times New Roman,serif" font-size="10.00">203 / 4.1KB</text>
</a>
</g>
</g>
<!-- n_github_com_loov_goda&#45;&gt;n_github_com_loov_goda_cut -->
<g id="edge4" class="edge"><title>n_github_com_loov_goda:e&#45;&gt;n_github_com_loov_goda_cut</title>
<g id="a_edge4"><a xlink:title="github.com/loov/goda &#45;&gt; github.com/loov/goda/cut">
<path fill="none" stroke="#679107" stroke-width="2" stroke-opacity="0.698039" d="M52,-447C89.3132,-447 128.777,-463.29 156.772,-477.976"/>
<polygon fill="#679107" fill-opacity="0.698039" stroke="#679107" stroke-width="2" stroke-opacity="0.698039" points="155.347,-481.184 165.807,-482.869 158.681,-475.029 155.347,-481.184"/>
</a>
</g>
</g>
<!-- n_github_com_loov_goda_exec -->
<g id="node4" class="node"><title>n_github_com_loov_goda_exec</title>
<g id="a_node4"><a xlink:href="http://godoc.org/github.com/loov/goda/exec" xlink:title="github.com/loov/goda/exec">
<polygon fill="none" stroke="#2c9107" stroke-width="2" stroke-opacity="0.698039" points="232,-573 160,-573 160,-537 232,-537 232,-573"/>
<text text-anchor="start" x="168" y="-558" font-family="Times New Roman,serif" font-size="10.00">exec</text>
<text text-anchor="start" x="168" y="-547" font-family="Times New Roman,serif" font-size="10.00">156 / 3.3KB</text>
</a>
</g>
</g>
<!-- n_github_com_loov_goda&#45;&gt;n_github_com_loov_goda_exec -->
<g id="edge1" class="edge"><title>n_github_com_loov_goda:e&#45;&gt;n_github_com_loov_goda_exec</title>
<g id="a_edge1"><a xlink:title="github.com/loov/goda &#45;&gt; github.com/loov/goda/exec">
<path fill="none" stroke="#2c9107" stroke-width="2" stroke-opacity="0.698039" d="M52,-447C53.7236,-447 121.641,-498.796 163.244,-530.648"/>
<polygon fill="#2c9107" fill-opacity="0.698039" stroke="#2c9107" stroke-width="2" stroke-opacity="0.698039" points="161.371,-533.621 171.438,-536.923 165.627,-528.064 161.371,-533.621"/>
</a>
</g>
</g>
<!-- n_github_com_loov_goda_graph -->
<g id="node5" class="node"><title>n_github_com_loov_goda_graph</title>
<g id="a_node5"><a xlink:href="http://godoc.org/github.com/loov/goda/graph" xlink:title="github.com/loov/goda/graph">
<polygon fill="none" stroke="#910786" stroke-width="2" stroke-opacity="0.698039" points="232,-357 160,-357 160,-321 232,-321 232,-357"/>
<text text-anchor="start" x="168" y="-342" font-family="Times New Roman,serif" font-size="10.00">graph</text>
<text text-anchor="start" x="168" y="-331" font-family="Times New Roman,serif" font-size="10.00">361 / 8.1KB</text>
</a>
</g>
</g>
<!-- n_github_com_loov_goda&#45;&gt;n_github_com_loov_goda_graph -->
<g id="edge2" class="edge"><title>n_github_com_loov_goda:e&#45;&gt;n_github_com_loov_goda_graph</title>
<g id="a_edge2"><a xlink:title="github.com/loov/goda &#45;&gt; github.com/loov/goda/graph">
<path fill="none" stroke="#910786" stroke-width="2" stroke-opacity="0.698039" d="M52,-447C53.7236,-447 121.641,-395.204 163.244,-363.352"/>
<polygon fill="#910786" fill-opacity="0.698039" stroke="#910786" stroke-width="2" stroke-opacity="0.698039" points="165.627,-365.936 171.438,-357.077 161.371,-360.379 165.627,-365.936"/>
</a>
</g>
</g>
<!-- n_github_com_loov_goda_list -->
<g id="node6" class="node"><title>n_github_com_loov_goda_list</title>
<g id="a_node6"><a xlink:href="http://godoc.org/github.com/loov/goda/list" xlink:title="github.com/loov/goda/list">
<polygon fill="none" stroke="#0d0791" stroke-width="2" stroke-opacity="0.698039" points="232,-465 160,-465 160,-429 232,-429 232,-465"/>
<text text-anchor="start" x="168" y="-450" font-family="Times New Roman,serif" font-size="10.00">list</text>
<text text-anchor="start" x="168" y="-439" font-family="Times New Roman,serif" font-size="10.00">65 / 1.4KB</text>
</a>
</g>
</g>
<!-- n_github_com_loov_goda&#45;&gt;n_github_com_loov_goda_list -->
<g id="edge3" class="edge"><title>n_github_com_loov_goda:e&#45;&gt;n_github_com_loov_goda_list</title>
<g id="a_edge3"><a xlink:title="github.com/loov/goda &#45;&gt; github.com/loov/goda/list">
<path fill="none" stroke="#0d0791" stroke-width="2" stroke-opacity="0.698039" d="M52,-447C84.5808,-447 121.337,-447 149.426,-447"/>
<polygon fill="#0d0791" fill-opacity="0.698039" stroke="#0d0791" stroke-width="2" stroke-opacity="0.698039" points="149.74,-450.5 159.74,-447 149.74,-443.5 149.74,-450.5"/>
</a>
</g>
</g>
<!-- n_github_com_loov_goda_nm -->
<g id="node8" class="node"><title>n_github_com_loov_goda_nm</title>
<g id="a_node8"><a xlink:href="http://godoc.org/github.com/loov/goda/nm" xlink:title="github.com/loov/goda/nm">
<polygon fill="none" stroke="#918307" stroke-width="2" stroke-opacity="0.698039" points="232,-627 160,-627 160,-591 232,-591 232,-627"/>
<text text-anchor="start" x="168" y="-612" font-family="Times New Roman,serif" font-size="10.00">nm</text>
<text text-anchor="start" x="168" y="-601" font-family="Times New Roman,serif" font-size="10.00">259 / 5.4KB</text>
</a>
</g>
</g>
<!-- n_github_com_loov_goda&#45;&gt;n_github_com_loov_goda_nm -->
<g id="edge5" class="edge"><title>n_github_com_loov_goda:e&#45;&gt;n_github_com_loov_goda_nm</title>
<g id="a_edge5"><a xlink:title="github.com/loov/goda &#45;&gt; github.com/loov/goda/nm">
<path fill="none" stroke="#918307" stroke-width="2" stroke-opacity="0.698039" d="M52,-447C128.837,-447 105.19,-528.15 160,-582 160.766,-582.753 161.554,-583.504 162.357,-584.252"/>
<polygon fill="#918307" fill-opacity="0.698039" stroke="#918307" stroke-width="2" stroke-opacity="0.698039" points="160.065,-586.897 169.905,-590.826 164.663,-581.619 160.065,-586.897"/>
</a>
</g>
</g>
<!-- n_github_com_loov_goda_tree -->
<g id="node11" class="node"><title>n_github_com_loov_goda_tree</title>
<g id="a_node11"><a xlink:href="http://godoc.org/github.com/loov/goda/tree" xlink:title="github.com/loov/goda/tree">
<polygon fill="none" stroke="#8e9107" stroke-width="2" stroke-opacity="0.698039" points="232,-411 160,-411 160,-375 232,-375 232,-411"/>
<text text-anchor="start" x="168" y="-396" font-family="Times New Roman,serif" font-size="10.00">tree</text>
<text text-anchor="start" x="168" y="-385" font-family="Times New Roman,serif" font-size="10.00">101 / 2.2KB</text>
</a>
</g>
</g>
<!-- n_github_com_loov_goda&#45;&gt;n_github_com_loov_goda_tree -->
<g id="edge6" class="edge"><title>n_github_com_loov_goda:e&#45;&gt;n_github_com_loov_goda_tree</title>
<g id="a_edge6"><a xlink:title="github.com/loov/goda &#45;&gt; github.com/loov/goda/tree">
<path fill="none" stroke="#8e9107" stroke-width="2" stroke-opacity="0.698039" d="M52,-447C89.3132,-447 128.777,-430.71 156.772,-416.024"/>
<polygon fill="#8e9107" fill-opacity="0.698039" stroke="#8e9107" stroke-width="2" stroke-opacity="0.698039" points="158.681,-418.971 165.807,-411.131 155.347,-412.816 158.681,-418.971"/>
</a>
</g>
</g>
<!-- n_github_com_loov_goda_cut&#45;&gt;n_github_com_google_subcommands -->
<g id="edge8" class="edge"><title>n_github_com_loov_goda_cut:e&#45;&gt;n_github_com_google_subcommands</title>
<g id="a_edge8"><a xlink:title="github.com/loov/goda/cut &#45;&gt; github.com/google/subcommands">
<path fill="none" stroke="#8a9107" stroke-width="2" stroke-opacity="0.698039" d="M232,-501C326.656,-501 266.401,-376.948 337.701,-311.7"/>
<polygon fill="#8a9107" fill-opacity="0.698039" stroke="#8a9107" stroke-width="2" stroke-opacity="0.698039" points="340.074,-314.278 345.524,-305.193 335.597,-308.897 340.074,-314.278"/>
</a>
</g>
</g>
<!-- n_github_com_loov_goda_memory -->
<g id="node7" class="node"><title>n_github_com_loov_goda_memory</title>
<g id="a_node7"><a xlink:href="http://godoc.org/github.com/loov/goda/memory" xlink:title="github.com/loov/goda/memory">
<polygon fill="none" stroke="#079120" stroke-width="2" stroke-opacity="0.698039" points="700,-545 628,-545 628,-509 700,-509 700,-545"/>
<text text-anchor="start" x="636" y="-530" font-family="Times New Roman,serif" font-size="10.00">memory</text>
<text text-anchor="start" x="636" y="-519" font-family="Times New Roman,serif" font-size="10.00">33 / 671B</text>
</a>
</g>
</g>
<!-- n_github_com_loov_goda_cut&#45;&gt;n_github_com_loov_goda_memory -->
<g id="edge11" class="edge"><title>n_github_com_loov_goda_cut:e&#45;&gt;n_github_com_loov_goda_memory</title>
<g id="a_edge11"><a xlink:title="github.com/loov/goda/cut &#45;&gt; github.com/loov/goda/memory">
<path fill="none" stroke="#079120" stroke-width="2" stroke-opacity="0.698039" d="M232,-501C372.972,-501 539.41,-515.03 617.827,-522.478"/>
<polygon fill="#079120" fill-opacity="0.698039" stroke="#079120" stroke-width="2" stroke-opacity="0.698039" points="617.558,-525.968 627.847,-523.439 618.227,-519 617.558,-525.968"/>
</a>
</g>
</g>
<!-- n_github_com_loov_goda_pkgset -->
<g id="node9" class="node"><title>n_github_com_loov_goda_pkgset</title>
<g id="a_node9"><a xlink:href="http://godoc.org/github.com/loov/goda/pkgset" xlink:title="github.com/loov/goda/pkgset">
<polygon fill="none" stroke="#073f91" stroke-width="2" stroke-opacity="0.698039" points="466,-411 394,-411 394,-375 466,-375 466,-411"/>
<text text-anchor="start" x="402" y="-396" font-family="Times New Roman,serif" font-size="10.00">pkgset</text>
<text text-anchor="start" x="402" y="-385" font-family="Times New Roman,serif" font-size="10.00">318 / 5.5KB</text>
</a>
</g>
</g>
<!-- n_github_com_loov_goda_cut&#45;&gt;n_github_com_loov_goda_pkgset -->
<g id="edge10" class="edge"><title>n_github_com_loov_goda_cut:e&#45;&gt;n_github_com_loov_goda_pkgset</title>
<g id="a_edge10"><a xlink:title="github.com/loov/goda/cut &#45;&gt; github.com/loov/goda/pkgset">
<path fill="none" stroke="#073f91" stroke-width="2" stroke-opacity="0.698039" d="M232,-501C292,-501 286.479,-447.121 340,-420 353.692,-413.062 369.488,-407.553 383.937,-403.37"/>
<polygon fill="#073f91" fill-opacity="0.698039" stroke="#073f91" stroke-width="2" stroke-opacity="0.698039" points="384.972,-406.715 393.682,-400.683 383.112,-399.966 384.972,-406.715"/>
</a>
</g>
</g>
<!-- n_github_com_loov_goda_templates -->
<g id="node10" class="node"><title>n_github_com_loov_goda_templates</title>
<g id="a_node10"><a xlink:href="http://godoc.org/github.com/loov/goda/templates" xlink:title="github.com/loov/goda/templates">
<polygon fill="none" stroke="#073e91" stroke-width="2" stroke-opacity="0.698039" points="466,-465 394,-465 394,-429 466,-429 466,-465"/>
<text text-anchor="start" x="402" y="-450" font-family="Times New Roman,serif" font-size="10.00">templates</text>
<text text-anchor="start" x="402" y="-439" font-family="Times New Roman,serif" font-size="10.00">127 / 2.5KB</text>
</a>
</g>
</g>
<!-- n_github_com_loov_goda_cut&#45;&gt;n_github_com_loov_goda_templates -->
<g id="edge9" class="edge"><title>n_github_com_loov_goda_cut:e&#45;&gt;n_github_com_loov_goda_templates</title>
<g id="a_edge9"><a xlink:title="github.com/loov/goda/cut &#45;&gt; github.com/loov/goda/templates">
<path fill="none" stroke="#073e91" stroke-width="2" stroke-opacity="0.698039" d="M232,-501C285.779,-501 344.973,-482.051 384.294,-466.603"/>
<polygon fill="#073e91" fill-opacity="0.698039" stroke="#073e91" stroke-width="2" stroke-opacity="0.698039" points="385.873,-469.74 393.847,-462.764 383.264,-463.245 385.873,-469.74"/>
</a>
</g>
</g>
<!-- n_golang_org_x_tools_go_packages -->
<g id="node15" class="node"><title>n_golang_org_x_tools_go_packages</title>
<g id="a_node15"><a xlink:href="http://godoc.org/golang.org/x/tools/go/packages" xlink:title="golang.org/x/tools/go/packages">
<polygon fill="none" stroke="#07912d" stroke-width="2" stroke-opacity="0.698039" points="700,-243 628,-243 628,-207 700,-207 700,-243"/>
<text text-anchor="start" x="636" y="-228" font-family="Times New Roman,serif" font-size="10.00">packages</text>
<text text-anchor="start" x="636" y="-217" font-family="Times New Roman,serif" font-size="10.00">2959 / 90.9KB</text>
</a>
</g>
</g>
<!-- n_github_com_loov_goda_cut&#45;&gt;n_golang_org_x_tools_go_packages -->
<g id="edge12" class="edge"><title>n_github_com_loov_goda_cut:e&#45;&gt;n_golang_org_x_tools_go_packages</title>
<g id="a_edge12"><a xlink:title="github.com/loov/goda/cut &#45;&gt; golang.org/x/tools/go/packages">
<path fill="none" stroke="#07912d" stroke-width="2" stroke-opacity="0.698039" d="M232,-501C308.837,-501 276.095,-408.663 340,-366 409.256,-319.765 443.931,-347.877 520,-314 559.944,-296.211 602.014,-268.839 630.098,-249.147"/>
<polygon fill="#07912d" fill-opacity="0.698039" stroke="#07912d" stroke-width="2" stroke-opacity="0.698039" points="632.211,-251.939 638.347,-243.302 628.164,-246.228 632.211,-251.939"/>
</a>
</g>
</g>
<!-- n_github_com_loov_goda_exec&#45;&gt;n_github_com_google_subcommands -->
<g id="edge13" class="edge"><title>n_github_com_loov_goda_exec:e&#45;&gt;n_github_com_google_subcommands</title>
<g id="a_edge13"><a xlink:title="github.com/loov/goda/exec &#45;&gt; github.com/google/subcommands">
<path fill="none" stroke="#8a9107" stroke-width="2" stroke-opacity="0.698039" d="M232,-555C348.141,-555 254.105,-395.019 337.483,-312.044"/>
<polygon fill="#8a9107" fill-opacity="0.698039" stroke="#8a9107" stroke-width="2" stroke-opacity="0.698039" points="339.918,-314.56 344.944,-305.234 335.198,-309.39 339.918,-314.56"/>
</a>
</g>
</g>
<!-- n_github_com_loov_goda_exec&#45;&gt;n_github_com_loov_goda_memory -->
<g id="edge14" class="edge"><title>n_github_com_loov_goda_exec:e&#45;&gt;n_github_com_loov_goda_memory</title>
<g id="a_edge14"><a xlink:title="github.com/loov/goda/exec &#45;&gt; github.com/loov/goda/memory">
<path fill="none" stroke="#079120" stroke-width="2" stroke-opacity="0.698039" d="M232,-555C373.013,-555 539.432,-539.89 617.836,-531.87"/>
<polygon fill="#079120" fill-opacity="0.698039" stroke="#079120" stroke-width="2" stroke-opacity="0.698039" points="618.266,-535.344 627.854,-530.835 617.547,-528.381 618.266,-535.344"/>
</a>
</g>
</g>
<!-- n_github_com_loov_goda_exec&#45;&gt;n_github_com_loov_goda_templates -->
<g id="edge15" class="edge"><title>n_github_com_loov_goda_exec:e&#45;&gt;n_github_com_loov_goda_templates</title>
<g id="a_edge15"><a xlink:title="github.com/loov/goda/exec &#45;&gt; github.com/loov/goda/templates">
<path fill="none" stroke="#073e91" stroke-width="2" stroke-opacity="0.698039" d="M232,-555C300.715,-555 368.152,-503.851 403.526,-471.953"/>
<polygon fill="#073e91" fill-opacity="0.698039" stroke="#073e91" stroke-width="2" stroke-opacity="0.698039" points="406.007,-474.427 410.989,-465.077 401.263,-469.279 406.007,-474.427"/>
</a>
</g>
</g>
<!-- n_github_com_loov_goda_graph&#45;&gt;n_github_com_google_subcommands -->
<g id="edge16" class="edge"><title>n_github_com_loov_goda_graph:e&#45;&gt;n_github_com_google_subcommands</title>
<g id="a_edge16"><a xlink:title="github.com/loov/goda/graph &#45;&gt; github.com/google/subcommands">
<path fill="none" stroke="#8a9107" stroke-width="2" stroke-opacity="0.698039" d="M232,-339C281.817,-339 291.814,-321.645 340,-309 341.693,-308.556 343.406,-308.109 345.132,-307.661"/>
<polygon fill="#8a9107" fill-opacity="0.698039" stroke="#8a9107" stroke-width="2" stroke-opacity="0.698039" points="346.327,-310.967 355.14,-305.085 344.583,-304.188 346.327,-310.967"/>
</a>
</g>
</g>
<!-- n_github_com_loov_goda_graph&#45;&gt;n_github_com_loov_goda_pkgset -->
<g id="edge17" class="edge"><title>n_github_com_loov_goda_graph:e&#45;&gt;n_github_com_loov_goda_pkgset</title>
<g id="a_edge17"><a xlink:title="github.com/loov/goda/graph &#45;&gt; github.com/loov/goda/pkgset">
<path fill="none" stroke="#073f91" stroke-width="2" stroke-opacity="0.698039" d="M232,-339C285.779,-339 344.973,-357.949 384.294,-373.397"/>
<polygon fill="#073f91" fill-opacity="0.698039" stroke="#073f91" stroke-width="2" stroke-opacity="0.698039" points="383.264,-376.755 393.847,-377.236 385.873,-370.26 383.264,-376.755"/>
</a>
</g>
</g>
<!-- n_github_com_loov_goda_graph&#45;&gt;n_github_com_loov_goda_templates -->
<g id="edge18" class="edge"><title>n_github_com_loov_goda_graph:e&#45;&gt;n_github_com_loov_goda_templates</title>
<g id="a_edge18"><a xlink:title="github.com/loov/goda/graph &#45;&gt; github.com/loov/goda/templates">
<path fill="none" stroke="#073e91" stroke-width="2" stroke-opacity="0.698039" d="M232,-339C292,-339 286.479,-392.879 340,-420 353.692,-426.938 369.488,-432.447 383.937,-436.63"/>
<polygon fill="#073e91" fill-opacity="0.698039" stroke="#073e91" stroke-width="2" stroke-opacity="0.698039" points="383.112,-440.034 393.682,-439.317 384.972,-433.285 383.112,-440.034"/>
</a>
</g>
</g>
<!-- n_github_com_loov_goda_graph&#45;&gt;n_golang_org_x_tools_go_packages -->
<g id="edge19" class="edge"><title>n_github_com_loov_goda_graph:e&#45;&gt;n_golang_org_x_tools_go_packages</title>
<g id="a_edge19"><a xlink:title="github.com/loov/goda/graph &#45;&gt; golang.org/x/tools/go/packages">
<path fill="none" stroke="#07912d" stroke-width="2" stroke-opacity="0.698039" d="M232,-339C301.151,-339 276.44,-254.239 340,-227 432.226,-187.476 553.321,-202.224 617.876,-214.687"/>
<polygon fill="#07912d" fill-opacity="0.698039" stroke="#07912d" stroke-width="2" stroke-opacity="0.698039" points="617.247,-218.131 627.739,-216.659 618.619,-211.266 617.247,-218.131"/>
</a>
</g>
</g>
<!-- n_github_com_loov_goda_list&#45;&gt;n_github_com_google_subcommands -->
<g id="edge20" class="edge"><title>n_github_com_loov_goda_list:e&#45;&gt;n_github_com_google_subcommands</title>
<g id="a_edge20"><a xlink:title="github.com/loov/goda/list &#45;&gt; github.com/google/subcommands">
<path fill="none" stroke="#8a9107" stroke-width="2" stroke-opacity="0.698039" d="M232,-447C306.689,-447 277.324,-359.013 338.301,-311.031"/>
<polygon fill="#8a9107" fill-opacity="0.698039" stroke="#8a9107" stroke-width="2" stroke-opacity="0.698039" points="340.515,-313.751 346.636,-305.104 336.458,-308.047 340.515,-313.751"/>
</a>
</g>
</g>
<!-- n_github_com_loov_goda_list&#45;&gt;n_github_com_loov_goda_pkgset -->
<g id="edge21" class="edge"><title>n_github_com_loov_goda_list:e&#45;&gt;n_github_com_loov_goda_pkgset</title>
<g id="a_edge21"><a xlink:title="github.com/loov/goda/list &#45;&gt; github.com/loov/goda/pkgset">
<path fill="none" stroke="#073f91" stroke-width="2" stroke-opacity="0.698039" d="M232,-447C247.2,-447 330.402,-422.779 383.702,-406.78"/>
<polygon fill="#073f91" fill-opacity="0.698039" stroke="#073f91" stroke-width="2" stroke-opacity="0.698039" points="385.042,-410.032 393.609,-403.798 383.024,-403.329 385.042,-410.032"/>
</a>
</g>
</g>
<!-- n_github_com_loov_goda_list&#45;&gt;n_github_com_loov_goda_templates -->
<g id="edge22" class="edge"><title>n_github_com_loov_goda_list:e&#45;&gt;n_github_com_loov_goda_templates</title>
<g id="a_edge22"><a xlink:title="github.com/loov/goda/list &#45;&gt; github.com/loov/goda/templates">
<path fill="none" stroke="#073e91" stroke-width="2" stroke-opacity="0.698039" d="M232,-447C283.96,-447 343.629,-447 383.558,-447"/>
<polygon fill="#073e91" fill-opacity="0.698039" stroke="#073e91" stroke-width="2" stroke-opacity="0.698039" points="383.769,-450.5 393.769,-447 383.769,-443.5 383.769,-450.5"/>
</a>
</g>
</g>
<!-- n_github_com_loov_goda_nm&#45;&gt;n_github_com_google_subcommands -->
<g id="edge23" class="edge"><title>n_github_com_loov_goda_nm:e&#45;&gt;n_github_com_google_subcommands</title>
<g id="a_edge23"><a xlink:title="github.com/loov/goda/nm &#45;&gt; github.com/google/subcommands">
<path fill="none" stroke="#8a9107" stroke-width="2" stroke-opacity="0.698039" d="M232,-609C370.389,-609 241.119,-413.403 337.484,-312.209"/>
<polygon fill="#8a9107" fill-opacity="0.698039" stroke="#8a9107" stroke-width="2" stroke-opacity="0.698039" points="340.08,-314.566 344.819,-305.09 335.205,-309.543 340.08,-314.566"/>
</a>
</g>
</g>
<!-- n_github_com_loov_goda_nm&#45;&gt;n_github_com_loov_goda_memory -->
<g id="edge24" class="edge"><title>n_github_com_loov_goda_nm:e&#45;&gt;n_github_com_loov_goda_memory</title>
<g id="a_edge24"><a xlink:title="github.com/loov/goda/nm &#45;&gt; github.com/loov/goda/memory">
<path fill="none" stroke="#079120" stroke-width="2" stroke-opacity="0.698039" d="M232,-609C375.058,-609 540.193,-564.863 618.009,-541.352"/>
<polygon fill="#079120" fill-opacity="0.698039" stroke="#079120" stroke-width="2" stroke-opacity="0.698039" points="619.411,-544.584 627.953,-538.316 617.366,-537.889 619.411,-544.584"/>
</a>
</g>
</g>
<!-- n_github_com_loov_goda_pkgset&#45;&gt;n_golang_org_x_tools_go_packages -->
<g id="edge25" class="edge"><title>n_github_com_loov_goda_pkgset:e&#45;&gt;n_golang_org_x_tools_go_packages</title>
<g id="a_edge25"><a xlink:title="github.com/loov/goda/pkgset &#45;&gt; golang.org/x/tools/go/packages">
<path fill="none" stroke="#07912d" stroke-width="2" stroke-opacity="0.698039" d="M467,-393C552.503,-393 619.42,-299.696 647.967,-252.155"/>
<polygon fill="#07912d" fill-opacity="0.698039" stroke="#07912d" stroke-width="2" stroke-opacity="0.698039" points="651.121,-253.696 653.159,-243.299 645.082,-250.156 651.121,-253.696"/>
</a>
</g>
</g>
<!-- n_github_com_loov_goda_templates&#45;&gt;n_github_com_loov_goda_memory -->
<g id="edge26" class="edge"><title>n_github_com_loov_goda_templates:e&#45;&gt;n_github_com_loov_goda_memory</title>
<g id="a_edge26"><a xlink:title="github.com/loov/goda/templates &#45;&gt; github.com/loov/goda/memory">
<path fill="none" stroke="#079120" stroke-width="2" stroke-opacity="0.698039" d="M467,-447C527.225,-447 590.655,-479.777 628.513,-503.371"/>
<polygon fill="#079120" fill-opacity="0.698039" stroke="#079120" stroke-width="2" stroke-opacity="0.698039" points="626.795,-506.427 637.11,-508.847 630.555,-500.522 626.795,-506.427"/>
</a>
</g>
</g>
<!-- n_github_com_loov_goda_templates&#45;&gt;n_golang_org_x_tools_go_packages -->
<g id="edge27" class="edge"><title>n_github_com_loov_goda_templates:e&#45;&gt;n_golang_org_x_tools_go_packages</title>
<g id="a_edge27"><a xlink:title="github.com/loov/goda/templates &#45;&gt; golang.org/x/tools/go/packages">
<path fill="none" stroke="#07912d" stroke-width="2" stroke-opacity="0.698039" d="M467,-447C493.436,-447 499.859,-437.124 520,-420 578.307,-370.427 626.088,-292.573 648.766,-251.854"/>
<polygon fill="#07912d" fill-opacity="0.698039" stroke="#07912d" stroke-width="2" stroke-opacity="0.698039" points="651.857,-253.496 653.602,-243.046 645.721,-250.127 651.857,-253.496"/>
</a>
</g>
</g>
<!-- n_github_com_loov_goda_tree&#45;&gt;n_github_com_google_subcommands -->
<g id="edge31" class="edge"><title>n_github_com_loov_goda_tree:e&#45;&gt;n_github_com_google_subcommands</title>
<g id="a_edge31"><a xlink:title="github.com/loov/goda/tree &#45;&gt; github.com/google/subcommands">
<path fill="none" stroke="#8a9107" stroke-width="2" stroke-opacity="0.698039" d="M232,-393C289.721,-393 285.877,-341.23 339.696,-309.915"/>
<polygon fill="#8a9107" fill-opacity="0.698039" stroke="#8a9107" stroke-width="2" stroke-opacity="0.698039" points="341.643,-312.844 348.847,-305.076 338.371,-306.656 341.643,-312.844"/>
</a>
</g>
</g>
<!-- n_github_com_loov_goda_tree&#45;&gt;n_github_com_loov_goda_pkgset -->
<g id="edge28" class="edge"><title>n_github_com_loov_goda_tree:e&#45;&gt;n_github_com_loov_goda_pkgset</title>
<g id="a_edge28"><a xlink:title="github.com/loov/goda/tree &#45;&gt; github.com/loov/goda/pkgset">
<path fill="none" stroke="#073f91" stroke-width="2" stroke-opacity="0.698039" d="M232,-393C283.96,-393 343.629,-393 383.558,-393"/>
<polygon fill="#073f91" fill-opacity="0.698039" stroke="#073f91" stroke-width="2" stroke-opacity="0.698039" points="383.769,-396.5 393.769,-393 383.769,-389.5 383.769,-396.5"/>
</a>
</g>
</g>
<!-- n_github_com_loov_goda_tree&#45;&gt;n_github_com_loov_goda_templates -->
<g id="edge30" class="edge"><title>n_github_com_loov_goda_tree:e&#45;&gt;n_github_com_loov_goda_templates</title>
<g id="a_edge30"><a xlink:title="github.com/loov/goda/tree &#45;&gt; github.com/loov/goda/templates">
<path fill="none" stroke="#073e91" stroke-width="2" stroke-opacity="0.698039" d="M232,-393C247.2,-393 330.402,-417.221 383.702,-433.22"/>
<polygon fill="#073e91" fill-opacity="0.698039" stroke="#073e91" stroke-width="2" stroke-opacity="0.698039" points="383.024,-436.671 393.609,-436.202 385.042,-429.968 383.024,-436.671"/>
</a>
</g>
</g>
<!-- n_github_com_loov_goda_tree&#45;&gt;n_golang_org_x_tools_go_packages -->
<g id="edge29" class="edge"><title>n_github_com_loov_goda_tree:e&#45;&gt;n_golang_org_x_tools_go_packages</title>
<g id="a_edge29"><a xlink:title="github.com/loov/goda/tree &#45;&gt; golang.org/x/tools/go/packages">
<path fill="none" stroke="#07912d" stroke-width="2" stroke-opacity="0.698039" d="M232,-393C308.145,-393 273.116,-296.396 340,-260 386.727,-234.573 539.956,-227.615 617.371,-225.713"/>
<polygon fill="#07912d" fill-opacity="0.698039" stroke="#07912d" stroke-width="2" stroke-opacity="0.698039" points="617.855,-229.203 627.773,-225.477 617.696,-222.205 617.855,-229.203"/>
</a>
</g>
</g>
<!-- n_golang_org_x_tools_go_gcexportdata -->
<g id="node12" class="node"><title>n_golang_org_x_tools_go_gcexportdata</title>
<g id="a_node12"><a xlink:href="http://godoc.org/golang.org/x/tools/go/gcexportdata" xlink:title="golang.org/x/tools/go/gcexportdata">
<polygon fill="none" stroke="#910775" stroke-width="2" stroke-opacity="0.698039" points="880,-189 808,-189 808,-153 880,-153 880,-189"/>
<text text-anchor="start" x="816" y="-174" font-family="Times New Roman,serif" font-size="10.00">gcexportdata</text>
<text text-anchor="start" x="816" y="-163" font-family="Times New Roman,serif" font-size="10.00">182 / 6.2KB</text>
</a>
</g>
</g>
<!-- n_golang_org_x_tools_go_internal_gcimporter -->
<g id="node14" class="node"><title>n_golang_org_x_tools_go_internal_gcimporter</title>
<g id="a_node14"><a xlink:href="http://godoc.org/golang.org/x/tools/go/internal/gcimporter" xlink:title="golang.org/x/tools/go/internal/gcimporter">
<polygon fill="none" stroke="#0c9107" stroke-width="2" stroke-opacity="0.698039" points="1060,-243 988,-243 988,-207 1060,-207 1060,-243"/>
<text text-anchor="start" x="996" y="-228" font-family="Times New Roman,serif" font-size="10.00">gcimporter</text>
<text text-anchor="start" x="996" y="-217" font-family="Times New Roman,serif" font-size="10.00">3662 / 86.4KB</text>
</a>
</g>
</g>
<!-- n_golang_org_x_tools_go_gcexportdata&#45;&gt;n_golang_org_x_tools_go_internal_gcimporter -->
<g id="edge32" class="edge"><title>n_golang_org_x_tools_go_gcexportdata:e&#45;&gt;n_golang_org_x_tools_go_internal_gcimporter</title>
<g id="a_edge32"><a xlink:title="golang.org/x/tools/go/gcexportdata &#45;&gt; golang.org/x/tools/go/internal/gcimporter">
<path fill="none" stroke="#0c9107" stroke-width="2" stroke-opacity="0.698039" d="M880,-171C917.313,-171 956.777,-187.29 984.772,-201.976"/>
<polygon fill="#0c9107" fill-opacity="0.698039" stroke="#0c9107" stroke-width="2" stroke-opacity="0.698039" points="983.347,-205.184 993.807,-206.869 986.681,-199.029 983.347,-205.184"/>
</a>
</g>
</g>
<!-- n_golang_org_x_tools_go_internal_cgo -->
<g id="node13" class="node"><title>n_golang_org_x_tools_go_internal_cgo</title>
<g id="a_node13"><a xlink:href="http://godoc.org/golang.org/x/tools/go/internal/cgo" xlink:title="golang.org/x/tools/go/internal/cgo">
<polygon fill="none" stroke="#073491" stroke-width="2" stroke-opacity="0.698039" points="880,-243 808,-243 808,-207 880,-207 880,-243"/>
<text text-anchor="start" x="816" y="-228" font-family="Times New Roman,serif" font-size="10.00">cgo</text>
<text text-anchor="start" x="816" y="-217" font-family="Times New Roman,serif" font-size="10.00">259 / 8.2KB</text>
</a>
</g>
</g>
<!-- n_golang_org_x_tools_go_packages&#45;&gt;n_golang_org_x_tools_go_gcexportdata -->
<g id="edge34" class="edge"><title>n_golang_org_x_tools_go_packages:e&#45;&gt;n_golang_org_x_tools_go_gcexportdata</title>
<g id="a_edge34"><a xlink:title="golang.org/x/tools/go/packages &#45;&gt; golang.org/x/tools/go/gcexportdata">
<path fill="none" stroke="#910775" stroke-width="2" stroke-opacity="0.698039" d="M701,-225C720.468,-225 764.701,-207.044 798.665,-191.84"/>
<polygon fill="#910775" fill-opacity="0.698039" stroke="#910775" stroke-width="2" stroke-opacity="0.698039" points="800.275,-194.954 807.943,-187.642 797.389,-188.576 800.275,-194.954"/>
</a>
</g>
</g>
<!-- n_golang_org_x_tools_go_packages&#45;&gt;n_golang_org_x_tools_go_internal_cgo -->
<g id="edge35" class="edge"><title>n_golang_org_x_tools_go_packages:e&#45;&gt;n_golang_org_x_tools_go_internal_cgo</title>
<g id="a_edge35"><a xlink:title="golang.org/x/tools/go/packages &#45;&gt; golang.org/x/tools/go/internal/cgo">
<path fill="none" stroke="#073491" stroke-width="2" stroke-opacity="0.698039" d="M701,-225C733.353,-225 769.852,-225 797.744,-225"/>
<polygon fill="#073491" fill-opacity="0.698039" stroke="#073491" stroke-width="2" stroke-opacity="0.698039" points="797.986,-228.5 807.986,-225 797.986,-221.5 797.986,-228.5"/>
</a>
</g>
</g>
<!-- n_golang_org_x_tools_internal_gopathwalk -->
<g id="node17" class="node"><title>n_golang_org_x_tools_internal_gopathwalk</title>
<g id="a_node17"><a xlink:href="http://godoc.org/golang.org/x/tools/internal/gopathwalk" xlink:title="golang.org/x/tools/internal/gopathwalk">
<polygon fill="none" stroke="#079175" stroke-width="2" stroke-opacity="0.698039" points="880,-106 808,-106 808,-70 880,-70 880,-106"/>
<text text-anchor="start" x="816" y="-91" font-family="Times New Roman,serif" font-size="10.00">gopathwalk</text>
<text text-anchor="start" x="816" y="-80" font-family="Times New Roman,serif" font-size="10.00">249 / 6.1KB</text>
</a>
</g>
</g>
<!-- n_golang_org_x_tools_go_packages&#45;&gt;n_golang_org_x_tools_internal_gopathwalk -->
<g id="edge33" class="edge"><title>n_golang_org_x_tools_go_packages:e&#45;&gt;n_golang_org_x_tools_internal_gopathwalk</title>
<g id="a_edge33"><a xlink:title="golang.org/x/tools/go/packages &#45;&gt; golang.org/x/tools/internal/gopathwalk">
<path fill="none" stroke="#079175" stroke-width="2" stroke-opacity="0.698039" d="M701,-225C716.857,-225 784.058,-153.333 820.038,-113.668"/>
<polygon fill="#079175" fill-opacity="0.698039" stroke="#079175" stroke-width="2" stroke-opacity="0.698039" points="822.686,-115.959 826.793,-106.193 817.492,-111.266 822.686,-115.959"/>
</a>
</g>
</g>
<!-- n_golang_org_x_tools_internal_semver -->
<g id="node18" class="node"><title>n_golang_org_x_tools_internal_semver</title>
<g id="a_node18"><a xlink:href="http://godoc.org/golang.org/x/tools/internal/semver" xlink:title="golang.org/x/tools/internal/semver">
<polygon fill="none" stroke="#075491" stroke-width="2" stroke-opacity="0.698039" points="880,-52 808,-52 808,-16 880,-16 880,-52"/>
<text text-anchor="start" x="816" y="-37" font-family="Times New Roman,serif" font-size="10.00">semver</text>
<text text-anchor="start" x="816" y="-26" font-family="Times New Roman,serif" font-size="10.00">388 / 8.5KB</text>
</a>
</g>
</g>
<!-- n_golang_org_x_tools_go_packages&#45;&gt;n_golang_org_x_tools_internal_semver -->
<g id="edge36" class="edge"><title>n_golang_org_x_tools_go_packages:e&#45;&gt;n_golang_org_x_tools_internal_semver</title>
<g id="a_edge36"><a xlink:title="golang.org/x/tools/go/packages &#45;&gt; golang.org/x/tools/internal/semver">
<path fill="none" stroke="#075491" stroke-width="2" stroke-opacity="0.698039" d="M701,-225C786.14,-225 740.329,-121.73 800,-61 800.772,-60.214 801.572,-59.4405 802.394,-58.6799"/>
<polygon fill="#075491" fill-opacity="0.698039" stroke="#075491" stroke-width="2" stroke-opacity="0.698039" points="804.772,-61.2556 810.281,-52.2053 800.331,-55.845 804.772,-61.2556"/>
</a>
</g>
</g>
<!-- n_golang_org_x_tools_internal_fastwalk -->
<g id="node16" class="node"><title>n_golang_org_x_tools_internal_fastwalk</title>
<g id="a_node16"><a xlink:href="http://godoc.org/golang.org/x/tools/internal/fastwalk" xlink:title="golang.org/x/tools/internal/fastwalk">
<polygon fill="none" stroke="#879107" stroke-width="2" stroke-opacity="0.698039" points="1060,-106 988,-106 988,-70 1060,-70 1060,-106"/>
<text text-anchor="start" x="996" y="-91" font-family="Times New Roman,serif" font-size="10.00">fastwalk</text>
<text text-anchor="start" x="996" y="-80" font-family="Times New Roman,serif" font-size="10.00">233 / 6.2KB</text>
</a>
</g>
</g>
<!-- n_golang_org_x_tools_internal_gopathwalk&#45;&gt;n_golang_org_x_tools_internal_fastwalk -->
<g id="edge37" class="edge"><title>n_golang_org_x_tools_internal_gopathwalk:e&#45;&gt;n_golang_org_x_tools_internal_fastwalk</title>
<g id="a_edge37"><a xlink:title="golang.org/x/tools/internal/gopathwalk &#45;&gt; golang.org/x/tools/internal/fastwalk">
<path fill="none" stroke="#879107" stroke-width="2" stroke-opacity="0.698039" d="M880,-88C912.581,-88 949.337,-88 977.426,-88"/>
<polygon fill="#879107" fill-opacity="0.698039" stroke="#879107" stroke-width="2" stroke-opacity="0.698039" points="977.74,-91.5001 987.74,-88 977.74,-84.5001 977.74,-91.5001"/>
</a>
</g>
</g>
</g>
</svg>
