<?xml version="1.0" encoding="UTF-8" standalone="no"?>
<!DOCTYPE svg PUBLIC "-//W3C//DTD SVG 1.1//EN"
 "http://www.w3.org/Graphics/SVG/1.1/DTD/svg11.dtd">
<!-- Generated by graphviz version 2.38.0 (20140413.2041)
 -->
<!-- Title: G Pages: 1 -->
<svg width="1124pt" height="267pt"
 viewBox="0.00 0.00 1124.00 266.67" xmlns="http://www.w3.org/2000/svg" xmlns:xlink="http://www.w3.org/1999/xlink">
<g id="graph0" class="graph" transform="scale(1 1) rotate(0) translate(4 262.672)">
<title>G</title>
<polygon fill="white" stroke="none" points="-4,4 -4,-262.672 1120,-262.672 1120,4 -4,4"/>
<!-- n_github_com_loov_goda_internal_cut -->
<g id="node1" class="node"><title>n_github_com_loov_goda_internal_cut</title>
<g id="a_node1"><a xlink:href="https://pkg.go.dev/github.com/loov/goda/internal/cut" xlink:title="github.com/loov/goda/internal/cut\l161 / 4.2KB\l" target="_graphviz">
<polygon fill="none" stroke="#369107" stroke-width="2" stroke-opacity="0.698039" points="180,-252 0,-252 0,-216 180,-216 180,-252"/>
<text text-anchor="start" x="8" y="-237" font-family="Times New Roman,serif" font-size="10.00">github.com/loov/goda/internal/cut</text>
<text text-anchor="start" x="8" y="-226" font-family="Times New Roman,serif" font-size="10.00">161 / 4.2KB</text>
</a>
</g>
</g>
<!-- n_github_com_loov_goda_internal_pkggraph -->
<g id="node7" class="node"><title>n_github_com_loov_goda_internal_pkggraph</title>
<g id="a_node7"><a xlink:href="https://pkg.go.dev/github.com/loov/goda/internal/pkggraph" xlink:title="github.com/loov/goda/internal/pkggraph\l196 / 4.2KB\l" target="_graphviz">
<polygon fill="none" stroke="#07917e" stroke-width="2" stroke-opacity="0.698039" points="486,-244 306,-244 306,-208 486,-208 486,-244"/>
<text text-anchor="start" x="314" y="-229" font-family="Times New Roman,serif" font-size="10.00">github.com/loov/goda/internal/pkggraph</text>
<text text-anchor="start" x="314" y="-218" font-family="Times New Roman,serif" font-size="10.00">196 / 4.2KB</text>
</a>
</g>
</g>
<!-- n_github_com_loov_goda_internal_cut&#45;&gt;n_github_com_loov_goda_internal_pkggraph -->
<g id="edge1" class="edge"><title>n_github_com_loov_goda_internal_cut:e&#45;&gt;n_github_com_loov_goda_internal_pkggraph</title>
<path fill="none" stroke="#07917e" stroke-width="2" stroke-opacity="0.698039" d="M180,-234C217.813,-234 259.34,-232.749 295.731,-231.236"/>
<polygon fill="#07917e" fill-opacity="0.698039" stroke="#07917e" stroke-width="2" stroke-opacity="0.698039" points="296.011,-234.728 305.852,-230.804 295.712,-227.734 296.011,-234.728"/>
</g>
<!-- n_github_com_loov_goda_internal_pkgset -->
<g id="node8" class="node"><title>n_github_com_loov_goda_internal_pkgset</title>
<g id="a_node8"><a xlink:href="https://pkg.go.dev/github.com/loov/goda/internal/pkgset" xlink:title="github.com/loov/goda/internal/pkgset\l567 / 12.5KB\l" target="_graphviz">
<polygon fill="none" stroke="#918907" stroke-width="2" stroke-opacity="0.698039" points="486,-190 306,-190 306,-154 486,-154 486,-190"/>
<text text-anchor="start" x="314" y="-175" font-family="Times New Roman,serif" font-size="10.00">github.com/loov/goda/internal/pkgset</text>
<text text-anchor="start" x="314" y="-164" font-family="Times New Roman,serif" font-size="10.00">567 / 12.5KB</text>
</a>
</g>
</g>
<!-- n_github_com_loov_goda_internal_cut&#45;&gt;n_github_com_loov_goda_internal_pkgset -->
<g id="edge2" class="edge"><title>n_github_com_loov_goda_internal_cut:e&#45;&gt;n_github_com_loov_goda_internal_pkgset</title>
<path fill="none" stroke="#918907" stroke-width="2" stroke-opacity="0.698039" d="M180,-234C230.458,-234 239.511,-212.958 288,-199 295.444,-196.857 303.205,-194.718 310.998,-192.634"/>
<polygon fill="#918907" fill-opacity="0.698039" stroke="#918907" stroke-width="2" stroke-opacity="0.698039" points="312.089,-195.966 320.864,-190.029 310.302,-189.198 312.089,-195.966"/>
</g>
<!-- n_github_com_loov_goda_internal_stat -->
<g id="node10" class="node"><title>n_github_com_loov_goda_internal_stat</title>
<g id="a_node10"><a xlink:href="https://pkg.go.dev/github.com/loov/goda/internal/stat" xlink:title="github.com/loov/goda/internal/stat\l252 / 4.6KB\l" target="_graphviz">
<polygon fill="none" stroke="#918807" stroke-width="2" stroke-opacity="0.698039" points="810,-244 630,-244 630,-208 810,-208 810,-244"/>
<text text-anchor="start" x="638" y="-229" font-family="Times New Roman,serif" font-size="10.00">github.com/loov/goda/internal/stat</text>
<text text-anchor="start" x="638" y="-218" font-family="Times New Roman,serif" font-size="10.00">252 / 4.6KB</text>
</a>
</g>
</g>
<!-- n_github_com_loov_goda_internal_cut&#45;&gt;n_github_com_loov_goda_internal_stat -->
<g id="edge3" class="edge"><title>n_github_com_loov_goda_internal_cut:e&#45;&gt;n_github_com_loov_goda_internal_stat</title>
<path fill="none" stroke="#918807" stroke-width="2" stroke-opacity="0.698039" d="M180,-234C228.737,-234 239.447,-248.762 288,-253 383.636,-261.348 408.187,-258.993 504,-253 541.923,-250.628 583.39,-245.925 619.7,-241.099"/>
<polygon fill="#918807" fill-opacity="0.698039" stroke="#918807" stroke-width="2" stroke-opacity="0.698039" points="620.356,-244.542 629.798,-239.737 619.42,-237.605 620.356,-244.542"/>
</g>
<!-- n_github_com_loov_goda_internal_templates -->
<g id="node11" class="node"><title>n_github_com_loov_goda_internal_templates</title>
<g id="a_node11"><a xlink:href="https://pkg.go.dev/github.com/loov/goda/internal/templates" xlink:title="github.com/loov/goda/internal/templates\l164 / 3.3KB\l" target="_graphviz">
<polygon fill="none" stroke="#07914f" stroke-width="2" stroke-opacity="0.698039" points="486,-136 306,-136 306,-100 486,-100 486,-136"/>
<text text-anchor="start" x="314" y="-121" font-family="Times New Roman,serif" font-size="10.00">github.com/loov/goda/internal/templates</text>
<text text-anchor="start" x="314" y="-110" font-family="Times New Roman,serif" font-size="10.00">164 / 3.3KB</text>
</a>
</g>
</g>
<!-- n_github_com_loov_goda_internal_cut&#45;&gt;n_github_com_loov_goda_internal_templates -->
<g id="edge4" class="edge"><title>n_github_com_loov_goda_internal_cut:e&#45;&gt;n_github_com_loov_goda_internal_templates</title>
<path fill="none" stroke="#07914f" stroke-width="2" stroke-opacity="0.698039" d="M180,-234C242.198,-234 232.496,-173.07 288,-145 291.751,-143.103 295.644,-141.333 299.629,-139.682"/>
<polygon fill="#07914f" fill-opacity="0.698039" stroke="#07914f" stroke-width="2" stroke-opacity="0.698039" points="300.995,-142.907 309.066,-136.042 298.476,-136.375 300.995,-142.907"/>
</g>
<!-- n_github_com_loov_goda_internal_exec -->
<g id="node2" class="node"><title>n_github_com_loov_goda_internal_exec</title>
<g id="a_node2"><a xlink:href="https://pkg.go.dev/github.com/loov/goda/internal/exec" xlink:title="github.com/loov/goda/internal/exec\l126 / 3.3KB\l" target="_graphviz">
<polygon fill="none" stroke="#709107" stroke-width="2" stroke-opacity="0.698039" points="180,-36 0,-36 0,-0 180,-0 180,-36"/>
<text text-anchor="start" x="8" y="-21" font-family="Times New Roman,serif" font-size="10.00">github.com/loov/goda/internal/exec</text>
<text text-anchor="start" x="8" y="-10" font-family="Times New Roman,serif" font-size="10.00">126 / 3.3KB</text>
</a>
</g>
</g>
<!-- n_github_com_loov_goda_internal_memory -->
<g id="node6" class="node"><title>n_github_com_loov_goda_internal_memory</title>
<g id="a_node6"><a xlink:href="https://pkg.go.dev/github.com/loov/goda/internal/memory" xlink:title="github.com/loov/goda/internal/memory\l29 / 0.7KB\l" target="_graphviz">
<polygon fill="none" stroke="#075b91" stroke-width="2" stroke-opacity="0.698039" points="1116,-113 936,-113 936,-77 1116,-77 1116,-113"/>
<text text-anchor="start" x="944" y="-98" font-family="Times New Roman,serif" font-size="10.00">github.com/loov/goda/internal/memory</text>
<text text-anchor="start" x="944" y="-87" font-family="Times New Roman,serif" font-size="10.00">29 / 0.7KB</text>
</a>
</g>
</g>
<!-- n_github_com_loov_goda_internal_exec&#45;&gt;n_github_com_loov_goda_internal_memory -->
<g id="edge5" class="edge"><title>n_github_com_loov_goda_internal_exec:e&#45;&gt;n_github_com_loov_goda_internal_memory</title>
<path fill="none" stroke="#075b91" stroke-width="2" stroke-opacity="0.698039" d="M180,-18C450.631,-18 768.013,-57.6558 925.667,-80.05"/>
<polygon fill="#075b91" fill-opacity="0.698039" stroke="#075b91" stroke-width="2" stroke-opacity="0.698039" points="925.424,-83.5507 935.819,-81.4995 926.414,-76.621 925.424,-83.5507"/>
</g>
<!-- n_github_com_loov_goda_internal_exec&#45;&gt;n_github_com_loov_goda_internal_templates -->
<g id="edge6" class="edge"><title>n_github_com_loov_goda_internal_exec:e&#45;&gt;n_github_com_loov_goda_internal_templates</title>
<path fill="none" stroke="#07914f" stroke-width="2" stroke-opacity="0.698039" d="M180,-18C237.937,-18 235.117,-67.3345 288,-91 292.413,-92.9748 296.995,-94.8226 301.671,-96.5493"/>
<polygon fill="#07914f" fill-opacity="0.698039" stroke="#07914f" stroke-width="2" stroke-opacity="0.698039" points="300.781,-99.9453 311.376,-99.9253 303.081,-93.3339 300.781,-99.9453"/>
</g>
<!-- n_github_com_loov_goda_internal_graph -->
<g id="node3" class="node"><title>n_github_com_loov_goda_internal_graph</title>
<g id="a_node3"><a xlink:href="https://pkg.go.dev/github.com/loov/goda/internal/graph" xlink:title="github.com/loov/goda/internal/graph\l533 / 13.8KB\l" target="_graphviz">
<polygon fill="none" stroke="#4e9107" stroke-width="2" stroke-opacity="0.698039" points="180,-144 0,-144 0,-108 180,-108 180,-144"/>
<text text-anchor="start" x="8" y="-129" font-family="Times New Roman,serif" font-size="10.00">github.com/loov/goda/internal/graph</text>
<text text-anchor="start" x="8" y="-118" font-family="Times New Roman,serif" font-size="10.00">533 / 13.8KB</text>
</a>
</g>
</g>
<!-- n_github_com_loov_goda_internal_graph_graphml -->
<g id="node4" class="node"><title>n_github_com_loov_goda_internal_graph_graphml</title>
<g id="a_node4"><a xlink:href="https://pkg.go.dev/github.com/loov/goda/internal/graph/graphml" xlink:title="github.com/loov/goda/internal/graph/graphml\l105 / 2.9KB\l" target="_graphviz">
<polygon fill="none" stroke="#910748" stroke-width="2" stroke-opacity="0.698039" points="504,-82 288,-82 288,-46 504,-46 504,-82"/>
<text text-anchor="start" x="296" y="-67" font-family="Times New Roman,serif" font-size="10.00">github.com/loov/goda/internal/graph/graphml</text>
<text text-anchor="start" x="296" y="-56" font-family="Times New Roman,serif" font-size="10.00">105 / 2.9KB</text>
</a>
</g>
</g>
<!-- n_github_com_loov_goda_internal_graph&#45;&gt;n_github_com_loov_goda_internal_graph_graphml -->
<g id="edge7" class="edge"><title>n_github_com_loov_goda_internal_graph:e&#45;&gt;n_github_com_loov_goda_internal_graph_graphml</title>
<path fill="none" stroke="#910748" stroke-width="2" stroke-opacity="0.698039" d="M180,-126C230.458,-126 239.511,-104.958 288,-91 295.444,-88.8573 303.205,-86.7179 310.998,-84.6343"/>
<polygon fill="#910748" fill-opacity="0.698039" stroke="#910748" stroke-width="2" stroke-opacity="0.698039" points="312.089,-87.9662 320.864,-82.0289 310.302,-81.1982 312.089,-87.9662"/>
</g>
<!-- n_github_com_loov_goda_internal_graph&#45;&gt;n_github_com_loov_goda_internal_pkggraph -->
<g id="edge8" class="edge"><title>n_github_com_loov_goda_internal_graph:e&#45;&gt;n_github_com_loov_goda_internal_pkggraph</title>
<path fill="none" stroke="#07917e" stroke-width="2" stroke-opacity="0.698039" d="M180,-126C237.937,-126 235.117,-175.334 288,-199 292.413,-200.975 296.995,-202.823 301.671,-204.549"/>
<polygon fill="#07917e" fill-opacity="0.698039" stroke="#07917e" stroke-width="2" stroke-opacity="0.698039" points="300.781,-207.945 311.376,-207.925 303.081,-201.334 300.781,-207.945"/>
</g>
<!-- n_github_com_loov_goda_internal_graph&#45;&gt;n_github_com_loov_goda_internal_pkgset -->
<g id="edge9" class="edge"><title>n_github_com_loov_goda_internal_graph:e&#45;&gt;n_github_com_loov_goda_internal_pkgset</title>
<path fill="none" stroke="#918907" stroke-width="2" stroke-opacity="0.698039" d="M180,-126C193.161,-126 254.542,-139.351 308.368,-151.667"/>
<polygon fill="#918907" fill-opacity="0.698039" stroke="#918907" stroke-width="2" stroke-opacity="0.698039" points="307.787,-155.125 318.317,-153.952 309.354,-148.303 307.787,-155.125"/>
</g>
<!-- n_github_com_loov_goda_internal_graph&#45;&gt;n_github_com_loov_goda_internal_templates -->
<g id="edge10" class="edge"><title>n_github_com_loov_goda_internal_graph:e&#45;&gt;n_github_com_loov_goda_internal_templates</title>
<path fill="none" stroke="#07914f" stroke-width="2" stroke-opacity="0.698039" d="M180,-126C217.813,-126 259.34,-124.749 295.731,-123.236"/>
<polygon fill="#07914f" fill-opacity="0.698039" stroke="#07914f" stroke-width="2" stroke-opacity="0.698039" points="296.011,-126.728 305.852,-122.804 295.712,-119.734 296.011,-126.728"/>
</g>
<!-- n_github_com_loov_goda_internal_list -->
<g id="node5" class="node"><title>n_github_com_loov_goda_internal_list</title>
<g id="a_node5"><a xlink:href="https://pkg.go.dev/github.com/loov/goda/internal/list" xlink:title="github.com/loov/goda/internal/list\l62 / 1.7KB\l" target="_graphviz">
<polygon fill="none" stroke="#910713" stroke-width="2" stroke-opacity="0.698039" points="180,-198 0,-198 0,-162 180,-162 180,-198"/>
<text text-anchor="start" x="8" y="-183" font-family="Times New Roman,serif" font-size="10.00">github.com/loov/goda/internal/list</text>
<text text-anchor="start" x="8" y="-172" font-family="Times New Roman,serif" font-size="10.00">62 / 1.7KB</text>
</a>
</g>
</g>
<!-- n_github_com_loov_goda_internal_list&#45;&gt;n_github_com_loov_goda_internal_pkggraph -->
<g id="edge11" class="edge"><title>n_github_com_loov_goda_internal_list:e&#45;&gt;n_github_com_loov_goda_internal_pkggraph</title>
<path fill="none" stroke="#07917e" stroke-width="2" stroke-opacity="0.698039" d="M180,-180C193.161,-180 254.542,-193.351 308.368,-205.667"/>
<polygon fill="#07917e" fill-opacity="0.698039" stroke="#07917e" stroke-width="2" stroke-opacity="0.698039" points="307.787,-209.125 318.317,-207.952 309.354,-202.303 307.787,-209.125"/>
</g>
<!-- n_github_com_loov_goda_internal_list&#45;&gt;n_github_com_loov_goda_internal_pkgset -->
<g id="edge12" class="edge"><title>n_github_com_loov_goda_internal_list:e&#45;&gt;n_github_com_loov_goda_internal_pkgset</title>
<path fill="none" stroke="#918907" stroke-width="2" stroke-opacity="0.698039" d="M180,-180C217.813,-180 259.34,-178.749 295.731,-177.236"/>
<polygon fill="#918907" fill-opacity="0.698039" stroke="#918907" stroke-width="2" stroke-opacity="0.698039" points="296.011,-180.728 305.852,-176.804 295.712,-173.734 296.011,-180.728"/>
</g>
<!-- n_github_com_loov_goda_internal_list&#45;&gt;n_github_com_loov_goda_internal_templates -->
<g id="edge13" class="edge"><title>n_github_com_loov_goda_internal_list:e&#45;&gt;n_github_com_loov_goda_internal_templates</title>
<path fill="none" stroke="#07914f" stroke-width="2" stroke-opacity="0.698039" d="M180,-180C230.458,-180 239.511,-158.958 288,-145 295.444,-142.857 303.205,-140.718 310.998,-138.634"/>
<polygon fill="#07914f" fill-opacity="0.698039" stroke="#07914f" stroke-width="2" stroke-opacity="0.698039" points="312.089,-141.966 320.864,-136.029 310.302,-135.198 312.089,-141.966"/>
</g>
<!-- n_github_com_loov_goda_internal_pkggraph&#45;&gt;n_github_com_loov_goda_internal_stat -->
<g id="edge14" class="edge"><title>n_github_com_loov_goda_internal_pkggraph:e&#45;&gt;n_github_com_loov_goda_internal_stat</title>
<path fill="none" stroke="#918807" stroke-width="2" stroke-opacity="0.698039" d="M487,-226C530.535,-226 578.666,-226 619.751,-226"/>
<polygon fill="#918807" fill-opacity="0.698039" stroke="#918807" stroke-width="2" stroke-opacity="0.698039" points="619.763,-229.5 629.763,-226 619.763,-222.5 619.763,-229.5"/>
</g>
<!-- n_github_com_loov_goda_internal_pkgset_ast -->
<g id="node9" class="node"><title>n_github_com_loov_goda_internal_pkgset_ast</title>
<g id="a_node9"><a xlink:href="https://pkg.go.dev/github.com/loov/goda/internal/pkgset/ast" xlink:title="github.com/loov/goda/internal/pkgset/ast\l258 / 5.7KB\l" target="_graphviz">
<polygon fill="none" stroke="#189107" stroke-width="2" stroke-opacity="0.698039" points="828,-190 612,-190 612,-154 828,-154 828,-190"/>
<text text-anchor="start" x="620" y="-175" font-family="Times New Roman,serif" font-size="10.00">github.com/loov/goda/internal/pkgset/ast</text>
<text text-anchor="start" x="620" y="-164" font-family="Times New Roman,serif" font-size="10.00">258 / 5.7KB</text>
</a>
</g>
</g>
<!-- n_github_com_loov_goda_internal_pkgset&#45;&gt;n_github_com_loov_goda_internal_pkgset_ast -->
<g id="edge15" class="edge"><title>n_github_com_loov_goda_internal_pkgset:e&#45;&gt;n_github_com_loov_goda_internal_pkgset_ast</title>
<path fill="none" stroke="#189107" stroke-width="2" stroke-opacity="0.698039" d="M487,-172C524.277,-172 564.922,-172 601.629,-172"/>
<polygon fill="#189107" fill-opacity="0.698039" stroke="#189107" stroke-width="2" stroke-opacity="0.698039" points="601.872,-175.5 611.872,-172 601.872,-168.5 601.872,-175.5"/>
</g>
<!-- n_github_com_loov_goda_internal_stat&#45;&gt;n_github_com_loov_goda_internal_memory -->
<g id="edge16" class="edge"><title>n_github_com_loov_goda_internal_stat:e&#45;&gt;n_github_com_loov_goda_internal_memory</title>
<path fill="none" stroke="#075b91" stroke-width="2" stroke-opacity="0.698039" d="M811,-226C890.71,-226 965.805,-159.07 1002.16,-120.891"/>
<polygon fill="#075b91" fill-opacity="0.698039" stroke="#075b91" stroke-width="2" stroke-opacity="0.698039" points="1005.05,-122.916 1009.31,-113.215 999.935,-118.142 1005.05,-122.916"/>
</g>
<!-- n_github_com_loov_goda_internal_templates&#45;&gt;n_github_com_loov_goda_internal_memory -->
<g id="edge17" class="edge"><title>n_github_com_loov_goda_internal_templates:e&#45;&gt;n_github_com_loov_goda_internal_memory</title>
<path fill="none" stroke="#075b91" stroke-width="2" stroke-opacity="0.698039" d="M487,-118C543.837,-118 555.484,-97.0341 612,-91 707.457,-80.8081 732.005,-90.0255 828,-91 859.792,-91.3227 894.466,-91.9384 925.738,-92.5917"/>
<polygon fill="#075b91" fill-opacity="0.698039" stroke="#075b91" stroke-width="2" stroke-opacity="0.698039" points="925.692,-96.0914 935.764,-92.8048 925.841,-89.093 925.692,-96.0914"/>
</g>
<!-- n_github_com_loov_goda_internal_tree -->
<g id="node12" class="node"><title>n_github_com_loov_goda_internal_tree</title>
<g id="a_node12"><a xlink:href="https://pkg.go.dev/github.com/loov/goda/internal/tree" xlink:title="github.com/loov/goda/internal/tree\l86 / 2.2KB\l" target="_graphviz">
<polygon fill="none" stroke="#6b9107" stroke-width="2" stroke-opacity="0.698039" points="180,-90 0,-90 0,-54 180,-54 180,-90"/>
<text text-anchor="start" x="8" y="-75" font-family="Times New Roman,serif" font-size="10.00">github.com/loov/goda/internal/tree</text>
<text text-anchor="start" x="8" y="-64" font-family="Times New Roman,serif" font-size="10.00">86 / 2.2KB</text>
</a>
</g>
</g>
<!-- n_github_com_loov_goda_internal_tree&#45;&gt;n_github_com_loov_goda_internal_pkgset -->
<g id="edge18" class="edge"><title>n_github_com_loov_goda_internal_tree:e&#45;&gt;n_github_com_loov_goda_internal_pkgset</title>
<path fill="none" stroke="#918907" stroke-width="2" stroke-opacity="0.698039" d="M180,-72C237.937,-72 235.117,-121.334 288,-145 292.413,-146.975 296.995,-148.823 301.671,-150.549"/>
<polygon fill="#918907" fill-opacity="0.698039" stroke="#918907" stroke-width="2" stroke-opacity="0.698039" points="300.781,-153.945 311.376,-153.925 303.081,-147.334 300.781,-153.945"/>
</g>
<!-- n_github_com_loov_goda_internal_tree&#45;&gt;n_github_com_loov_goda_internal_templates -->
<g id="edge19" class="edge"><title>n_github_com_loov_goda_internal_tree:e&#45;&gt;n_github_com_loov_goda_internal_templates</title>
<path fill="none" stroke="#07914f" stroke-width="2" stroke-opacity="0.698039" d="M180,-72C193.161,-72 254.542,-85.3508 308.368,-97.6673"/>
<polygon fill="#07914f" fill-opacity="0.698039" stroke="#07914f" stroke-width="2" stroke-opacity="0.698039" points="307.787,-101.125 318.317,-99.9516 309.354,-94.3026 307.787,-101.125"/>
</g>
<!-- n_github_com_loov_goda_internal_weight -->
<g id="node13" class="node"><title>n_github_com_loov_goda_internal_weight</title>
<g id="a_node13"><a xlink:href="https://pkg.go.dev/github.com/loov/goda/internal/weight" xlink:title="github.com/loov/goda/internal/weight\l259 / 6.6KB\l" target="_graphviz">
<polygon fill="none" stroke="#079115" stroke-width="2" stroke-opacity="0.698039" points="810,-136 630,-136 630,-100 810,-100 810,-136"/>
<text text-anchor="start" x="638" y="-121" font-family="Times New Roman,serif" font-size="10.00">github.com/loov/goda/internal/weight</text>
<text text-anchor="start" x="638" y="-110" font-family="Times New Roman,serif" font-size="10.00">259 / 6.6KB</text>
</a>
</g>
</g>
<!-- n_github_com_loov_goda_internal_weight&#45;&gt;n_github_com_loov_goda_internal_memory -->
<g id="edge20" class="edge"><title>n_github_com_loov_goda_internal_weight:e&#45;&gt;n_github_com_loov_goda_internal_memory</title>
<path fill="none" stroke="#075b91" stroke-width="2" stroke-opacity="0.698039" d="M811,-118C848.656,-118 889.828,-114.436 925.912,-110.114"/>
<polygon fill="#075b91" fill-opacity="0.698039" stroke="#075b91" stroke-width="2" stroke-opacity="0.698039" points="926.45,-113.574 935.947,-108.877 925.594,-106.626 926.45,-113.574"/>
</g>
</g>
</svg>
