<?xml version="1.0" encoding="UTF-8" standalone="no"?>
<!DOCTYPE svg PUBLIC "-//W3C//DTD SVG 1.1//EN"
 "http://www.w3.org/Graphics/SVG/1.1/DTD/svg11.dtd">
<!-- Generated by graphviz version 2.38.0 (20140413.2041)
 -->
<!-- Title: G Pages: 1 -->
<svg width="1340pt" height="376pt"
 viewBox="0.00 0.00 1340.00 375.65" xmlns="http://www.w3.org/2000/svg" xmlns:xlink="http://www.w3.org/1999/xlink">
<g id="graph0" class="graph" transform="scale(1 1) rotate(0) translate(4 371.647)">
<title>G</title>
<polygon fill="white" stroke="none" points="-4,4 -4,-371.647 1336,-371.647 1336,4 -4,4"/>
<!-- n_github_com_loov_goda -->
<g id="node1" class="node"><title>n_github_com_loov_goda</title>
<g id="a_node1"><a xlink:href="https://pkg.go.dev/github.com/loov/goda" xlink:title="github.com/loov/goda\l101 / 3.3KB\l" target="_graphviz">
<polygon fill="none" stroke="#910721" stroke-width="2" stroke-opacity="0.698039" points="108,-182 0,-182 0,-146 108,-146 108,-182"/>
<text text-anchor="start" x="8" y="-167" font-family="Times New Roman,serif" font-size="10.00">github.com/loov/goda</text>
<text text-anchor="start" x="8" y="-156" font-family="Times New Roman,serif" font-size="10.00">101 / 3.3KB</text>
</a>
</g>
</g>
<!-- n_github_com_loov_goda_internal_cut -->
<g id="node2" class="node"><title>n_github_com_loov_goda_internal_cut</title>
<g id="a_node2"><a xlink:href="https://pkg.go.dev/github.com/loov/goda/internal/cut" xlink:title="github.com/loov/goda/internal/cut\l161 / 4.2KB\l" target="_graphviz">
<polygon fill="none" stroke="#369107" stroke-width="2" stroke-opacity="0.698039" points="396,-236 216,-236 216,-200 396,-200 396,-236"/>
<text text-anchor="start" x="224" y="-221" font-family="Times New Roman,serif" font-size="10.00">github.com/loov/goda/internal/cut</text>
<text text-anchor="start" x="224" y="-210" font-family="Times New Roman,serif" font-size="10.00">161 / 4.2KB</text>
</a>
</g>
</g>
<!-- n_github_com_loov_goda&#45;&gt;n_github_com_loov_goda_internal_cut -->
<g id="edge1" class="edge"><title>n_github_com_loov_goda:e&#45;&gt;n_github_com_loov_goda_internal_cut</title>
<path fill="none" stroke="#369107" stroke-width="2" stroke-opacity="0.698039" d="M108,-164C121.056,-164 184.277,-181.868 235.63,-197.048"/>
<polygon fill="#369107" fill-opacity="0.698039" stroke="#369107" stroke-width="2" stroke-opacity="0.698039" points="234.812,-200.456 245.394,-199.944 236.802,-193.745 234.812,-200.456"/>
</g>
<!-- n_github_com_loov_goda_internal_exec -->
<g id="node3" class="node"><title>n_github_com_loov_goda_internal_exec</title>
<g id="a_node3"><a xlink:href="https://pkg.go.dev/github.com/loov/goda/internal/exec" xlink:title="github.com/loov/goda/internal/exec\l126 / 3.3KB\l" target="_graphviz">
<polygon fill="none" stroke="#709107" stroke-width="2" stroke-opacity="0.698039" points="396,-290 216,-290 216,-254 396,-254 396,-290"/>
<text text-anchor="start" x="224" y="-275" font-family="Times New Roman,serif" font-size="10.00">github.com/loov/goda/internal/exec</text>
<text text-anchor="start" x="224" y="-264" font-family="Times New Roman,serif" font-size="10.00">126 / 3.3KB</text>
</a>
</g>
</g>
<!-- n_github_com_loov_goda&#45;&gt;n_github_com_loov_goda_internal_exec -->
<g id="edge2" class="edge"><title>n_github_com_loov_goda:e&#45;&gt;n_github_com_loov_goda_internal_exec</title>
<path fill="none" stroke="#709107" stroke-width="2" stroke-opacity="0.698039" d="M108,-164C168,-164 162.479,-217.879 216,-245 219.545,-246.796 223.23,-248.496 226.997,-250.103"/>
<polygon fill="#709107" fill-opacity="0.698039" stroke="#709107" stroke-width="2" stroke-opacity="0.698039" points="225.908,-253.437 236.492,-253.903 228.509,-246.938 225.908,-253.437"/>
</g>
<!-- n_github_com_loov_goda_internal_graph -->
<g id="node4" class="node"><title>n_github_com_loov_goda_internal_graph</title>
<g id="a_node4"><a xlink:href="https://pkg.go.dev/github.com/loov/goda/internal/graph" xlink:title="github.com/loov/goda/internal/graph\l533 / 13.8KB\l" target="_graphviz">
<polygon fill="none" stroke="#4e9107" stroke-width="2" stroke-opacity="0.698039" points="396,-74 216,-74 216,-38 396,-38 396,-74"/>
<text text-anchor="start" x="224" y="-59" font-family="Times New Roman,serif" font-size="10.00">github.com/loov/goda/internal/graph</text>
<text text-anchor="start" x="224" y="-48" font-family="Times New Roman,serif" font-size="10.00">533 / 13.8KB</text>
</a>
</g>
</g>
<!-- n_github_com_loov_goda&#45;&gt;n_github_com_loov_goda_internal_graph -->
<g id="edge3" class="edge"><title>n_github_com_loov_goda:e&#45;&gt;n_github_com_loov_goda_internal_graph</title>
<path fill="none" stroke="#4e9107" stroke-width="2" stroke-opacity="0.698039" d="M108,-164C168,-164 162.479,-110.121 216,-83 219.545,-81.2039 223.23,-79.5035 226.997,-77.8972"/>
<polygon fill="#4e9107" fill-opacity="0.698039" stroke="#4e9107" stroke-width="2" stroke-opacity="0.698039" points="228.509,-81.062 236.492,-74.0969 225.908,-74.5631 228.509,-81.062"/>
</g>
<!-- n_github_com_loov_goda_internal_list -->
<g id="node6" class="node"><title>n_github_com_loov_goda_internal_list</title>
<g id="a_node6"><a xlink:href="https://pkg.go.dev/github.com/loov/goda/internal/list" xlink:title="github.com/loov/goda/internal/list\l62 / 1.7KB\l" target="_graphviz">
<polygon fill="none" stroke="#910713" stroke-width="2" stroke-opacity="0.698039" points="396,-128 216,-128 216,-92 396,-92 396,-128"/>
<text text-anchor="start" x="224" y="-113" font-family="Times New Roman,serif" font-size="10.00">github.com/loov/goda/internal/list</text>
<text text-anchor="start" x="224" y="-102" font-family="Times New Roman,serif" font-size="10.00">62 / 1.7KB</text>
</a>
</g>
</g>
<!-- n_github_com_loov_goda&#45;&gt;n_github_com_loov_goda_internal_list -->
<g id="edge4" class="edge"><title>n_github_com_loov_goda:e&#45;&gt;n_github_com_loov_goda_internal_list</title>
<path fill="none" stroke="#910713" stroke-width="2" stroke-opacity="0.698039" d="M108,-164C121.056,-164 184.277,-146.132 235.63,-130.952"/>
<polygon fill="#910713" fill-opacity="0.698039" stroke="#910713" stroke-width="2" stroke-opacity="0.698039" points="236.802,-134.255 245.394,-128.056 234.812,-127.544 236.802,-134.255"/>
</g>
<!-- n_github_com_loov_goda_internal_pkgset -->
<g id="node9" class="node"><title>n_github_com_loov_goda_internal_pkgset</title>
<g id="a_node9"><a xlink:href="https://pkg.go.dev/github.com/loov/goda/internal/pkgset" xlink:title="github.com/loov/goda/internal/pkgset\l567 / 12.5KB\l" target="_graphviz">
<polygon fill="none" stroke="#918907" stroke-width="2" stroke-opacity="0.698039" points="702,-90 522,-90 522,-54 702,-54 702,-90"/>
<text text-anchor="start" x="530" y="-75" font-family="Times New Roman,serif" font-size="10.00">github.com/loov/goda/internal/pkgset</text>
<text text-anchor="start" x="530" y="-64" font-family="Times New Roman,serif" font-size="10.00">567 / 12.5KB</text>
</a>
</g>
</g>
<!-- n_github_com_loov_goda&#45;&gt;n_github_com_loov_goda_internal_pkgset -->
<g id="edge5" class="edge"><title>n_github_com_loov_goda:e&#45;&gt;n_github_com_loov_goda_internal_pkgset</title>
<path fill="none" stroke="#918907" stroke-width="2" stroke-opacity="0.698039" d="M108,-164C184.837,-164 146.746,-62.2851 216,-29 268.595,-3.72139 424.2,-30.6376 523.685,-51.7991"/>
<polygon fill="#918907" fill-opacity="0.698039" stroke="#918907" stroke-width="2" stroke-opacity="0.698039" points="523.217,-55.2786 533.729,-53.9567 524.687,-48.4346 523.217,-55.2786"/>
</g>
<!-- n_github_com_loov_goda_internal_tree -->
<g id="node13" class="node"><title>n_github_com_loov_goda_internal_tree</title>
<g id="a_node13"><a xlink:href="https://pkg.go.dev/github.com/loov/goda/internal/tree" xlink:title="github.com/loov/goda/internal/tree\l86 / 2.2KB\l" target="_graphviz">
<polygon fill="none" stroke="#6b9107" stroke-width="2" stroke-opacity="0.698039" points="396,-182 216,-182 216,-146 396,-146 396,-182"/>
<text text-anchor="start" x="224" y="-167" font-family="Times New Roman,serif" font-size="10.00">github.com/loov/goda/internal/tree</text>
<text text-anchor="start" x="224" y="-156" font-family="Times New Roman,serif" font-size="10.00">86 / 2.2KB</text>
</a>
</g>
</g>
<!-- n_github_com_loov_goda&#45;&gt;n_github_com_loov_goda_internal_tree -->
<g id="edge6" class="edge"><title>n_github_com_loov_goda:e&#45;&gt;n_github_com_loov_goda_internal_tree</title>
<path fill="none" stroke="#6b9107" stroke-width="2" stroke-opacity="0.698039" d="M108,-164C139.787,-164 174.46,-164 205.732,-164"/>
<polygon fill="#6b9107" fill-opacity="0.698039" stroke="#6b9107" stroke-width="2" stroke-opacity="0.698039" points="205.759,-167.5 215.758,-164 205.758,-160.5 205.759,-167.5"/>
</g>
<!-- n_github_com_loov_goda_internal_weight -->
<g id="node14" class="node"><title>n_github_com_loov_goda_internal_weight</title>
<g id="a_node14"><a xlink:href="https://pkg.go.dev/github.com/loov/goda/internal/weight" xlink:title="github.com/loov/goda/internal/weight\l259 / 6.6KB\l" target="_graphviz">
<polygon fill="none" stroke="#079115" stroke-width="2" stroke-opacity="0.698039" points="1026,-336 846,-336 846,-300 1026,-300 1026,-336"/>
<text text-anchor="start" x="854" y="-321" font-family="Times New Roman,serif" font-size="10.00">github.com/loov/goda/internal/weight</text>
<text text-anchor="start" x="854" y="-310" font-family="Times New Roman,serif" font-size="10.00">259 / 6.6KB</text>
</a>
</g>
</g>
<!-- n_github_com_loov_goda&#45;&gt;n_github_com_loov_goda_internal_weight -->
<g id="edge7" class="edge"><title>n_github_com_loov_goda:e&#45;&gt;n_github_com_loov_goda_internal_weight</title>
<path fill="none" stroke="#079115" stroke-width="2" stroke-opacity="0.698039" d="M108,-164C184.837,-164 147.192,-264.803 216,-299 423.208,-401.981 707.16,-365.833 848.191,-338.015"/>
<polygon fill="#079115" fill-opacity="0.698039" stroke="#079115" stroke-width="2" stroke-opacity="0.698039" points="848.979,-341.426 858.095,-336.028 847.602,-334.563 848.979,-341.426"/>
</g>
<!-- n_github_com_loov_goda_internal_pkggraph -->
<g id="node8" class="node"><title>n_github_com_loov_goda_internal_pkggraph</title>
<g id="a_node8"><a xlink:href="https://pkg.go.dev/github.com/loov/goda/internal/pkggraph" xlink:title="github.com/loov/goda/internal/pkggraph\l196 / 4.2KB\l" target="_graphviz">
<polygon fill="none" stroke="#07917e" stroke-width="2" stroke-opacity="0.698039" points="702,-144 522,-144 522,-108 702,-108 702,-144"/>
<text text-anchor="start" x="530" y="-129" font-family="Times New Roman,serif" font-size="10.00">github.com/loov/goda/internal/pkggraph</text>
<text text-anchor="start" x="530" y="-118" font-family="Times New Roman,serif" font-size="10.00">196 / 4.2KB</text>
</a>
</g>
</g>
<!-- n_github_com_loov_goda_internal_cut&#45;&gt;n_github_com_loov_goda_internal_pkggraph -->
<g id="edge8" class="edge"><title>n_github_com_loov_goda_internal_cut:e&#45;&gt;n_github_com_loov_goda_internal_pkggraph</title>
<path fill="none" stroke="#07917e" stroke-width="2" stroke-opacity="0.698039" d="M396,-218C452.023,-218 452.28,-174.531 504,-153 508.975,-150.929 514.148,-148.987 519.415,-147.171"/>
<polygon fill="#07917e" fill-opacity="0.698039" stroke="#07917e" stroke-width="2" stroke-opacity="0.698039" points="520.565,-150.478 528.977,-144.038 518.385,-143.826 520.565,-150.478"/>
</g>
<!-- n_github_com_loov_goda_internal_cut&#45;&gt;n_github_com_loov_goda_internal_pkgset -->
<g id="edge9" class="edge"><title>n_github_com_loov_goda_internal_cut:e&#45;&gt;n_github_com_loov_goda_internal_pkgset</title>
<path fill="none" stroke="#918907" stroke-width="2" stroke-opacity="0.698039" d="M396,-218C467.423,-218 442.758,-135.752 504,-99 506.834,-97.2994 509.771,-95.7055 512.786,-94.2114"/>
<polygon fill="#918907" fill-opacity="0.698039" stroke="#918907" stroke-width="2" stroke-opacity="0.698039" points="514.37,-97.3366 522.035,-90.0225 511.482,-90.9601 514.37,-97.3366"/>
</g>
<!-- n_github_com_loov_goda_internal_stat -->
<g id="node11" class="node"><title>n_github_com_loov_goda_internal_stat</title>
<g id="a_node11"><a xlink:href="https://pkg.go.dev/github.com/loov/goda/internal/stat" xlink:title="github.com/loov/goda/internal/stat\l252 / 4.6KB\l" target="_graphviz">
<polygon fill="none" stroke="#918807" stroke-width="2" stroke-opacity="0.698039" points="1026,-244 846,-244 846,-208 1026,-208 1026,-244"/>
<text text-anchor="start" x="854" y="-229" font-family="Times New Roman,serif" font-size="10.00">github.com/loov/goda/internal/stat</text>
<text text-anchor="start" x="854" y="-218" font-family="Times New Roman,serif" font-size="10.00">252 / 4.6KB</text>
</a>
</g>
</g>
<!-- n_github_com_loov_goda_internal_cut&#45;&gt;n_github_com_loov_goda_internal_stat -->
<g id="edge10" class="edge"><title>n_github_com_loov_goda_internal_cut:e&#45;&gt;n_github_com_loov_goda_internal_stat</title>
<path fill="none" stroke="#918807" stroke-width="2" stroke-opacity="0.698039" d="M396,-218C549.446,-218 727.436,-221.282 835.587,-223.641"/>
<polygon fill="#918807" fill-opacity="0.698039" stroke="#918807" stroke-width="2" stroke-opacity="0.698039" points="835.757,-227.146 845.832,-223.867 835.911,-220.148 835.757,-227.146"/>
</g>
<!-- n_github_com_loov_goda_internal_templates -->
<g id="node12" class="node"><title>n_github_com_loov_goda_internal_templates</title>
<g id="a_node12"><a xlink:href="https://pkg.go.dev/github.com/loov/goda/internal/templates" xlink:title="github.com/loov/goda/internal/templates\l164 / 3.3KB\l" target="_graphviz">
<polygon fill="none" stroke="#07914f" stroke-width="2" stroke-opacity="0.698039" points="702,-198 522,-198 522,-162 702,-162 702,-198"/>
<text text-anchor="start" x="530" y="-183" font-family="Times New Roman,serif" font-size="10.00">github.com/loov/goda/internal/templates</text>
<text text-anchor="start" x="530" y="-172" font-family="Times New Roman,serif" font-size="10.00">164 / 3.3KB</text>
</a>
</g>
</g>
<!-- n_github_com_loov_goda_internal_cut&#45;&gt;n_github_com_loov_goda_internal_templates -->
<g id="edge11" class="edge"><title>n_github_com_loov_goda_internal_cut:e&#45;&gt;n_github_com_loov_goda_internal_templates</title>
<path fill="none" stroke="#07914f" stroke-width="2" stroke-opacity="0.698039" d="M396,-218C442.223,-218 493.195,-209.377 533.903,-200.347"/>
<polygon fill="#07914f" fill-opacity="0.698039" stroke="#07914f" stroke-width="2" stroke-opacity="0.698039" points="534.778,-203.738 543.755,-198.11 533.228,-196.911 534.778,-203.738"/>
</g>
<!-- n_github_com_loov_goda_internal_memory -->
<g id="node7" class="node"><title>n_github_com_loov_goda_internal_memory</title>
<g id="a_node7"><a xlink:href="https://pkg.go.dev/github.com/loov/goda/internal/memory" xlink:title="github.com/loov/goda/internal/memory\l29 / 0.7KB\l" target="_graphviz">
<polygon fill="none" stroke="#075b91" stroke-width="2" stroke-opacity="0.698039" points="1332,-267 1152,-267 1152,-231 1332,-231 1332,-267"/>
<text text-anchor="start" x="1160" y="-252" font-family="Times New Roman,serif" font-size="10.00">github.com/loov/goda/internal/memory</text>
<text text-anchor="start" x="1160" y="-241" font-family="Times New Roman,serif" font-size="10.00">29 / 0.7KB</text>
</a>
</g>
</g>
<!-- n_github_com_loov_goda_internal_exec&#45;&gt;n_github_com_loov_goda_internal_memory -->
<g id="edge12" class="edge"><title>n_github_com_loov_goda_internal_exec:e&#45;&gt;n_github_com_loov_goda_internal_memory</title>
<path fill="none" stroke="#075b91" stroke-width="2" stroke-opacity="0.698039" d="M396,-272C665.794,-272 983.862,-260.139 1141.74,-253.452"/>
<polygon fill="#075b91" fill-opacity="0.698039" stroke="#075b91" stroke-width="2" stroke-opacity="0.698039" points="1142.06,-256.942 1151.9,-253.019 1141.77,-249.948 1142.06,-256.942"/>
</g>
<!-- n_github_com_loov_goda_internal_exec&#45;&gt;n_github_com_loov_goda_internal_templates -->
<g id="edge13" class="edge"><title>n_github_com_loov_goda_internal_exec:e&#45;&gt;n_github_com_loov_goda_internal_templates</title>
<path fill="none" stroke="#07914f" stroke-width="2" stroke-opacity="0.698039" d="M396,-272C465.219,-272 537.6,-231.196 578.23,-203.936"/>
<polygon fill="#07914f" fill-opacity="0.698039" stroke="#07914f" stroke-width="2" stroke-opacity="0.698039" points="580.371,-206.712 586.647,-198.176 576.418,-200.935 580.371,-206.712"/>
</g>
<!-- n_github_com_loov_goda_internal_graph_graphml -->
<g id="node5" class="node"><title>n_github_com_loov_goda_internal_graph_graphml</title>
<g id="a_node5"><a xlink:href="https://pkg.go.dev/github.com/loov/goda/internal/graph/graphml" xlink:title="github.com/loov/goda/internal/graph/graphml\l105 / 2.9KB\l" target="_graphviz">
<polygon fill="none" stroke="#910748" stroke-width="2" stroke-opacity="0.698039" points="720,-36 504,-36 504,-0 720,-0 720,-36"/>
<text text-anchor="start" x="512" y="-21" font-family="Times New Roman,serif" font-size="10.00">github.com/loov/goda/internal/graph/graphml</text>
<text text-anchor="start" x="512" y="-10" font-family="Times New Roman,serif" font-size="10.00">105 / 2.9KB</text>
</a>
</g>
</g>
<!-- n_github_com_loov_goda_internal_graph&#45;&gt;n_github_com_loov_goda_internal_graph_graphml -->
<g id="edge14" class="edge"><title>n_github_com_loov_goda_internal_graph:e&#45;&gt;n_github_com_loov_goda_internal_graph_graphml</title>
<path fill="none" stroke="#910748" stroke-width="2" stroke-opacity="0.698039" d="M396,-56C442.223,-56 493.195,-47.3775 533.903,-38.3471"/>
<polygon fill="#910748" fill-opacity="0.698039" stroke="#910748" stroke-width="2" stroke-opacity="0.698039" points="534.778,-41.7376 543.755,-36.1097 533.228,-34.9114 534.778,-41.7376"/>
</g>
<!-- n_github_com_loov_goda_internal_graph&#45;&gt;n_github_com_loov_goda_internal_pkggraph -->
<g id="edge15" class="edge"><title>n_github_com_loov_goda_internal_graph:e&#45;&gt;n_github_com_loov_goda_internal_pkggraph</title>
<path fill="none" stroke="#07917e" stroke-width="2" stroke-opacity="0.698039" d="M396,-56C447.665,-56 454.846,-83.0896 504,-99 510.552,-101.121 517.374,-103.178 524.26,-105.149"/>
<polygon fill="#07917e" fill-opacity="0.698039" stroke="#07917e" stroke-width="2" stroke-opacity="0.698039" points="523.799,-108.654 534.371,-107.97 525.68,-101.911 523.799,-108.654"/>
</g>
<!-- n_github_com_loov_goda_internal_graph&#45;&gt;n_github_com_loov_goda_internal_pkgset -->
<g id="edge16" class="edge"><title>n_github_com_loov_goda_internal_graph:e&#45;&gt;n_github_com_loov_goda_internal_pkgset</title>
<path fill="none" stroke="#918907" stroke-width="2" stroke-opacity="0.698039" d="M396,-56C433.891,-56 475.435,-58.502 511.817,-61.5271"/>
<polygon fill="#918907" fill-opacity="0.698039" stroke="#918907" stroke-width="2" stroke-opacity="0.698039" points="511.673,-65.0275 521.935,-62.3926 512.27,-58.0529 511.673,-65.0275"/>
</g>
<!-- n_github_com_loov_goda_internal_graph&#45;&gt;n_github_com_loov_goda_internal_templates -->
<g id="edge17" class="edge"><title>n_github_com_loov_goda_internal_graph:e&#45;&gt;n_github_com_loov_goda_internal_templates</title>
<path fill="none" stroke="#07914f" stroke-width="2" stroke-opacity="0.698039" d="M396,-56C460.518,-56 447.058,-122.666 504,-153 507.468,-154.847 511.066,-156.572 514.753,-158.182"/>
<polygon fill="#07914f" fill-opacity="0.698039" stroke="#07914f" stroke-width="2" stroke-opacity="0.698039" points="513.49,-161.446 524.073,-161.951 516.115,-154.957 513.49,-161.446"/>
</g>
<!-- n_github_com_loov_goda_internal_list&#45;&gt;n_github_com_loov_goda_internal_pkggraph -->
<g id="edge18" class="edge"><title>n_github_com_loov_goda_internal_list:e&#45;&gt;n_github_com_loov_goda_internal_pkggraph</title>
<path fill="none" stroke="#07917e" stroke-width="2" stroke-opacity="0.698039" d="M396,-110C433.891,-110 475.435,-112.502 511.817,-115.527"/>
<polygon fill="#07917e" fill-opacity="0.698039" stroke="#07917e" stroke-width="2" stroke-opacity="0.698039" points="511.673,-119.027 521.935,-116.393 512.27,-112.053 511.673,-119.027"/>
</g>
<!-- n_github_com_loov_goda_internal_list&#45;&gt;n_github_com_loov_goda_internal_pkgset -->
<g id="edge19" class="edge"><title>n_github_com_loov_goda_internal_list:e&#45;&gt;n_github_com_loov_goda_internal_pkgset</title>
<path fill="none" stroke="#918907" stroke-width="2" stroke-opacity="0.698039" d="M396,-110C442.223,-110 493.195,-101.377 533.903,-92.3471"/>
<polygon fill="#918907" fill-opacity="0.698039" stroke="#918907" stroke-width="2" stroke-opacity="0.698039" points="534.778,-95.7376 543.755,-90.1097 533.228,-88.9114 534.778,-95.7376"/>
</g>
<!-- n_github_com_loov_goda_internal_list&#45;&gt;n_github_com_loov_goda_internal_templates -->
<g id="edge20" class="edge"><title>n_github_com_loov_goda_internal_list:e&#45;&gt;n_github_com_loov_goda_internal_templates</title>
<path fill="none" stroke="#07914f" stroke-width="2" stroke-opacity="0.698039" d="M396,-110C447.665,-110 454.846,-137.09 504,-153 510.552,-155.121 517.374,-157.178 524.26,-159.149"/>
<polygon fill="#07914f" fill-opacity="0.698039" stroke="#07914f" stroke-width="2" stroke-opacity="0.698039" points="523.799,-162.654 534.371,-161.97 525.68,-155.911 523.799,-162.654"/>
</g>
<!-- n_github_com_loov_goda_internal_pkggraph&#45;&gt;n_github_com_loov_goda_internal_stat -->
<g id="edge21" class="edge"><title>n_github_com_loov_goda_internal_pkggraph:e&#45;&gt;n_github_com_loov_goda_internal_stat</title>
<path fill="none" stroke="#918807" stroke-width="2" stroke-opacity="0.698039" d="M703,-126C779.527,-126 859.508,-172.452 902.686,-202.037"/>
<polygon fill="#918807" fill-opacity="0.698039" stroke="#918807" stroke-width="2" stroke-opacity="0.698039" points="900.87,-205.037 911.073,-207.891 904.876,-199.297 900.87,-205.037"/>
</g>
<!-- n_github_com_loov_goda_internal_pkgset_ast -->
<g id="node10" class="node"><title>n_github_com_loov_goda_internal_pkgset_ast</title>
<g id="a_node10"><a xlink:href="https://pkg.go.dev/github.com/loov/goda/internal/pkgset/ast" xlink:title="github.com/loov/goda/internal/pkgset/ast\l258 / 5.7KB\l" target="_graphviz">
<polygon fill="none" stroke="#189107" stroke-width="2" stroke-opacity="0.698039" points="1044,-90 828,-90 828,-54 1044,-54 1044,-90"/>
<text text-anchor="start" x="836" y="-75" font-family="Times New Roman,serif" font-size="10.00">github.com/loov/goda/internal/pkgset/ast</text>
<text text-anchor="start" x="836" y="-64" font-family="Times New Roman,serif" font-size="10.00">258 / 5.7KB</text>
</a>
</g>
</g>
<!-- n_github_com_loov_goda_internal_pkgset&#45;&gt;n_github_com_loov_goda_internal_pkgset_ast -->
<g id="edge22" class="edge"><title>n_github_com_loov_goda_internal_pkgset:e&#45;&gt;n_github_com_loov_goda_internal_pkgset_ast</title>
<path fill="none" stroke="#189107" stroke-width="2" stroke-opacity="0.698039" d="M703,-72C740.277,-72 780.922,-72 817.629,-72"/>
<polygon fill="#189107" fill-opacity="0.698039" stroke="#189107" stroke-width="2" stroke-opacity="0.698039" points="817.872,-75.5001 827.872,-72 817.872,-68.5001 817.872,-75.5001"/>
</g>
<!-- n_github_com_loov_goda_internal_stat&#45;&gt;n_github_com_loov_goda_internal_memory -->
<g id="edge23" class="edge"><title>n_github_com_loov_goda_internal_stat:e&#45;&gt;n_github_com_loov_goda_internal_memory</title>
<path fill="none" stroke="#075b91" stroke-width="2" stroke-opacity="0.698039" d="M1027,-226C1064.66,-226 1105.83,-229.564 1141.91,-233.886"/>
<polygon fill="#075b91" fill-opacity="0.698039" stroke="#075b91" stroke-width="2" stroke-opacity="0.698039" points="1141.59,-237.374 1151.95,-235.123 1142.45,-230.426 1141.59,-237.374"/>
</g>
<!-- n_github_com_loov_goda_internal_templates&#45;&gt;n_github_com_loov_goda_internal_memory -->
<g id="edge24" class="edge"><title>n_github_com_loov_goda_internal_templates:e&#45;&gt;n_github_com_loov_goda_internal_memory</title>
<path fill="none" stroke="#075b91" stroke-width="2" stroke-opacity="0.698039" d="M703,-180C854.791,-180 893.962,-176 1044,-199 1087.22,-205.626 1134.76,-217.554 1172.31,-228.098"/>
<polygon fill="#075b91" fill-opacity="0.698039" stroke="#075b91" stroke-width="2" stroke-opacity="0.698039" points="1171.55,-231.52 1182.13,-230.886 1173.47,-224.787 1171.55,-231.52"/>
</g>
<!-- n_github_com_loov_goda_internal_tree&#45;&gt;n_github_com_loov_goda_internal_pkgset -->
<g id="edge25" class="edge"><title>n_github_com_loov_goda_internal_tree:e&#45;&gt;n_github_com_loov_goda_internal_pkgset</title>
<path fill="none" stroke="#918907" stroke-width="2" stroke-opacity="0.698039" d="M396,-164C452.023,-164 452.28,-120.531 504,-99 508.975,-96.9291 514.148,-94.9873 519.415,-93.1714"/>
<polygon fill="#918907" fill-opacity="0.698039" stroke="#918907" stroke-width="2" stroke-opacity="0.698039" points="520.565,-96.4779 528.977,-90.0377 518.385,-89.826 520.565,-96.4779"/>
</g>
<!-- n_github_com_loov_goda_internal_tree&#45;&gt;n_github_com_loov_goda_internal_templates -->
<g id="edge26" class="edge"><title>n_github_com_loov_goda_internal_tree:e&#45;&gt;n_github_com_loov_goda_internal_templates</title>
<path fill="none" stroke="#07914f" stroke-width="2" stroke-opacity="0.698039" d="M396,-164C433.891,-164 475.435,-166.502 511.817,-169.527"/>
<polygon fill="#07914f" fill-opacity="0.698039" stroke="#07914f" stroke-width="2" stroke-opacity="0.698039" points="511.673,-173.027 521.935,-170.393 512.27,-166.053 511.673,-173.027"/>
</g>
<!-- n_github_com_loov_goda_internal_weight&#45;&gt;n_github_com_loov_goda_internal_memory -->
<g id="edge27" class="edge"><title>n_github_com_loov_goda_internal_weight:e&#45;&gt;n_github_com_loov_goda_internal_memory</title>
<path fill="none" stroke="#075b91" stroke-width="2" stroke-opacity="0.698039" d="M1027,-318C1088.7,-318 1155.78,-291.701 1198.08,-271.575"/>
<polygon fill="#075b91" fill-opacity="0.698039" stroke="#075b91" stroke-width="2" stroke-opacity="0.698039" points="1199.77,-274.644 1207.24,-267.129 1196.72,-268.347 1199.77,-274.644"/>
</g>
</g>
</svg>
