<?xml version="1.0" encoding="UTF-8" standalone="no"?>
<!DOCTYPE svg PUBLIC "-//W3C//DTD SVG 1.1//EN"
 "http://www.w3.org/Graphics/SVG/1.1/DTD/svg11.dtd">
<!-- Generated by graphviz version 2.43.0 (0)
 -->
<!-- Title: G Pages: 1 -->
<svg width="1592pt" height="402pt"
 viewBox="0.00 0.00 1592.00 402.00" xmlns="http://www.w3.org/2000/svg" xmlns:xlink="http://www.w3.org/1999/xlink">
<g id="graph0" class="graph" transform="scale(1 1) rotate(0) translate(4 398)">
<title>G</title>
<polygon fill="white" stroke="transparent" points="-4,4 -4,-398 1588,-398 1588,4 -4,4"/>
<!-- n_github_com_google_subcommands -->
<g id="node1" class="node">
<title>n_github_com_google_subcommands</title>
<g id="a_node1"><a xlink:href="http://godoc.org/github.com/google/subcommands" xlink:title="github.com/google/subcommands\l440 / 12.9KB\l" target="_graphviz">
<polygon fill="none" stroke="#8a9107" stroke-width="2" stroke-opacity="0.698039" points="648,-240 468,-240 468,-204 648,-204 648,-240"/>
<text text-anchor="start" x="476" y="-224" font-family="Times,serif" font-size="10.00">github.com/google/subcommands</text>
<text text-anchor="start" x="476" y="-214" font-family="Times,serif" font-size="10.00">440 / 12.9KB</text>
</a>
</g>
</g>
<!-- n_github_com_loov_goda -->
<g id="node2" class="node">
<title>n_github_com_loov_goda</title>
<g id="a_node2"><a xlink:href="http://godoc.org/github.com/loov/goda" xlink:title="github.com/loov/goda\l116 / 3.0KB\l" target="_graphviz">
<polygon fill="none" stroke="#910721" stroke-width="2" stroke-opacity="0.698039" points="108,-221 0,-221 0,-185 108,-185 108,-221"/>
<text text-anchor="start" x="8" y="-205" font-family="Times,serif" font-size="10.00">github.com/loov/goda</text>
<text text-anchor="start" x="8" y="-195" font-family="Times,serif" font-size="10.00">116 / 3.0KB</text>
</a>
</g>
</g>
<!-- n_github_com_loov_goda&#45;&gt;n_github_com_google_subcommands -->
<g id="edge4" class="edge">
<title>n_github_com_loov_goda:e&#45;&gt;n_github_com_google_subcommands</title>
<path fill="none" stroke="#8a9107" stroke-width="2" stroke-opacity="0.698039" d="M108,-203C161.67,-203 163.77,-244.67 216,-257 278.29,-271.7 296.25,-262.62 360,-257 394.18,-253.99 431.32,-248.09 464.03,-241.98"/>
<polygon fill="#8a9107" fill-opacity="0.698039" stroke="#8a9107" stroke-width="2" stroke-opacity="0.698039" points="464.87,-245.38 474.04,-240.08 463.56,-238.51 464.87,-245.38"/>
</g>
<!-- n_github_com_loov_goda_cut -->
<g id="node3" class="node">
<title>n_github_com_loov_goda_cut</title>
<g id="a_node3"><a xlink:href="http://godoc.org/github.com/loov/goda/cut" xlink:title="github.com/loov/goda/cut\l203 / 4.1KB\l" target="_graphviz">
<polygon fill="none" stroke="#679107" stroke-width="2" stroke-opacity="0.698039" points="360,-248 216,-248 216,-212 360,-212 360,-248"/>
<text text-anchor="start" x="224" y="-232" font-family="Times,serif" font-size="10.00">github.com/loov/goda/cut</text>
<text text-anchor="start" x="224" y="-222" font-family="Times,serif" font-size="10.00">203 / 4.1KB</text>
</a>
</g>
</g>
<!-- n_github_com_loov_goda&#45;&gt;n_github_com_loov_goda_cut -->
<g id="edge3" class="edge">
<title>n_github_com_loov_goda:e&#45;&gt;n_github_com_loov_goda_cut</title>
<path fill="none" stroke="#679107" stroke-width="2" stroke-opacity="0.698039" d="M108,-203C140.19,-203 175.27,-207.32 205.78,-212.51"/>
<polygon fill="#679107" fill-opacity="0.698039" stroke="#679107" stroke-width="2" stroke-opacity="0.698039" points="205.49,-216.01 215.95,-214.29 206.7,-209.11 205.49,-216.01"/>
</g>
<!-- n_github_com_loov_goda_exec -->
<g id="node4" class="node">
<title>n_github_com_loov_goda_exec</title>
<g id="a_node4"><a xlink:href="http://godoc.org/github.com/loov/goda/exec" xlink:title="github.com/loov/goda/exec\l154 / 3.3KB\l" target="_graphviz">
<polygon fill="none" stroke="#2c9107" stroke-width="2" stroke-opacity="0.698039" points="360,-340 216,-340 216,-304 360,-304 360,-340"/>
<text text-anchor="start" x="224" y="-324" font-family="Times,serif" font-size="10.00">github.com/loov/goda/exec</text>
<text text-anchor="start" x="224" y="-314" font-family="Times,serif" font-size="10.00">154 / 3.3KB</text>
</a>
</g>
</g>
<!-- n_github_com_loov_goda&#45;&gt;n_github_com_loov_goda_exec -->
<g id="edge2" class="edge">
<title>n_github_com_loov_goda:e&#45;&gt;n_github_com_loov_goda_exec</title>
<path fill="none" stroke="#2c9107" stroke-width="2" stroke-opacity="0.698039" d="M108,-203C169.64,-203 163.48,-257.74 216,-290 221.37,-293.3 227.13,-296.45 232.98,-299.41"/>
<polygon fill="#2c9107" fill-opacity="0.698039" stroke="#2c9107" stroke-width="2" stroke-opacity="0.698039" points="231.65,-302.66 242.17,-303.89 234.71,-296.36 231.65,-302.66"/>
</g>
<!-- n_github_com_loov_goda_graph -->
<g id="node5" class="node">
<title>n_github_com_loov_goda_graph</title>
<g id="a_node5"><a xlink:href="http://godoc.org/github.com/loov/goda/graph" xlink:title="github.com/loov/goda/graph\l368 / 8.4KB\l" target="_graphviz">
<polygon fill="none" stroke="#910786" stroke-width="2" stroke-opacity="0.698039" points="360,-86 216,-86 216,-50 360,-50 360,-86"/>
<text text-anchor="start" x="224" y="-70" font-family="Times,serif" font-size="10.00">github.com/loov/goda/graph</text>
<text text-anchor="start" x="224" y="-60" font-family="Times,serif" font-size="10.00">368 / 8.4KB</text>
</a>
</g>
</g>
<!-- n_github_com_loov_goda&#45;&gt;n_github_com_loov_goda_graph -->
<g id="edge6" class="edge">
<title>n_github_com_loov_goda:e&#45;&gt;n_github_com_loov_goda_graph</title>
<path fill="none" stroke="#910786" stroke-width="2" stroke-opacity="0.698039" d="M108,-203C175.88,-203 159.01,-131.88 216,-95 218.31,-93.51 220.71,-92.08 223.18,-90.71"/>
<polygon fill="#910786" fill-opacity="0.698039" stroke="#910786" stroke-width="2" stroke-opacity="0.698039" points="225.01,-93.7 232.33,-86.04 221.84,-87.47 225.01,-93.7"/>
</g>
<!-- n_github_com_loov_goda_list -->
<g id="node6" class="node">
<title>n_github_com_loov_goda_list</title>
<g id="a_node6"><a xlink:href="http://godoc.org/github.com/loov/goda/list" xlink:title="github.com/loov/goda/list\l65 / 1.4KB\l" target="_graphviz">
<polygon fill="none" stroke="#0d0791" stroke-width="2" stroke-opacity="0.698039" points="360,-194 216,-194 216,-158 360,-158 360,-194"/>
<text text-anchor="start" x="224" y="-178" font-family="Times,serif" font-size="10.00">github.com/loov/goda/list</text>
<text text-anchor="start" x="224" y="-168" font-family="Times,serif" font-size="10.00">65 / 1.4KB</text>
</a>
</g>
</g>
<!-- n_github_com_loov_goda&#45;&gt;n_github_com_loov_goda_list -->
<g id="edge7" class="edge">
<title>n_github_com_loov_goda:e&#45;&gt;n_github_com_loov_goda_list</title>
<path fill="none" stroke="#0d0791" stroke-width="2" stroke-opacity="0.698039" d="M108,-203C140.19,-203 175.27,-198.68 205.78,-193.49"/>
<polygon fill="#0d0791" fill-opacity="0.698039" stroke="#0d0791" stroke-width="2" stroke-opacity="0.698039" points="206.7,-196.89 215.95,-191.71 205.49,-189.99 206.7,-196.89"/>
</g>
<!-- n_github_com_loov_goda_pkgset -->
<g id="node8" class="node">
<title>n_github_com_loov_goda_pkgset</title>
<g id="a_node8"><a xlink:href="http://godoc.org/github.com/loov/goda/pkgset" xlink:title="github.com/loov/goda/pkgset\l662 / 12.2KB\l" target="_graphviz">
<polygon fill="none" stroke="#073f91" stroke-width="2" stroke-opacity="0.698039" points="630,-94 486,-94 486,-58 630,-58 630,-94"/>
<text text-anchor="start" x="494" y="-78" font-family="Times,serif" font-size="10.00">github.com/loov/goda/pkgset</text>
<text text-anchor="start" x="494" y="-68" font-family="Times,serif" font-size="10.00">662 / 12.2KB</text>
</a>
</g>
</g>
<!-- n_github_com_loov_goda&#45;&gt;n_github_com_loov_goda_pkgset -->
<g id="edge5" class="edge">
<title>n_github_com_loov_goda:e&#45;&gt;n_github_com_loov_goda_pkgset</title>
<path fill="none" stroke="#073f91" stroke-width="2" stroke-opacity="0.698039" d="M108,-203C194.53,-203 139.71,-81.83 216,-41 309.34,8.95 437.61,-27.41 507.2,-54.26"/>
<polygon fill="#073f91" fill-opacity="0.698039" stroke="#073f91" stroke-width="2" stroke-opacity="0.698039" points="506.03,-57.56 516.62,-57.97 508.6,-51.05 506.03,-57.56"/>
</g>
<!-- n_github_com_loov_goda_tree -->
<g id="node11" class="node">
<title>n_github_com_loov_goda_tree</title>
<g id="a_node11"><a xlink:href="http://godoc.org/github.com/loov/goda/tree" xlink:title="github.com/loov/goda/tree\l101 / 2.2KB\l" target="_graphviz">
<polygon fill="none" stroke="#8e9107" stroke-width="2" stroke-opacity="0.698039" points="360,-140 216,-140 216,-104 360,-104 360,-140"/>
<text text-anchor="start" x="224" y="-124" font-family="Times,serif" font-size="10.00">github.com/loov/goda/tree</text>
<text text-anchor="start" x="224" y="-114" font-family="Times,serif" font-size="10.00">101 / 2.2KB</text>
</a>
</g>
</g>
<!-- n_github_com_loov_goda&#45;&gt;n_github_com_loov_goda_tree -->
<g id="edge1" class="edge">
<title>n_github_com_loov_goda:e&#45;&gt;n_github_com_loov_goda_tree</title>
<path fill="none" stroke="#8e9107" stroke-width="2" stroke-opacity="0.698039" d="M108,-203C161.67,-203 166.86,-170.56 216,-149 219.87,-147.3 223.89,-145.6 227.95,-143.94"/>
<polygon fill="#8e9107" fill-opacity="0.698039" stroke="#8e9107" stroke-width="2" stroke-opacity="0.698039" points="229.5,-147.08 237.47,-140.1 226.89,-140.59 229.5,-147.08"/>
</g>
<!-- n_github_com_loov_goda_weight -->
<g id="node12" class="node">
<title>n_github_com_loov_goda_weight</title>
<g id="a_node12"><a xlink:href="http://godoc.org/github.com/loov/goda/weight" xlink:title="github.com/loov/goda/weight\l276 / 5.7KB\l" target="_graphviz">
<polygon fill="none" stroke="#072a91" stroke-width="2" stroke-opacity="0.698039" points="360,-394 216,-394 216,-358 360,-358 360,-394"/>
<text text-anchor="start" x="224" y="-378" font-family="Times,serif" font-size="10.00">github.com/loov/goda/weight</text>
<text text-anchor="start" x="224" y="-368" font-family="Times,serif" font-size="10.00">276 / 5.7KB</text>
</a>
</g>
</g>
<!-- n_github_com_loov_goda&#45;&gt;n_github_com_loov_goda_weight -->
<g id="edge8" class="edge">
<title>n_github_com_loov_goda:e&#45;&gt;n_github_com_loov_goda_weight</title>
<path fill="none" stroke="#072a91" stroke-width="2" stroke-opacity="0.698039" d="M108,-203C188.71,-203 151.68,-300.24 216,-349 217.79,-350.36 219.66,-351.66 221.59,-352.9"/>
<polygon fill="#072a91" fill-opacity="0.698039" stroke="#072a91" stroke-width="2" stroke-opacity="0.698039" points="219.95,-355.99 230.36,-357.96 223.45,-349.93 219.95,-355.99"/>
</g>
<!-- n_github_com_loov_goda_cut&#45;&gt;n_github_com_google_subcommands -->
<g id="edge9" class="edge">
<title>n_github_com_loov_goda_cut:e&#45;&gt;n_github_com_google_subcommands</title>
<path fill="none" stroke="#8a9107" stroke-width="2" stroke-opacity="0.698039" d="M360,-230C391.81,-230 426.49,-228.95 457.76,-227.6"/>
<polygon fill="#8a9107" fill-opacity="0.698039" stroke="#8a9107" stroke-width="2" stroke-opacity="0.698039" points="457.95,-231.1 467.79,-227.16 457.64,-224.1 457.95,-231.1"/>
</g>
<!-- n_github_com_loov_goda_memory -->
<g id="node7" class="node">
<title>n_github_com_loov_goda_memory</title>
<g id="a_node7"><a xlink:href="http://godoc.org/github.com/loov/goda/memory" xlink:title="github.com/loov/goda/memory\l35 / 0.7KB\l" target="_graphviz">
<polygon fill="none" stroke="#079120" stroke-width="2" stroke-opacity="0.698039" points="918,-343 774,-343 774,-307 918,-307 918,-343"/>
<text text-anchor="start" x="782" y="-327" font-family="Times,serif" font-size="10.00">github.com/loov/goda/memory</text>
<text text-anchor="start" x="782" y="-317" font-family="Times,serif" font-size="10.00">35 / 0.7KB</text>
</a>
</g>
</g>
<!-- n_github_com_loov_goda_cut&#45;&gt;n_github_com_loov_goda_memory -->
<g id="edge11" class="edge">
<title>n_github_com_loov_goda_cut:e&#45;&gt;n_github_com_loov_goda_memory</title>
<path fill="none" stroke="#079120" stroke-width="2" stroke-opacity="0.698039" d="M360,-230C413.27,-230 416.82,-267.22 468,-282 567.18,-310.64 686.21,-320.33 763.62,-323.54"/>
<polygon fill="#079120" fill-opacity="0.698039" stroke="#079120" stroke-width="2" stroke-opacity="0.698039" points="763.66,-327.04 773.79,-323.93 763.93,-320.05 763.66,-327.04"/>
</g>
<!-- n_github_com_loov_goda_cut&#45;&gt;n_github_com_loov_goda_pkgset -->
<g id="edge12" class="edge">
<title>n_github_com_loov_goda_cut:e&#45;&gt;n_github_com_loov_goda_pkgset</title>
<path fill="none" stroke="#073f91" stroke-width="2" stroke-opacity="0.698039" d="M360,-230C422.2,-230 418.86,-179.14 468,-141 485.89,-127.11 506.26,-112.17 523,-100.12"/>
<polygon fill="#073f91" fill-opacity="0.698039" stroke="#073f91" stroke-width="2" stroke-opacity="0.698039" points="525.3,-102.78 531.39,-94.1 521.22,-97.09 525.3,-102.78"/>
</g>
<!-- n_github_com_loov_goda_templates -->
<g id="node10" class="node">
<title>n_github_com_loov_goda_templates</title>
<g id="a_node10"><a xlink:href="http://godoc.org/github.com/loov/goda/templates" xlink:title="github.com/loov/goda/templates\l196 / 3.8KB\l" target="_graphviz">
<polygon fill="none" stroke="#073e91" stroke-width="2" stroke-opacity="0.698039" points="648,-186 468,-186 468,-150 648,-150 648,-186"/>
<text text-anchor="start" x="476" y="-170" font-family="Times,serif" font-size="10.00">github.com/loov/goda/templates</text>
<text text-anchor="start" x="476" y="-160" font-family="Times,serif" font-size="10.00">196 / 3.8KB</text>
</a>
</g>
</g>
<!-- n_github_com_loov_goda_cut&#45;&gt;n_github_com_loov_goda_templates -->
<g id="edge10" class="edge">
<title>n_github_com_loov_goda_cut:e&#45;&gt;n_github_com_loov_goda_templates</title>
<path fill="none" stroke="#073e91" stroke-width="2" stroke-opacity="0.698039" d="M360,-230C410.46,-230 419.86,-210.1 468,-195 474.31,-193.02 480.89,-190.98 487.48,-188.95"/>
<polygon fill="#073e91" fill-opacity="0.698039" stroke="#073e91" stroke-width="2" stroke-opacity="0.698039" points="488.58,-192.28 497.11,-186 486.52,-185.58 488.58,-192.28"/>
</g>
<!-- n_golang_org_x_tools_go_packages -->
<g id="node17" class="node">
<title>n_golang_org_x_tools_go_packages</title>
<g id="a_node17"><a xlink:href="http://godoc.org/golang.org/x/tools/go/packages" xlink:title="golang.org/x/tools/go/packages\l2988 / 91.7KB\l" target="_graphviz">
<polygon fill="none" stroke="#07912d" stroke-width="2" stroke-opacity="0.698039" points="918,-144 774,-144 774,-108 918,-108 918,-144"/>
<text text-anchor="start" x="782" y="-128" font-family="Times,serif" font-size="10.00">golang.org/x/tools/go/packages</text>
<text text-anchor="start" x="782" y="-118" font-family="Times,serif" font-size="10.00">2988 / 91.7KB</text>
</a>
</g>
</g>
<!-- n_github_com_loov_goda_cut&#45;&gt;n_golang_org_x_tools_go_packages -->
<g id="edge13" class="edge">
<title>n_github_com_loov_goda_cut:e&#45;&gt;n_golang_org_x_tools_go_packages</title>
<path fill="none" stroke="#07912d" stroke-width="2" stroke-opacity="0.698039" d="M360,-230C408.74,-230 419.45,-244.76 468,-249 547.7,-255.96 571.1,-271.04 648,-249 714.85,-229.85 781.03,-180.68 817.11,-150.63"/>
<polygon fill="#07912d" fill-opacity="0.698039" stroke="#07912d" stroke-width="2" stroke-opacity="0.698039" points="819.39,-153.29 824.77,-144.16 814.87,-147.94 819.39,-153.29"/>
</g>
<!-- n_github_com_loov_goda_exec&#45;&gt;n_github_com_google_subcommands -->
<g id="edge15" class="edge">
<title>n_github_com_loov_goda_exec:e&#45;&gt;n_github_com_google_subcommands</title>
<path fill="none" stroke="#8a9107" stroke-width="2" stroke-opacity="0.698039" d="M360,-322C426.22,-322 492.73,-276.51 529.01,-246.89"/>
<polygon fill="#8a9107" fill-opacity="0.698039" stroke="#8a9107" stroke-width="2" stroke-opacity="0.698039" points="531.71,-249.2 537.14,-240.11 527.22,-243.83 531.71,-249.2"/>
</g>
<!-- n_github_com_loov_goda_exec&#45;&gt;n_github_com_loov_goda_memory -->
<g id="edge16" class="edge">
<title>n_github_com_loov_goda_exec:e&#45;&gt;n_github_com_loov_goda_memory</title>
<path fill="none" stroke="#079120" stroke-width="2" stroke-opacity="0.698039" d="M360,-322C501.97,-322 667.32,-323.3 763.66,-324.19"/>
<polygon fill="#079120" fill-opacity="0.698039" stroke="#079120" stroke-width="2" stroke-opacity="0.698039" points="763.88,-327.69 773.91,-324.29 763.95,-320.69 763.88,-327.69"/>
</g>
<!-- n_github_com_loov_goda_exec&#45;&gt;n_github_com_loov_goda_templates -->
<g id="edge14" class="edge">
<title>n_github_com_loov_goda_exec:e&#45;&gt;n_github_com_loov_goda_templates</title>
<path fill="none" stroke="#073e91" stroke-width="2" stroke-opacity="0.698039" d="M360,-322C434.09,-322 406.04,-235.62 468,-195 470.41,-193.42 472.91,-191.93 475.48,-190.53"/>
<polygon fill="#073e91" fill-opacity="0.698039" stroke="#073e91" stroke-width="2" stroke-opacity="0.698039" points="477.06,-193.65 484.46,-186.07 473.95,-187.38 477.06,-193.65"/>
</g>
<!-- n_github_com_loov_goda_graph&#45;&gt;n_github_com_google_subcommands -->
<g id="edge19" class="edge">
<title>n_github_com_loov_goda_graph:e&#45;&gt;n_github_com_google_subcommands</title>
<path fill="none" stroke="#8a9107" stroke-width="2" stroke-opacity="0.698039" d="M360,-68C434.09,-68 406.04,-154.38 468,-195 470.41,-196.58 472.91,-198.07 475.48,-199.47"/>
<polygon fill="#8a9107" fill-opacity="0.698039" stroke="#8a9107" stroke-width="2" stroke-opacity="0.698039" points="473.95,-202.62 484.46,-203.93 477.06,-196.35 473.95,-202.62"/>
</g>
<!-- n_github_com_loov_goda_graph&#45;&gt;n_github_com_loov_goda_pkgset -->
<g id="edge20" class="edge">
<title>n_github_com_loov_goda_graph:e&#45;&gt;n_github_com_loov_goda_pkgset</title>
<path fill="none" stroke="#073f91" stroke-width="2" stroke-opacity="0.698039" d="M360,-68C398.01,-68 440.11,-69.51 475.6,-71.21"/>
<polygon fill="#073f91" fill-opacity="0.698039" stroke="#073f91" stroke-width="2" stroke-opacity="0.698039" points="475.74,-74.72 485.9,-71.72 476.09,-67.73 475.74,-74.72"/>
</g>
<!-- n_github_com_loov_goda_graph&#45;&gt;n_github_com_loov_goda_templates -->
<g id="edge17" class="edge">
<title>n_github_com_loov_goda_graph:e&#45;&gt;n_github_com_loov_goda_templates</title>
<path fill="none" stroke="#073e91" stroke-width="2" stroke-opacity="0.698039" d="M360,-68C393.6,-68 473.49,-114.84 520.56,-144.41"/>
<polygon fill="#073e91" fill-opacity="0.698039" stroke="#073e91" stroke-width="2" stroke-opacity="0.698039" points="518.91,-147.5 529.23,-149.89 522.65,-141.59 518.91,-147.5"/>
</g>
<!-- n_github_com_loov_goda_graph&#45;&gt;n_golang_org_x_tools_go_packages -->
<g id="edge18" class="edge">
<title>n_github_com_loov_goda_graph:e&#45;&gt;n_golang_org_x_tools_go_packages</title>
<path fill="none" stroke="#07912d" stroke-width="2" stroke-opacity="0.698039" d="M360,-68C408.74,-68 419.45,-53.24 468,-49 547.7,-42.04 569.87,-31.79 648,-49 699.66,-60.38 706.57,-80.17 756,-99 761.09,-100.94 766.39,-102.84 771.75,-104.67"/>
<polygon fill="#07912d" fill-opacity="0.698039" stroke="#07912d" stroke-width="2" stroke-opacity="0.698039" points="770.83,-108.06 781.43,-107.9 773.05,-101.42 770.83,-108.06"/>
</g>
<!-- n_github_com_loov_goda_list&#45;&gt;n_github_com_google_subcommands -->
<g id="edge21" class="edge">
<title>n_github_com_loov_goda_list:e&#45;&gt;n_github_com_google_subcommands</title>
<path fill="none" stroke="#8a9107" stroke-width="2" stroke-opacity="0.698039" d="M360,-176C383.97,-176 438.38,-189.08 483.95,-201.28"/>
<polygon fill="#8a9107" fill-opacity="0.698039" stroke="#8a9107" stroke-width="2" stroke-opacity="0.698039" points="483.26,-204.72 493.83,-203.95 485.09,-197.96 483.26,-204.72"/>
</g>
<!-- n_github_com_loov_goda_list&#45;&gt;n_github_com_loov_goda_pkgset -->
<g id="edge22" class="edge">
<title>n_github_com_loov_goda_list:e&#45;&gt;n_github_com_loov_goda_pkgset</title>
<path fill="none" stroke="#073f91" stroke-width="2" stroke-opacity="0.698039" d="M360,-176C393.6,-176 473.49,-129.16 520.56,-99.59"/>
<polygon fill="#073f91" fill-opacity="0.698039" stroke="#073f91" stroke-width="2" stroke-opacity="0.698039" points="522.65,-102.41 529.23,-94.11 518.91,-96.5 522.65,-102.41"/>
</g>
<!-- n_github_com_loov_goda_list&#45;&gt;n_github_com_loov_goda_templates -->
<g id="edge23" class="edge">
<title>n_github_com_loov_goda_list:e&#45;&gt;n_github_com_loov_goda_templates</title>
<path fill="none" stroke="#073e91" stroke-width="2" stroke-opacity="0.698039" d="M360,-176C391.81,-176 426.49,-174.95 457.76,-173.6"/>
<polygon fill="#073e91" fill-opacity="0.698039" stroke="#073e91" stroke-width="2" stroke-opacity="0.698039" points="457.95,-177.1 467.79,-173.16 457.64,-170.1 457.95,-177.1"/>
</g>
<!-- n_github_com_loov_goda_pkgset_ast -->
<g id="node9" class="node">
<title>n_github_com_loov_goda_pkgset_ast</title>
<g id="a_node9"><a xlink:href="http://godoc.org/github.com/loov/goda/pkgset/ast" xlink:title="github.com/loov/goda/pkgset/ast\l298 / 5.5KB\l" target="_graphviz">
<polygon fill="none" stroke="#07917c" stroke-width="2" stroke-opacity="0.698039" points="936,-90 756,-90 756,-54 936,-54 936,-90"/>
<text text-anchor="start" x="764" y="-74" font-family="Times,serif" font-size="10.00">github.com/loov/goda/pkgset/ast</text>
<text text-anchor="start" x="764" y="-64" font-family="Times,serif" font-size="10.00">298 / 5.5KB</text>
</a>
</g>
</g>
<!-- n_github_com_loov_goda_pkgset&#45;&gt;n_github_com_loov_goda_pkgset_ast -->
<g id="edge25" class="edge">
<title>n_github_com_loov_goda_pkgset:e&#45;&gt;n_github_com_loov_goda_pkgset_ast</title>
<path fill="none" stroke="#07917c" stroke-width="2" stroke-opacity="0.698039" d="M631,-76C668.53,-76 709.76,-75.38 745.93,-74.62"/>
<polygon fill="#07917c" fill-opacity="0.698039" stroke="#07917c" stroke-width="2" stroke-opacity="0.698039" points="746.06,-78.12 755.99,-74.41 745.91,-71.12 746.06,-78.12"/>
</g>
<!-- n_github_com_loov_goda_pkgset&#45;&gt;n_golang_org_x_tools_go_packages -->
<g id="edge24" class="edge">
<title>n_github_com_loov_goda_pkgset:e&#45;&gt;n_golang_org_x_tools_go_packages</title>
<path fill="none" stroke="#07912d" stroke-width="2" stroke-opacity="0.698039" d="M631,-76C658.18,-76 721.41,-91.49 772.13,-105.23"/>
<polygon fill="#07912d" fill-opacity="0.698039" stroke="#07912d" stroke-width="2" stroke-opacity="0.698039" points="771.53,-108.69 782.1,-107.95 773.37,-101.94 771.53,-108.69"/>
</g>
<!-- n_github_com_loov_goda_templates&#45;&gt;n_github_com_loov_goda_memory -->
<g id="edge26" class="edge">
<title>n_github_com_loov_goda_templates:e&#45;&gt;n_github_com_loov_goda_memory</title>
<path fill="none" stroke="#079120" stroke-width="2" stroke-opacity="0.698039" d="M648,-168C730.65,-168 798.63,-253.56 828.56,-298.35"/>
<polygon fill="#079120" fill-opacity="0.698039" stroke="#079120" stroke-width="2" stroke-opacity="0.698039" points="825.8,-300.53 834.19,-306.99 831.66,-296.7 825.8,-300.53"/>
</g>
<!-- n_github_com_loov_goda_templates&#45;&gt;n_golang_org_x_tools_go_packages -->
<g id="edge27" class="edge">
<title>n_github_com_loov_goda_templates:e&#45;&gt;n_golang_org_x_tools_go_packages</title>
<path fill="none" stroke="#07912d" stroke-width="2" stroke-opacity="0.698039" d="M648,-168C692.94,-168 742.41,-157.42 780.53,-146.87"/>
<polygon fill="#07912d" fill-opacity="0.698039" stroke="#07912d" stroke-width="2" stroke-opacity="0.698039" points="781.8,-150.15 790.47,-144.06 779.89,-143.42 781.8,-150.15"/>
</g>
<!-- n_github_com_loov_goda_tree&#45;&gt;n_github_com_google_subcommands -->
<g id="edge30" class="edge">
<title>n_github_com_loov_goda_tree:e&#45;&gt;n_github_com_google_subcommands</title>
<path fill="none" stroke="#8a9107" stroke-width="2" stroke-opacity="0.698039" d="M360,-122C417.94,-122 415.69,-170.09 468,-195 471.85,-196.84 475.86,-198.58 479.95,-200.23"/>
<polygon fill="#8a9107" fill-opacity="0.698039" stroke="#8a9107" stroke-width="2" stroke-opacity="0.698039" points="479.01,-203.62 489.6,-203.92 481.51,-197.08 479.01,-203.62"/>
</g>
<!-- n_github_com_loov_goda_tree&#45;&gt;n_github_com_loov_goda_pkgset -->
<g id="edge31" class="edge">
<title>n_github_com_loov_goda_tree:e&#45;&gt;n_github_com_loov_goda_pkgset</title>
<path fill="none" stroke="#073f91" stroke-width="2" stroke-opacity="0.698039" d="M360,-122C407.43,-122 459.65,-109.2 498.4,-97.1"/>
<polygon fill="#073f91" fill-opacity="0.698039" stroke="#073f91" stroke-width="2" stroke-opacity="0.698039" points="499.49,-100.43 507.95,-94.05 497.36,-93.76 499.49,-100.43"/>
</g>
<!-- n_github_com_loov_goda_tree&#45;&gt;n_github_com_loov_goda_templates -->
<g id="edge29" class="edge">
<title>n_github_com_loov_goda_tree:e&#45;&gt;n_github_com_loov_goda_templates</title>
<path fill="none" stroke="#073e91" stroke-width="2" stroke-opacity="0.698039" d="M360,-122C407.43,-122 459.65,-134.8 498.4,-146.9"/>
<polygon fill="#073e91" fill-opacity="0.698039" stroke="#073e91" stroke-width="2" stroke-opacity="0.698039" points="497.36,-150.24 507.95,-149.95 499.49,-143.57 497.36,-150.24"/>
</g>
<!-- n_github_com_loov_goda_tree&#45;&gt;n_golang_org_x_tools_go_packages -->
<g id="edge28" class="edge">
<title>n_github_com_loov_goda_tree:e&#45;&gt;n_golang_org_x_tools_go_packages</title>
<path fill="none" stroke="#07912d" stroke-width="2" stroke-opacity="0.698039" d="M360,-122C501.97,-122 667.32,-123.74 763.66,-124.92"/>
<polygon fill="#07912d" fill-opacity="0.698039" stroke="#07912d" stroke-width="2" stroke-opacity="0.698039" points="763.87,-128.42 773.91,-125.05 763.96,-121.42 763.87,-128.42"/>
</g>
<!-- n_github_com_loov_goda_weight&#45;&gt;n_github_com_google_subcommands -->
<g id="edge32" class="edge">
<title>n_github_com_loov_goda_weight:e&#45;&gt;n_github_com_google_subcommands</title>
<path fill="none" stroke="#8a9107" stroke-width="2" stroke-opacity="0.698039" d="M360,-376C441.63,-376 509.63,-292.91 539.98,-248.79"/>
<polygon fill="#8a9107" fill-opacity="0.698039" stroke="#8a9107" stroke-width="2" stroke-opacity="0.698039" points="543.04,-250.52 545.71,-240.27 537.23,-246.62 543.04,-250.52"/>
</g>
<!-- n_github_com_loov_goda_weight&#45;&gt;n_github_com_loov_goda_memory -->
<g id="edge33" class="edge">
<title>n_github_com_loov_goda_weight:e&#45;&gt;n_github_com_loov_goda_memory</title>
<path fill="none" stroke="#079120" stroke-width="2" stroke-opacity="0.698039" d="M360,-376C502.69,-376 667.71,-353.9 763.81,-338.79"/>
<polygon fill="#079120" fill-opacity="0.698039" stroke="#079120" stroke-width="2" stroke-opacity="0.698039" points="764.42,-342.24 773.75,-337.22 763.33,-335.32 764.42,-342.24"/>
</g>
<!-- n_golang_org_x_tools_go_gcexportdata -->
<g id="node13" class="node">
<title>n_golang_org_x_tools_go_gcexportdata</title>
<g id="a_node13"><a xlink:href="http://godoc.org/golang.org/x/tools/go/gcexportdata" xlink:title="golang.org/x/tools/go/gcexportdata\l182 / 6.2KB\l" target="_graphviz">
<polygon fill="none" stroke="#910775" stroke-width="2" stroke-opacity="0.698039" points="1242,-252 1062,-252 1062,-216 1242,-216 1242,-252"/>
<text text-anchor="start" x="1070" y="-236" font-family="Times,serif" font-size="10.00">golang.org/x/tools/go/gcexportdata</text>
<text text-anchor="start" x="1070" y="-226" font-family="Times,serif" font-size="10.00">182 / 6.2KB</text>
</a>
</g>
</g>
<!-- n_golang_org_x_tools_go_internal_gcimporter -->
<g id="node15" class="node">
<title>n_golang_org_x_tools_go_internal_gcimporter</title>
<g id="a_node15"><a xlink:href="http://godoc.org/golang.org/x/tools/go/internal/gcimporter" xlink:title="golang.org/x/tools/go/internal/gcimporter\l3662 / 86.4KB\l" target="_graphviz">
<polygon fill="none" stroke="#0c9107" stroke-width="2" stroke-opacity="0.698039" points="1584,-252 1368,-252 1368,-216 1584,-216 1584,-252"/>
<text text-anchor="start" x="1376" y="-236" font-family="Times,serif" font-size="10.00">golang.org/x/tools/go/internal/gcimporter</text>
<text text-anchor="start" x="1376" y="-226" font-family="Times,serif" font-size="10.00">3662 / 86.4KB</text>
</a>
</g>
</g>
<!-- n_golang_org_x_tools_go_gcexportdata&#45;&gt;n_golang_org_x_tools_go_internal_gcimporter -->
<g id="edge34" class="edge">
<title>n_golang_org_x_tools_go_gcexportdata:e&#45;&gt;n_golang_org_x_tools_go_internal_gcimporter</title>
<path fill="none" stroke="#0c9107" stroke-width="2" stroke-opacity="0.698039" d="M1243,-234C1280.28,-234 1320.92,-234 1357.63,-234"/>
<polygon fill="#0c9107" fill-opacity="0.698039" stroke="#0c9107" stroke-width="2" stroke-opacity="0.698039" points="1357.87,-237.5 1367.87,-234 1357.87,-230.5 1357.87,-237.5"/>
</g>
<!-- n_golang_org_x_tools_go_internal_cgo -->
<g id="node14" class="node">
<title>n_golang_org_x_tools_go_internal_cgo</title>
<g id="a_node14"><a xlink:href="http://godoc.org/golang.org/x/tools/go/internal/cgo" xlink:title="golang.org/x/tools/go/internal/cgo\l259 / 8.2KB\l" target="_graphviz">
<polygon fill="none" stroke="#073491" stroke-width="2" stroke-opacity="0.698039" points="1242,-198 1062,-198 1062,-162 1242,-162 1242,-198"/>
<text text-anchor="start" x="1070" y="-182" font-family="Times,serif" font-size="10.00">golang.org/x/tools/go/internal/cgo</text>
<text text-anchor="start" x="1070" y="-172" font-family="Times,serif" font-size="10.00">259 / 8.2KB</text>
</a>
</g>
</g>
<!-- n_golang_org_x_tools_go_internal_packagesdriver -->
<g id="node16" class="node">
<title>n_golang_org_x_tools_go_internal_packagesdriver</title>
<g id="a_node16"><a xlink:href="http://godoc.org/golang.org/x/tools/go/internal/packagesdriver" xlink:title="golang.org/x/tools/go/internal/packagesdriver\l157 / 4.8KB\l" target="_graphviz">
<polygon fill="none" stroke="#849107" stroke-width="2" stroke-opacity="0.698039" points="1260,-144 1044,-144 1044,-108 1260,-108 1260,-144"/>
<text text-anchor="start" x="1052" y="-128" font-family="Times,serif" font-size="10.00">golang.org/x/tools/go/internal/packagesdriver</text>
<text text-anchor="start" x="1052" y="-118" font-family="Times,serif" font-size="10.00">157 / 4.8KB</text>
</a>
</g>
</g>
<!-- n_golang_org_x_tools_go_packages&#45;&gt;n_golang_org_x_tools_go_gcexportdata -->
<g id="edge39" class="edge">
<title>n_golang_org_x_tools_go_packages:e&#45;&gt;n_golang_org_x_tools_go_gcexportdata</title>
<path fill="none" stroke="#910775" stroke-width="2" stroke-opacity="0.698039" d="M919,-126C985.2,-126 983.32,-180.55 1044,-207 1048.66,-209.03 1053.49,-210.93 1058.43,-212.7"/>
<polygon fill="#910775" fill-opacity="0.698039" stroke="#910775" stroke-width="2" stroke-opacity="0.698039" points="1057.42,-216.05 1068.01,-215.96 1059.67,-209.43 1057.42,-216.05"/>
</g>
<!-- n_golang_org_x_tools_go_packages&#45;&gt;n_golang_org_x_tools_go_internal_cgo -->
<g id="edge35" class="edge">
<title>n_golang_org_x_tools_go_packages:e&#45;&gt;n_golang_org_x_tools_go_internal_cgo</title>
<path fill="none" stroke="#073491" stroke-width="2" stroke-opacity="0.698039" d="M919,-126C926.69,-126 1003.81,-144.24 1067.06,-159.52"/>
<polygon fill="#073491" fill-opacity="0.698039" stroke="#073491" stroke-width="2" stroke-opacity="0.698039" points="1066.54,-162.99 1077.08,-161.94 1068.18,-156.19 1066.54,-162.99"/>
</g>
<!-- n_golang_org_x_tools_go_packages&#45;&gt;n_golang_org_x_tools_go_internal_packagesdriver -->
<g id="edge36" class="edge">
<title>n_golang_org_x_tools_go_packages:e&#45;&gt;n_golang_org_x_tools_go_internal_packagesdriver</title>
<path fill="none" stroke="#849107" stroke-width="2" stroke-opacity="0.698039" d="M919,-126C956.28,-126 996.92,-126 1033.63,-126"/>
<polygon fill="#849107" fill-opacity="0.698039" stroke="#849107" stroke-width="2" stroke-opacity="0.698039" points="1033.87,-129.5 1043.87,-126 1033.87,-122.5 1033.87,-129.5"/>
</g>
<!-- n_golang_org_x_tools_internal_gopathwalk -->
<g id="node19" class="node">
<title>n_golang_org_x_tools_internal_gopathwalk</title>
<g id="a_node19"><a xlink:href="http://godoc.org/golang.org/x/tools/internal/gopathwalk" xlink:title="golang.org/x/tools/internal/gopathwalk\l249 / 6.1KB\l" target="_graphviz">
<polygon fill="none" stroke="#079175" stroke-width="2" stroke-opacity="0.698039" points="1242,-90 1062,-90 1062,-54 1242,-54 1242,-90"/>
<text text-anchor="start" x="1070" y="-74" font-family="Times,serif" font-size="10.00">golang.org/x/tools/internal/gopathwalk</text>
<text text-anchor="start" x="1070" y="-64" font-family="Times,serif" font-size="10.00">249 / 6.1KB</text>
</a>
</g>
</g>
<!-- n_golang_org_x_tools_go_packages&#45;&gt;n_golang_org_x_tools_internal_gopathwalk -->
<g id="edge37" class="edge">
<title>n_golang_org_x_tools_go_packages:e&#45;&gt;n_golang_org_x_tools_internal_gopathwalk</title>
<path fill="none" stroke="#079175" stroke-width="2" stroke-opacity="0.698039" d="M919,-126C926.69,-126 1003.81,-107.76 1067.06,-92.48"/>
<polygon fill="#079175" fill-opacity="0.698039" stroke="#079175" stroke-width="2" stroke-opacity="0.698039" points="1068.18,-95.81 1077.08,-90.06 1066.54,-89.01 1068.18,-95.81"/>
</g>
<!-- n_golang_org_x_tools_internal_semver -->
<g id="node20" class="node">
<title>n_golang_org_x_tools_internal_semver</title>
<g id="a_node20"><a xlink:href="http://godoc.org/golang.org/x/tools/internal/semver" xlink:title="golang.org/x/tools/internal/semver\l388 / 8.5KB\l" target="_graphviz">
<polygon fill="none" stroke="#075491" stroke-width="2" stroke-opacity="0.698039" points="1242,-36 1062,-36 1062,0 1242,0 1242,-36"/>
<text text-anchor="start" x="1070" y="-20" font-family="Times,serif" font-size="10.00">golang.org/x/tools/internal/semver</text>
<text text-anchor="start" x="1070" y="-10" font-family="Times,serif" font-size="10.00">388 / 8.5KB</text>
</a>
</g>
</g>
<!-- n_golang_org_x_tools_go_packages&#45;&gt;n_golang_org_x_tools_internal_semver -->
<g id="edge38" class="edge">
<title>n_golang_org_x_tools_go_packages:e&#45;&gt;n_golang_org_x_tools_internal_semver</title>
<path fill="none" stroke="#075491" stroke-width="2" stroke-opacity="0.698039" d="M919,-126C985.2,-126 983.32,-71.45 1044,-45 1048.66,-42.97 1053.49,-41.07 1058.43,-39.3"/>
<polygon fill="#075491" fill-opacity="0.698039" stroke="#075491" stroke-width="2" stroke-opacity="0.698039" points="1059.67,-42.57 1068.01,-36.04 1057.42,-35.95 1059.67,-42.57"/>
</g>
<!-- n_golang_org_x_tools_internal_fastwalk -->
<g id="node18" class="node">
<title>n_golang_org_x_tools_internal_fastwalk</title>
<g id="a_node18"><a xlink:href="http://godoc.org/golang.org/x/tools/internal/fastwalk" xlink:title="golang.org/x/tools/internal/fastwalk\l350 / 9.3KB\l" target="_graphviz">
<polygon fill="none" stroke="#879107" stroke-width="2" stroke-opacity="0.698039" points="1566,-90 1386,-90 1386,-54 1566,-54 1566,-90"/>
<text text-anchor="start" x="1394" y="-74" font-family="Times,serif" font-size="10.00">golang.org/x/tools/internal/fastwalk</text>
<text text-anchor="start" x="1394" y="-64" font-family="Times,serif" font-size="10.00">350 / 9.3KB</text>
</a>
</g>
</g>
<!-- n_golang_org_x_tools_internal_gopathwalk&#45;&gt;n_golang_org_x_tools_internal_fastwalk -->
<g id="edge40" class="edge">
<title>n_golang_org_x_tools_internal_gopathwalk:e&#45;&gt;n_golang_org_x_tools_internal_fastwalk</title>
<path fill="none" stroke="#879107" stroke-width="2" stroke-opacity="0.698039" d="M1243,-72C1286.54,-72 1334.67,-72 1375.75,-72"/>
<polygon fill="#879107" fill-opacity="0.698039" stroke="#879107" stroke-width="2" stroke-opacity="0.698039" points="1375.76,-75.5 1385.76,-72 1375.76,-68.5 1375.76,-75.5"/>
</g>
</g>
</svg>
