<?xml version="1.0" encoding="UTF-8" standalone="no"?>
<!DOCTYPE svg PUBLIC "-//W3C//DTD SVG 1.1//EN"
 "http://www.w3.org/Graphics/SVG/1.1/DTD/svg11.dtd">
<!-- Generated by graphviz version 2.38.0 (20140413.2041)
 -->
<!-- Title: G Pages: 1 -->
<svg width="1196pt" height="377pt"
 viewBox="0.00 0.00 1196.00 377.38" xmlns="http://www.w3.org/2000/svg" xmlns:xlink="http://www.w3.org/1999/xlink">
<g id="graph0" class="graph" transform="scale(1 1) rotate(0) translate(4 373.378)">
<title>G</title>
<polygon fill="white" stroke="none" points="-4,4 -4,-373.378 1192,-373.378 1192,4 -4,4"/>
<!-- n_github_com_loov_goda -->
<g id="node1" class="node"><title>n_github_com_loov_goda</title>
<g id="a_node1"><a xlink:href="https://pkg.go.dev/github.com/loov/goda" xlink:title="github.com/loov/goda\l97 / 3.2KB\l" target="_graphviz">
<polygon fill="none" stroke="#910721" stroke-width="2" stroke-opacity="0.698039" points="108,-179.378 0,-179.378 0,-143.378 108,-143.378 108,-179.378"/>
<text text-anchor="start" x="8" y="-164.378" font-family="Times New Roman,serif" font-size="10.00">github.com/loov/goda</text>
<text text-anchor="start" x="8" y="-153.378" font-family="Times New Roman,serif" font-size="10.00">97 / 3.2KB</text>
</a>
</g>
</g>
<!-- n_github_com_loov_goda_cut -->
<g id="node2" class="node"><title>n_github_com_loov_goda_cut</title>
<g id="a_node2"><a xlink:href="https://pkg.go.dev/github.com/loov/goda/cut" xlink:title="github.com/loov/goda/cut\l168 / 4.3KB\l" target="_graphviz">
<polygon fill="none" stroke="#679107" stroke-width="2" stroke-opacity="0.698039" points="360,-233.378 216,-233.378 216,-197.378 360,-197.378 360,-233.378"/>
<text text-anchor="start" x="224" y="-218.378" font-family="Times New Roman,serif" font-size="10.00">github.com/loov/goda/cut</text>
<text text-anchor="start" x="224" y="-207.378" font-family="Times New Roman,serif" font-size="10.00">168 / 4.3KB</text>
</a>
</g>
</g>
<!-- n_github_com_loov_goda&#45;&gt;n_github_com_loov_goda_cut -->
<g id="edge1" class="edge"><title>n_github_com_loov_goda:e&#45;&gt;n_github_com_loov_goda_cut</title>
<path fill="none" stroke="#679107" stroke-width="2" stroke-opacity="0.698039" d="M108,-161.378C131.614,-161.378 186.206,-178.821 228.936,-193.88"/>
<polygon fill="#679107" fill-opacity="0.698039" stroke="#679107" stroke-width="2" stroke-opacity="0.698039" points="227.814,-197.196 238.409,-197.247 230.159,-190.6 227.814,-197.196"/>
</g>
<!-- n_github_com_loov_goda_exec -->
<g id="node3" class="node"><title>n_github_com_loov_goda_exec</title>
<g id="a_node3"><a xlink:href="https://pkg.go.dev/github.com/loov/goda/exec" xlink:title="github.com/loov/goda/exec\l126 / 3.3KB\l" target="_graphviz">
<polygon fill="none" stroke="#2c9107" stroke-width="2" stroke-opacity="0.698039" points="360,-287.378 216,-287.378 216,-251.378 360,-251.378 360,-287.378"/>
<text text-anchor="start" x="224" y="-272.378" font-family="Times New Roman,serif" font-size="10.00">github.com/loov/goda/exec</text>
<text text-anchor="start" x="224" y="-261.378" font-family="Times New Roman,serif" font-size="10.00">126 / 3.3KB</text>
</a>
</g>
</g>
<!-- n_github_com_loov_goda&#45;&gt;n_github_com_loov_goda_exec -->
<g id="edge2" class="edge"><title>n_github_com_loov_goda:e&#45;&gt;n_github_com_loov_goda_exec</title>
<path fill="none" stroke="#2c9107" stroke-width="2" stroke-opacity="0.698039" d="M108,-161.378C168,-161.378 163.445,-213.431 216,-242.378 218.888,-243.969 221.889,-245.506 224.953,-246.986"/>
<polygon fill="#2c9107" fill-opacity="0.698039" stroke="#2c9107" stroke-width="2" stroke-opacity="0.698039" points="223.736,-250.278 234.287,-251.246 226.643,-243.91 223.736,-250.278"/>
</g>
<!-- n_github_com_loov_goda_graph -->
<g id="node4" class="node"><title>n_github_com_loov_goda_graph</title>
<g id="a_node4"><a xlink:href="https://pkg.go.dev/github.com/loov/goda/graph" xlink:title="github.com/loov/goda/graph\l305 / 8.4KB\l" target="_graphviz">
<polygon fill="none" stroke="#910786" stroke-width="2" stroke-opacity="0.698039" points="360,-125.378 216,-125.378 216,-89.3784 360,-89.3784 360,-125.378"/>
<text text-anchor="start" x="224" y="-110.378" font-family="Times New Roman,serif" font-size="10.00">github.com/loov/goda/graph</text>
<text text-anchor="start" x="224" y="-99.3784" font-family="Times New Roman,serif" font-size="10.00">305 / 8.4KB</text>
</a>
</g>
</g>
<!-- n_github_com_loov_goda&#45;&gt;n_github_com_loov_goda_graph -->
<g id="edge3" class="edge"><title>n_github_com_loov_goda:e&#45;&gt;n_github_com_loov_goda_graph</title>
<path fill="none" stroke="#910786" stroke-width="2" stroke-opacity="0.698039" d="M108,-161.378C131.614,-161.378 186.206,-143.936 228.936,-128.877"/>
<polygon fill="#910786" fill-opacity="0.698039" stroke="#910786" stroke-width="2" stroke-opacity="0.698039" points="230.159,-132.157 238.409,-125.51 227.814,-125.561 230.159,-132.157"/>
</g>
<!-- n_github_com_loov_goda_list -->
<g id="node5" class="node"><title>n_github_com_loov_goda_list</title>
<g id="a_node5"><a xlink:href="https://pkg.go.dev/github.com/loov/goda/list" xlink:title="github.com/loov/goda/list\l55 / 1.5KB\l" target="_graphviz">
<polygon fill="none" stroke="#0d0791" stroke-width="2" stroke-opacity="0.698039" points="360,-71.3784 216,-71.3784 216,-35.3784 360,-35.3784 360,-71.3784"/>
<text text-anchor="start" x="224" y="-56.3784" font-family="Times New Roman,serif" font-size="10.00">github.com/loov/goda/list</text>
<text text-anchor="start" x="224" y="-45.3784" font-family="Times New Roman,serif" font-size="10.00">55 / 1.5KB</text>
</a>
</g>
</g>
<!-- n_github_com_loov_goda&#45;&gt;n_github_com_loov_goda_list -->
<g id="edge4" class="edge"><title>n_github_com_loov_goda:e&#45;&gt;n_github_com_loov_goda_list</title>
<path fill="none" stroke="#0d0791" stroke-width="2" stroke-opacity="0.698039" d="M108,-161.378C168,-161.378 163.445,-109.325 216,-80.3784 218.888,-78.7878 221.889,-77.2504 224.953,-75.7709"/>
<polygon fill="#0d0791" fill-opacity="0.698039" stroke="#0d0791" stroke-width="2" stroke-opacity="0.698039" points="226.643,-78.8471 234.287,-71.5112 223.736,-72.479 226.643,-78.8471"/>
</g>
<!-- n_github_com_loov_goda_pkgset -->
<g id="node8" class="node"><title>n_github_com_loov_goda_pkgset</title>
<g id="a_node8"><a xlink:href="https://pkg.go.dev/github.com/loov/goda/pkgset" xlink:title="github.com/loov/goda/pkgset\l531 / 11.8KB\l" target="_graphviz">
<polygon fill="none" stroke="#073f91" stroke-width="2" stroke-opacity="0.698039" points="900,-121.378 756,-121.378 756,-85.3784 900,-85.3784 900,-121.378"/>
<text text-anchor="start" x="764" y="-106.378" font-family="Times New Roman,serif" font-size="10.00">github.com/loov/goda/pkgset</text>
<text text-anchor="start" x="764" y="-95.3784" font-family="Times New Roman,serif" font-size="10.00">531 / 11.8KB</text>
</a>
</g>
</g>
<!-- n_github_com_loov_goda&#45;&gt;n_github_com_loov_goda_pkgset -->
<g id="edge5" class="edge"><title>n_github_com_loov_goda:e&#45;&gt;n_github_com_loov_goda_pkgset</title>
<path fill="none" stroke="#073f91" stroke-width="2" stroke-opacity="0.698039" d="M108,-161.378C184.837,-161.378 147.696,-61.5722 216,-26.3784 315.714,25 355.87,-15.4907 468,-12.3784 547.969,-10.1587 570.845,8.7656 648,-12.3784 701.811,-27.125 705.739,-52.1509 756,-76.3784 759.508,-78.0694 763.152,-79.7296 766.853,-81.3436"/>
<polygon fill="#073f91" fill-opacity="0.698039" stroke="#073f91" stroke-width="2" stroke-opacity="0.698039" points="765.552,-84.5936 776.127,-85.2514 768.271,-78.1429 765.552,-84.5936"/>
</g>
<!-- n_github_com_loov_goda_tree -->
<g id="node12" class="node"><title>n_github_com_loov_goda_tree</title>
<g id="a_node12"><a xlink:href="https://pkg.go.dev/github.com/loov/goda/tree" xlink:title="github.com/loov/goda/tree\l83 / 2.2KB\l" target="_graphviz">
<polygon fill="none" stroke="#8e9107" stroke-width="2" stroke-opacity="0.698039" points="360,-179.378 216,-179.378 216,-143.378 360,-143.378 360,-179.378"/>
<text text-anchor="start" x="224" y="-164.378" font-family="Times New Roman,serif" font-size="10.00">github.com/loov/goda/tree</text>
<text text-anchor="start" x="224" y="-153.378" font-family="Times New Roman,serif" font-size="10.00">83 / 2.2KB</text>
</a>
</g>
</g>
<!-- n_github_com_loov_goda&#45;&gt;n_github_com_loov_goda_tree -->
<g id="edge6" class="edge"><title>n_github_com_loov_goda:e&#45;&gt;n_github_com_loov_goda_tree</title>
<path fill="none" stroke="#8e9107" stroke-width="2" stroke-opacity="0.698039" d="M108,-161.378C139.829,-161.378 174.842,-161.378 205.396,-161.378"/>
<polygon fill="#8e9107" fill-opacity="0.698039" stroke="#8e9107" stroke-width="2" stroke-opacity="0.698039" points="205.575,-164.878 215.575,-161.378 205.575,-157.878 205.575,-164.878"/>
</g>
<!-- n_github_com_loov_goda_weight -->
<g id="node13" class="node"><title>n_github_com_loov_goda_weight</title>
<g id="a_node13"><a xlink:href="https://pkg.go.dev/github.com/loov/goda/weight" xlink:title="github.com/loov/goda/weight\l259 / 6.6KB\l" target="_graphviz">
<polygon fill="none" stroke="#072a91" stroke-width="2" stroke-opacity="0.698039" points="630,-369.378 486,-369.378 486,-333.378 630,-333.378 630,-369.378"/>
<text text-anchor="start" x="494" y="-354.378" font-family="Times New Roman,serif" font-size="10.00">github.com/loov/goda/weight</text>
<text text-anchor="start" x="494" y="-343.378" font-family="Times New Roman,serif" font-size="10.00">259 / 6.6KB</text>
</a>
</g>
</g>
<!-- n_github_com_loov_goda&#45;&gt;n_github_com_loov_goda_weight -->
<g id="edge7" class="edge"><title>n_github_com_loov_goda:e&#45;&gt;n_github_com_loov_goda_weight</title>
<path fill="none" stroke="#072a91" stroke-width="2" stroke-opacity="0.698039" d="M108,-161.378C184.837,-161.378 149.626,-257.668 216,-296.378 295.776,-342.905 402.978,-353.357 475.736,-354.3"/>
<polygon fill="#072a91" fill-opacity="0.698039" stroke="#072a91" stroke-width="2" stroke-opacity="0.698039" points="475.742,-357.8 485.768,-354.373 475.793,-350.8 475.742,-357.8"/>
</g>
<!-- n_github_com_loov_goda_memory -->
<g id="node6" class="node"><title>n_github_com_loov_goda_memory</title>
<g id="a_node6"><a xlink:href="https://pkg.go.dev/github.com/loov/goda/memory" xlink:title="github.com/loov/goda/memory\l29 / 0.7KB\l" target="_graphviz">
<polygon fill="none" stroke="#079120" stroke-width="2" stroke-opacity="0.698039" points="1170,-285.378 1026,-285.378 1026,-249.378 1170,-249.378 1170,-285.378"/>
<text text-anchor="start" x="1034" y="-270.378" font-family="Times New Roman,serif" font-size="10.00">github.com/loov/goda/memory</text>
<text text-anchor="start" x="1034" y="-259.378" font-family="Times New Roman,serif" font-size="10.00">29 / 0.7KB</text>
</a>
</g>
</g>
<!-- n_github_com_loov_goda_cut&#45;&gt;n_github_com_loov_goda_memory -->
<g id="edge8" class="edge"><title>n_github_com_loov_goda_cut:e&#45;&gt;n_github_com_loov_goda_memory</title>
<path fill="none" stroke="#079120" stroke-width="2" stroke-opacity="0.698039" d="M360,-215.378C408.591,-215.378 419.681,-227.244 468,-232.378 663.769,-253.179 895.213,-262.033 1015.37,-265.456"/>
<polygon fill="#079120" fill-opacity="0.698039" stroke="#079120" stroke-width="2" stroke-opacity="0.698039" points="1015.5,-268.961 1025.59,-265.741 1015.69,-261.963 1015.5,-268.961"/>
</g>
<!-- n_github_com_loov_goda_cut&#45;&gt;n_github_com_loov_goda_pkgset -->
<g id="edge9" class="edge"><title>n_github_com_loov_goda_cut:e&#45;&gt;n_github_com_loov_goda_pkgset</title>
<path fill="none" stroke="#073f91" stroke-width="2" stroke-opacity="0.698039" d="M360,-215.378C488.019,-215.378 524.898,-245.519 648,-210.378 705.61,-193.933 763.533,-154.041 797.294,-127.885"/>
<polygon fill="#073f91" fill-opacity="0.698039" stroke="#073f91" stroke-width="2" stroke-opacity="0.698039" points="799.646,-130.487 805.341,-121.554 795.318,-124.986 799.646,-130.487"/>
</g>
<!-- n_github_com_loov_goda_templates -->
<g id="node11" class="node"><title>n_github_com_loov_goda_templates</title>
<g id="a_node11"><a xlink:href="https://pkg.go.dev/github.com/loov/goda/templates" xlink:title="github.com/loov/goda/templates\l304 / 6.5KB\l" target="_graphviz">
<polygon fill="none" stroke="#073e91" stroke-width="2" stroke-opacity="0.698039" points="648,-201.378 468,-201.378 468,-165.378 648,-165.378 648,-201.378"/>
<text text-anchor="start" x="476" y="-186.378" font-family="Times New Roman,serif" font-size="10.00">github.com/loov/goda/templates</text>
<text text-anchor="start" x="476" y="-175.378" font-family="Times New Roman,serif" font-size="10.00">304 / 6.5KB</text>
</a>
</g>
</g>
<!-- n_github_com_loov_goda_cut&#45;&gt;n_github_com_loov_goda_templates -->
<g id="edge10" class="edge"><title>n_github_com_loov_goda_cut:e&#45;&gt;n_github_com_loov_goda_templates</title>
<path fill="none" stroke="#073e91" stroke-width="2" stroke-opacity="0.698039" d="M360,-215.378C396.898,-215.378 437.186,-209.841 471.659,-203.374"/>
<polygon fill="#073e91" fill-opacity="0.698039" stroke="#073e91" stroke-width="2" stroke-opacity="0.698039" points="472.535,-206.769 481.689,-201.436 471.207,-199.897 472.535,-206.769"/>
</g>
<!-- n_github_com_loov_goda_exec&#45;&gt;n_github_com_loov_goda_memory -->
<g id="edge11" class="edge"><title>n_github_com_loov_goda_exec:e&#45;&gt;n_github_com_loov_goda_memory</title>
<path fill="none" stroke="#079120" stroke-width="2" stroke-opacity="0.698039" d="M360,-269.378C408.295,-269.378 419.779,-278.708 468,-281.378 659.706,-291.996 708.121,-288.188 900,-281.378 938.049,-280.028 980.153,-277.215 1015.64,-274.463"/>
<polygon fill="#079120" fill-opacity="0.698039" stroke="#079120" stroke-width="2" stroke-opacity="0.698039" points="1016.25,-277.926 1025.94,-273.651 1015.7,-270.947 1016.25,-277.926"/>
</g>
<!-- n_github_com_loov_goda_exec&#45;&gt;n_github_com_loov_goda_templates -->
<g id="edge12" class="edge"><title>n_github_com_loov_goda_exec:e&#45;&gt;n_github_com_loov_goda_templates</title>
<path fill="none" stroke="#073e91" stroke-width="2" stroke-opacity="0.698039" d="M360,-269.378C422.36,-269.378 487.247,-232.735 524.792,-207.287"/>
<polygon fill="#073e91" fill-opacity="0.698039" stroke="#073e91" stroke-width="2" stroke-opacity="0.698039" points="527.052,-209.979 533.279,-201.407 523.066,-204.225 527.052,-209.979"/>
</g>
<!-- n_github_com_loov_goda_pkggraph -->
<g id="node7" class="node"><title>n_github_com_loov_goda_pkggraph</title>
<g id="a_node7"><a xlink:href="https://pkg.go.dev/github.com/loov/goda/pkggraph" xlink:title="github.com/loov/goda/pkggraph\l200 / 4.4KB\l" target="_graphviz">
<polygon fill="none" stroke="#079175" stroke-width="2" stroke-opacity="0.698039" points="648,-71.3784 468,-71.3784 468,-35.3784 648,-35.3784 648,-71.3784"/>
<text text-anchor="start" x="476" y="-56.3784" font-family="Times New Roman,serif" font-size="10.00">github.com/loov/goda/pkggraph</text>
<text text-anchor="start" x="476" y="-45.3784" font-family="Times New Roman,serif" font-size="10.00">200 / 4.4KB</text>
</a>
</g>
</g>
<!-- n_github_com_loov_goda_graph&#45;&gt;n_github_com_loov_goda_pkggraph -->
<g id="edge13" class="edge"><title>n_github_com_loov_goda_graph:e&#45;&gt;n_github_com_loov_goda_pkggraph</title>
<path fill="none" stroke="#079175" stroke-width="2" stroke-opacity="0.698039" d="M360,-107.378C385.961,-107.378 446.665,-89.715 493.88,-74.5925"/>
<polygon fill="#079175" fill-opacity="0.698039" stroke="#079175" stroke-width="2" stroke-opacity="0.698039" points="494.989,-77.9124 503.43,-71.5098 492.838,-71.2509 494.989,-77.9124"/>
</g>
<!-- n_github_com_loov_goda_graph&#45;&gt;n_github_com_loov_goda_pkgset -->
<g id="edge14" class="edge"><title>n_github_com_loov_goda_graph:e&#45;&gt;n_github_com_loov_goda_pkgset</title>
<path fill="none" stroke="#073f91" stroke-width="2" stroke-opacity="0.698039" d="M360,-107.378C495.199,-107.378 652.407,-105.681 745.59,-104.498"/>
<polygon fill="#073f91" fill-opacity="0.698039" stroke="#073f91" stroke-width="2" stroke-opacity="0.698039" points="745.841,-107.995 755.796,-104.367 745.751,-100.996 745.841,-107.995"/>
</g>
<!-- n_github_com_loov_goda_graph&#45;&gt;n_github_com_loov_goda_templates -->
<g id="edge15" class="edge"><title>n_github_com_loov_goda_graph:e&#45;&gt;n_github_com_loov_goda_templates</title>
<path fill="none" stroke="#073e91" stroke-width="2" stroke-opacity="0.698039" d="M360,-107.378C419.391,-107.378 482.51,-137.817 520.852,-160.168"/>
<polygon fill="#073e91" fill-opacity="0.698039" stroke="#073e91" stroke-width="2" stroke-opacity="0.698039" points="519.199,-163.257 529.581,-165.367 522.781,-157.243 519.199,-163.257"/>
</g>
<!-- n_github_com_loov_goda_list&#45;&gt;n_github_com_loov_goda_pkggraph -->
<g id="edge16" class="edge"><title>n_github_com_loov_goda_list:e&#45;&gt;n_github_com_loov_goda_pkggraph</title>
<path fill="none" stroke="#079175" stroke-width="2" stroke-opacity="0.698039" d="M360,-53.3784C391.787,-53.3784 426.46,-53.3784 457.732,-53.3784"/>
<polygon fill="#079175" fill-opacity="0.698039" stroke="#079175" stroke-width="2" stroke-opacity="0.698039" points="457.759,-56.8785 467.758,-53.3784 457.758,-49.8785 457.759,-56.8785"/>
</g>
<!-- n_github_com_loov_goda_list&#45;&gt;n_github_com_loov_goda_pkgset -->
<g id="edge17" class="edge"><title>n_github_com_loov_goda_list:e&#45;&gt;n_github_com_loov_goda_pkgset</title>
<path fill="none" stroke="#073f91" stroke-width="2" stroke-opacity="0.698039" d="M360,-53.3784C409.477,-53.3784 418.893,-32.4237 468,-26.3784 547.401,-16.6037 569.873,-9.17064 648,-26.3784 699.656,-37.7558 707.25,-55.854 756,-76.3784 760.075,-78.0942 764.301,-79.8238 768.569,-81.534"/>
<polygon fill="#073f91" fill-opacity="0.698039" stroke="#073f91" stroke-width="2" stroke-opacity="0.698039" points="767.347,-84.8145 777.933,-85.2344 769.919,-78.3043 767.347,-84.8145"/>
</g>
<!-- n_github_com_loov_goda_list&#45;&gt;n_github_com_loov_goda_templates -->
<g id="edge18" class="edge"><title>n_github_com_loov_goda_list:e&#45;&gt;n_github_com_loov_goda_templates</title>
<path fill="none" stroke="#073e91" stroke-width="2" stroke-opacity="0.698039" d="M360,-53.3784C434.982,-53.3784 503.422,-119.797 536.363,-157.685"/>
<polygon fill="#073e91" fill-opacity="0.698039" stroke="#073e91" stroke-width="2" stroke-opacity="0.698039" points="533.698,-159.953 542.843,-165.302 539.03,-155.418 533.698,-159.953"/>
</g>
<!-- n_github_com_loov_goda_pkggraph&#45;&gt;n_github_com_loov_goda_pkgset -->
<g id="edge19" class="edge"><title>n_github_com_loov_goda_pkggraph:e&#45;&gt;n_github_com_loov_goda_pkgset</title>
<path fill="none" stroke="#073f91" stroke-width="2" stroke-opacity="0.698039" d="M648,-53.3784C670.75,-53.3784 722.75,-68.5497 764.873,-82.1784"/>
<polygon fill="#073f91" fill-opacity="0.698039" stroke="#073f91" stroke-width="2" stroke-opacity="0.698039" points="763.926,-85.5509 774.518,-85.3272 766.098,-78.8965 763.926,-85.5509"/>
</g>
<!-- n_github_com_loov_goda_stat -->
<g id="node10" class="node"><title>n_github_com_loov_goda_stat</title>
<g id="a_node10"><a xlink:href="https://pkg.go.dev/github.com/loov/goda/stat" xlink:title="github.com/loov/goda/stat\l249 / 4.5KB\l" target="_graphviz">
<polygon fill="none" stroke="#079139" stroke-width="2" stroke-opacity="0.698039" points="900,-67.3784 756,-67.3784 756,-31.3784 900,-31.3784 900,-67.3784"/>
<text text-anchor="start" x="764" y="-52.3784" font-family="Times New Roman,serif" font-size="10.00">github.com/loov/goda/stat</text>
<text text-anchor="start" x="764" y="-41.3784" font-family="Times New Roman,serif" font-size="10.00">249 / 4.5KB</text>
</a>
</g>
</g>
<!-- n_github_com_loov_goda_pkggraph&#45;&gt;n_github_com_loov_goda_stat -->
<g id="edge20" class="edge"><title>n_github_com_loov_goda_pkggraph:e&#45;&gt;n_github_com_loov_goda_stat</title>
<path fill="none" stroke="#079139" stroke-width="2" stroke-opacity="0.698039" d="M648,-53.3784C679.837,-53.3784 714.851,-52.7381 745.404,-51.9699"/>
<polygon fill="#079139" fill-opacity="0.698039" stroke="#079139" stroke-width="2" stroke-opacity="0.698039" points="745.678,-55.464 755.584,-51.7052 745.496,-48.4664 745.678,-55.464"/>
</g>
<!-- n_github_com_loov_goda_pkgset_ast -->
<g id="node9" class="node"><title>n_github_com_loov_goda_pkgset_ast</title>
<g id="a_node9"><a xlink:href="https://pkg.go.dev/github.com/loov/goda/pkgset/ast" xlink:title="github.com/loov/goda/pkgset/ast\l258 / 5.7KB\l" target="_graphviz">
<polygon fill="none" stroke="#07917c" stroke-width="2" stroke-opacity="0.698039" points="1188,-121.378 1008,-121.378 1008,-85.3784 1188,-85.3784 1188,-121.378"/>
<text text-anchor="start" x="1016" y="-106.378" font-family="Times New Roman,serif" font-size="10.00">github.com/loov/goda/pkgset/ast</text>
<text text-anchor="start" x="1016" y="-95.3784" font-family="Times New Roman,serif" font-size="10.00">258 / 5.7KB</text>
</a>
</g>
</g>
<!-- n_github_com_loov_goda_pkgset&#45;&gt;n_github_com_loov_goda_pkgset_ast -->
<g id="edge21" class="edge"><title>n_github_com_loov_goda_pkgset:e&#45;&gt;n_github_com_loov_goda_pkgset_ast</title>
<path fill="none" stroke="#07917c" stroke-width="2" stroke-opacity="0.698039" d="M900,-103.378C931.787,-103.378 966.46,-103.378 997.732,-103.378"/>
<polygon fill="#07917c" fill-opacity="0.698039" stroke="#07917c" stroke-width="2" stroke-opacity="0.698039" points="997.759,-106.878 1007.76,-103.378 997.758,-99.8785 997.759,-106.878"/>
</g>
<!-- n_github_com_loov_goda_stat&#45;&gt;n_github_com_loov_goda_memory -->
<g id="edge22" class="edge"><title>n_github_com_loov_goda_stat:e&#45;&gt;n_github_com_loov_goda_memory</title>
<path fill="none" stroke="#079120" stroke-width="2" stroke-opacity="0.698039" d="M900,-49.3784C950.963,-49.3784 1042.38,-182.183 1080.06,-240.482"/>
<polygon fill="#079120" fill-opacity="0.698039" stroke="#079120" stroke-width="2" stroke-opacity="0.698039" points="1077.29,-242.639 1085.63,-249.167 1083.18,-238.86 1077.29,-242.639"/>
</g>
<!-- n_github_com_loov_goda_templates&#45;&gt;n_github_com_loov_goda_memory -->
<g id="edge23" class="edge"><title>n_github_com_loov_goda_templates:e&#45;&gt;n_github_com_loov_goda_memory</title>
<path fill="none" stroke="#079120" stroke-width="2" stroke-opacity="0.698039" d="M648,-183.378C785.068,-183.378 941.72,-221.668 1029.03,-246.545"/>
<polygon fill="#079120" fill-opacity="0.698039" stroke="#079120" stroke-width="2" stroke-opacity="0.698039" points="1028.24,-249.957 1038.81,-249.358 1030.17,-243.23 1028.24,-249.957"/>
</g>
<!-- n_github_com_loov_goda_tree&#45;&gt;n_github_com_loov_goda_pkgset -->
<g id="edge24" class="edge"><title>n_github_com_loov_goda_tree:e&#45;&gt;n_github_com_loov_goda_pkgset</title>
<path fill="none" stroke="#073f91" stroke-width="2" stroke-opacity="0.698039" d="M360,-161.378C433.16,-161.378 632.517,-132.992 745.693,-115.936"/>
<polygon fill="#073f91" fill-opacity="0.698039" stroke="#073f91" stroke-width="2" stroke-opacity="0.698039" points="746.335,-119.379 755.699,-114.424 745.288,-112.458 746.335,-119.379"/>
</g>
<!-- n_github_com_loov_goda_tree&#45;&gt;n_github_com_loov_goda_templates -->
<g id="edge25" class="edge"><title>n_github_com_loov_goda_tree:e&#45;&gt;n_github_com_loov_goda_templates</title>
<path fill="none" stroke="#073e91" stroke-width="2" stroke-opacity="0.698039" d="M360,-161.378C391.985,-161.378 426.711,-164.278 457.973,-167.972"/>
<polygon fill="#073e91" fill-opacity="0.698039" stroke="#073e91" stroke-width="2" stroke-opacity="0.698039" points="457.642,-171.458 467.993,-169.197 458.492,-164.509 457.642,-171.458"/>
</g>
<!-- n_github_com_loov_goda_weight&#45;&gt;n_github_com_loov_goda_memory -->
<g id="edge26" class="edge"><title>n_github_com_loov_goda_weight:e&#45;&gt;n_github_com_loov_goda_memory</title>
<path fill="none" stroke="#079120" stroke-width="2" stroke-opacity="0.698039" d="M631,-351.378C751.399,-351.378 781.728,-341.908 900,-319.378 942.902,-311.206 990.245,-298.821 1027.77,-288.188"/>
<polygon fill="#079120" fill-opacity="0.698039" stroke="#079120" stroke-width="2" stroke-opacity="0.698039" points="1028.93,-291.496 1037.58,-285.383 1027,-284.766 1028.93,-291.496"/>
</g>
</g>
</svg>
