<?xml version="1.0" encoding="UTF-8" standalone="no"?>
<!DOCTYPE svg PUBLIC "-//W3C//DTD SVG 1.1//EN"
 "http://www.w3.org/Graphics/SVG/1.1/DTD/svg11.dtd">
<!-- Generated by graphviz version 2.38.0 (20140413.2041)
 -->
<!-- Title: G Pages: 1 -->
<svg width="1196pt" height="359pt"
 viewBox="0.00 0.00 1196.00 358.94" xmlns="http://www.w3.org/2000/svg" xmlns:xlink="http://www.w3.org/1999/xlink">
<g id="graph0" class="graph" transform="scale(1 1) rotate(0) translate(4 354.944)">
<title>G</title>
<polygon fill="white" stroke="none" points="-4,4 -4,-354.944 1192,-354.944 1192,4 -4,4"/>
<!-- n_github_com_loov_goda -->
<g id="node1" class="node"><title>n_github_com_loov_goda</title>
<g id="a_node1"><a xlink:href="https://pkg.go.dev/github.com/loov/goda" xlink:title="github.com/loov/goda\l97 / 3.2KB\l" target="_graphviz">
<polygon fill="none" stroke="#910721" stroke-width="2" stroke-opacity="0.698039" points="108,-198 0,-198 0,-162 108,-162 108,-198"/>
<text text-anchor="start" x="8" y="-183" font-family="Times New Roman,serif" font-size="10.00">github.com/loov/goda</text>
<text text-anchor="start" x="8" y="-172" font-family="Times New Roman,serif" font-size="10.00">97 / 3.2KB</text>
</a>
</g>
</g>
<!-- n_github_com_loov_goda_cut -->
<g id="node2" class="node"><title>n_github_com_loov_goda_cut</title>
<g id="a_node2"><a xlink:href="https://pkg.go.dev/github.com/loov/goda/cut" xlink:title="github.com/loov/goda/cut\l154 / 4.0KB\l" target="_graphviz">
<polygon fill="none" stroke="#679107" stroke-width="2" stroke-opacity="0.698039" points="360,-290 216,-290 216,-254 360,-254 360,-290"/>
<text text-anchor="start" x="224" y="-275" font-family="Times New Roman,serif" font-size="10.00">github.com/loov/goda/cut</text>
<text text-anchor="start" x="224" y="-264" font-family="Times New Roman,serif" font-size="10.00">154 / 4.0KB</text>
</a>
</g>
</g>
<!-- n_github_com_loov_goda&#45;&gt;n_github_com_loov_goda_cut -->
<g id="edge1" class="edge"><title>n_github_com_loov_goda:e&#45;&gt;n_github_com_loov_goda_cut</title>
<path fill="none" stroke="#679107" stroke-width="2" stroke-opacity="0.698039" d="M108,-180C162.91,-180 166.927,-215.364 216,-240 222.48,-243.253 229.36,-246.547 236.189,-249.723"/>
<polygon fill="#679107" fill-opacity="0.698039" stroke="#679107" stroke-width="2" stroke-opacity="0.698039" points="234.879,-252.972 245.427,-253.964 237.8,-246.611 234.879,-252.972"/>
</g>
<!-- n_github_com_loov_goda_exec -->
<g id="node3" class="node"><title>n_github_com_loov_goda_exec</title>
<g id="a_node3"><a xlink:href="https://pkg.go.dev/github.com/loov/goda/exec" xlink:title="github.com/loov/goda/exec\l126 / 3.3KB\l" target="_graphviz">
<polygon fill="none" stroke="#2c9107" stroke-width="2" stroke-opacity="0.698039" points="360,-36 216,-36 216,-0 360,-0 360,-36"/>
<text text-anchor="start" x="224" y="-21" font-family="Times New Roman,serif" font-size="10.00">github.com/loov/goda/exec</text>
<text text-anchor="start" x="224" y="-10" font-family="Times New Roman,serif" font-size="10.00">126 / 3.3KB</text>
</a>
</g>
</g>
<!-- n_github_com_loov_goda&#45;&gt;n_github_com_loov_goda_exec -->
<g id="edge2" class="edge"><title>n_github_com_loov_goda:e&#45;&gt;n_github_com_loov_goda_exec</title>
<path fill="none" stroke="#2c9107" stroke-width="2" stroke-opacity="0.698039" d="M108,-180C184.837,-180 153.901,-90.2513 216,-45 217.862,-43.6433 219.8,-42.346 221.796,-41.1064"/>
<polygon fill="#2c9107" fill-opacity="0.698039" stroke="#2c9107" stroke-width="2" stroke-opacity="0.698039" points="223.839,-43.9739 230.855,-36.0349 220.419,-37.866 223.839,-43.9739"/>
</g>
<!-- n_github_com_loov_goda_graph -->
<g id="node4" class="node"><title>n_github_com_loov_goda_graph</title>
<g id="a_node4"><a xlink:href="https://pkg.go.dev/github.com/loov/goda/graph" xlink:title="github.com/loov/goda/graph\l305 / 8.4KB\l" target="_graphviz">
<polygon fill="none" stroke="#910786" stroke-width="2" stroke-opacity="0.698039" points="360,-198 216,-198 216,-162 360,-162 360,-198"/>
<text text-anchor="start" x="224" y="-183" font-family="Times New Roman,serif" font-size="10.00">github.com/loov/goda/graph</text>
<text text-anchor="start" x="224" y="-172" font-family="Times New Roman,serif" font-size="10.00">305 / 8.4KB</text>
</a>
</g>
</g>
<!-- n_github_com_loov_goda&#45;&gt;n_github_com_loov_goda_graph -->
<g id="edge3" class="edge"><title>n_github_com_loov_goda:e&#45;&gt;n_github_com_loov_goda_graph</title>
<path fill="none" stroke="#910786" stroke-width="2" stroke-opacity="0.698039" d="M108,-180C139.829,-180 174.842,-180 205.396,-180"/>
<polygon fill="#910786" fill-opacity="0.698039" stroke="#910786" stroke-width="2" stroke-opacity="0.698039" points="205.575,-183.5 215.575,-180 205.575,-176.5 205.575,-183.5"/>
</g>
<!-- n_github_com_loov_goda_list -->
<g id="node5" class="node"><title>n_github_com_loov_goda_list</title>
<g id="a_node5"><a xlink:href="https://pkg.go.dev/github.com/loov/goda/list" xlink:title="github.com/loov/goda/list\l55 / 1.5KB\l" target="_graphviz">
<polygon fill="none" stroke="#0d0791" stroke-width="2" stroke-opacity="0.698039" points="360,-144 216,-144 216,-108 360,-108 360,-144"/>
<text text-anchor="start" x="224" y="-129" font-family="Times New Roman,serif" font-size="10.00">github.com/loov/goda/list</text>
<text text-anchor="start" x="224" y="-118" font-family="Times New Roman,serif" font-size="10.00">55 / 1.5KB</text>
</a>
</g>
</g>
<!-- n_github_com_loov_goda&#45;&gt;n_github_com_loov_goda_list -->
<g id="edge4" class="edge"><title>n_github_com_loov_goda:e&#45;&gt;n_github_com_loov_goda_list</title>
<path fill="none" stroke="#0d0791" stroke-width="2" stroke-opacity="0.698039" d="M108,-180C131.614,-180 186.206,-162.557 228.936,-147.499"/>
<polygon fill="#0d0791" fill-opacity="0.698039" stroke="#0d0791" stroke-width="2" stroke-opacity="0.698039" points="230.159,-150.779 238.409,-144.131 227.814,-144.183 230.159,-150.779"/>
</g>
<!-- n_github_com_loov_goda_pkgset -->
<g id="node8" class="node"><title>n_github_com_loov_goda_pkgset</title>
<g id="a_node8"><a xlink:href="https://pkg.go.dev/github.com/loov/goda/pkgset" xlink:title="github.com/loov/goda/pkgset\l531 / 11.8KB\l" target="_graphviz">
<polygon fill="none" stroke="#073f91" stroke-width="2" stroke-opacity="0.698039" points="630,-194 486,-194 486,-158 630,-158 630,-194"/>
<text text-anchor="start" x="494" y="-179" font-family="Times New Roman,serif" font-size="10.00">github.com/loov/goda/pkgset</text>
<text text-anchor="start" x="494" y="-168" font-family="Times New Roman,serif" font-size="10.00">531 / 11.8KB</text>
</a>
</g>
</g>
<!-- n_github_com_loov_goda&#45;&gt;n_github_com_loov_goda_pkgset -->
<g id="edge5" class="edge"><title>n_github_com_loov_goda:e&#45;&gt;n_github_com_loov_goda_pkgset</title>
<path fill="none" stroke="#073f91" stroke-width="2" stroke-opacity="0.698039" d="M108,-180C157.477,-180 166.893,-200.955 216,-207 279.52,-214.82 296.195,-211.99 360,-207 398.17,-204.015 440.123,-197.824 475.469,-191.755"/>
<polygon fill="#073f91" fill-opacity="0.698039" stroke="#073f91" stroke-width="2" stroke-opacity="0.698039" points="476.483,-195.131 485.733,-189.964 475.28,-188.235 476.483,-195.131"/>
</g>
<!-- n_github_com_loov_goda_tree -->
<g id="node12" class="node"><title>n_github_com_loov_goda_tree</title>
<g id="a_node12"><a xlink:href="https://pkg.go.dev/github.com/loov/goda/tree" xlink:title="github.com/loov/goda/tree\l83 / 2.2KB\l" target="_graphviz">
<polygon fill="none" stroke="#8e9107" stroke-width="2" stroke-opacity="0.698039" points="360,-90 216,-90 216,-54 360,-54 360,-90"/>
<text text-anchor="start" x="224" y="-75" font-family="Times New Roman,serif" font-size="10.00">github.com/loov/goda/tree</text>
<text text-anchor="start" x="224" y="-64" font-family="Times New Roman,serif" font-size="10.00">83 / 2.2KB</text>
</a>
</g>
</g>
<!-- n_github_com_loov_goda&#45;&gt;n_github_com_loov_goda_tree -->
<g id="edge6" class="edge"><title>n_github_com_loov_goda:e&#45;&gt;n_github_com_loov_goda_tree</title>
<path fill="none" stroke="#8e9107" stroke-width="2" stroke-opacity="0.698039" d="M108,-180C168,-180 163.445,-127.947 216,-99 218.888,-97.4094 221.889,-95.872 224.953,-94.3925"/>
<polygon fill="#8e9107" fill-opacity="0.698039" stroke="#8e9107" stroke-width="2" stroke-opacity="0.698039" points="226.643,-97.4688 234.287,-90.1328 223.736,-91.1006 226.643,-97.4688"/>
</g>
<!-- n_github_com_loov_goda_weight -->
<g id="node13" class="node"><title>n_github_com_loov_goda_weight</title>
<g id="a_node13"><a xlink:href="https://pkg.go.dev/github.com/loov/goda/weight" xlink:title="github.com/loov/goda/weight\l259 / 6.6KB\l" target="_graphviz">
<polygon fill="none" stroke="#072a91" stroke-width="2" stroke-opacity="0.698039" points="918,-321 774,-321 774,-285 918,-285 918,-321"/>
<text text-anchor="start" x="782" y="-306" font-family="Times New Roman,serif" font-size="10.00">github.com/loov/goda/weight</text>
<text text-anchor="start" x="782" y="-295" font-family="Times New Roman,serif" font-size="10.00">259 / 6.6KB</text>
</a>
</g>
</g>
<!-- n_github_com_loov_goda&#45;&gt;n_github_com_loov_goda_weight -->
<g id="edge7" class="edge"><title>n_github_com_loov_goda:e&#45;&gt;n_github_com_loov_goda_weight</title>
<path fill="none" stroke="#072a91" stroke-width="2" stroke-opacity="0.698039" d="M108,-180C179.423,-180 150.787,-269.871 216,-299 397.782,-380.198 639.659,-347.773 763.842,-322.379"/>
<polygon fill="#072a91" fill-opacity="0.698039" stroke="#072a91" stroke-width="2" stroke-opacity="0.698039" points="764.591,-325.798 773.668,-320.334 763.165,-318.945 764.591,-325.798"/>
</g>
<!-- n_github_com_loov_goda_pkggraph -->
<g id="node7" class="node"><title>n_github_com_loov_goda_pkggraph</title>
<g id="a_node7"><a xlink:href="https://pkg.go.dev/github.com/loov/goda/pkggraph" xlink:title="github.com/loov/goda/pkggraph\l196 / 4.2KB\l" target="_graphviz">
<polygon fill="none" stroke="#079175" stroke-width="2" stroke-opacity="0.698039" points="648,-248 468,-248 468,-212 648,-212 648,-248"/>
<text text-anchor="start" x="476" y="-233" font-family="Times New Roman,serif" font-size="10.00">github.com/loov/goda/pkggraph</text>
<text text-anchor="start" x="476" y="-222" font-family="Times New Roman,serif" font-size="10.00">196 / 4.2KB</text>
</a>
</g>
</g>
<!-- n_github_com_loov_goda_cut&#45;&gt;n_github_com_loov_goda_pkggraph -->
<g id="edge8" class="edge"><title>n_github_com_loov_goda_cut:e&#45;&gt;n_github_com_loov_goda_pkggraph</title>
<path fill="none" stroke="#079175" stroke-width="2" stroke-opacity="0.698039" d="M360,-272C404.942,-272 454.409,-261.415 492.531,-250.873"/>
<polygon fill="#079175" fill-opacity="0.698039" stroke="#079175" stroke-width="2" stroke-opacity="0.698039" points="493.802,-254.151 502.468,-248.056 491.892,-247.416 493.802,-254.151"/>
</g>
<!-- n_github_com_loov_goda_cut&#45;&gt;n_github_com_loov_goda_pkgset -->
<g id="edge9" class="edge"><title>n_github_com_loov_goda_cut:e&#45;&gt;n_github_com_loov_goda_pkgset</title>
<path fill="none" stroke="#073f91" stroke-width="2" stroke-opacity="0.698039" d="M360,-272C416.96,-272 416.262,-226.824 468,-203 472.07,-201.126 476.303,-199.341 480.617,-197.647"/>
<polygon fill="#073f91" fill-opacity="0.698039" stroke="#073f91" stroke-width="2" stroke-opacity="0.698039" points="482.01,-200.863 490.156,-194.088 479.563,-194.305 482.01,-200.863"/>
</g>
<!-- n_github_com_loov_goda_stat -->
<g id="node10" class="node"><title>n_github_com_loov_goda_stat</title>
<g id="a_node10"><a xlink:href="https://pkg.go.dev/github.com/loov/goda/stat" xlink:title="github.com/loov/goda/stat\l252 / 4.6KB\l" target="_graphviz">
<polygon fill="none" stroke="#079139" stroke-width="2" stroke-opacity="0.698039" points="918,-248 774,-248 774,-212 918,-212 918,-248"/>
<text text-anchor="start" x="782" y="-233" font-family="Times New Roman,serif" font-size="10.00">github.com/loov/goda/stat</text>
<text text-anchor="start" x="782" y="-222" font-family="Times New Roman,serif" font-size="10.00">252 / 4.6KB</text>
</a>
</g>
</g>
<!-- n_github_com_loov_goda_cut&#45;&gt;n_github_com_loov_goda_stat -->
<g id="edge10" class="edge"><title>n_github_com_loov_goda_cut:e&#45;&gt;n_github_com_loov_goda_stat</title>
<path fill="none" stroke="#079139" stroke-width="2" stroke-opacity="0.698039" d="M360,-272C488.173,-272 520.394,-269.046 648,-257 686.006,-253.412 727.937,-247.886 763.31,-242.765"/>
<polygon fill="#079139" fill-opacity="0.698039" stroke="#079139" stroke-width="2" stroke-opacity="0.698039" points="764.195,-246.173 773.583,-241.263 763.182,-239.247 764.195,-246.173"/>
</g>
<!-- n_github_com_loov_goda_templates -->
<g id="node11" class="node"><title>n_github_com_loov_goda_templates</title>
<g id="a_node11"><a xlink:href="https://pkg.go.dev/github.com/loov/goda/templates" xlink:title="github.com/loov/goda/templates\l110 / 2.1KB\l" target="_graphviz">
<polygon fill="none" stroke="#073e91" stroke-width="2" stroke-opacity="0.698039" points="648,-140 468,-140 468,-104 648,-104 648,-140"/>
<text text-anchor="start" x="476" y="-125" font-family="Times New Roman,serif" font-size="10.00">github.com/loov/goda/templates</text>
<text text-anchor="start" x="476" y="-114" font-family="Times New Roman,serif" font-size="10.00">110 / 2.1KB</text>
</a>
</g>
</g>
<!-- n_github_com_loov_goda_cut&#45;&gt;n_github_com_loov_goda_templates -->
<g id="edge11" class="edge"><title>n_github_com_loov_goda_cut:e&#45;&gt;n_github_com_loov_goda_templates</title>
<path fill="none" stroke="#073e91" stroke-width="2" stroke-opacity="0.698039" d="M360,-272C432.749,-272 406.847,-188.404 468,-149 470.418,-147.442 472.93,-145.97 475.512,-144.58"/>
<polygon fill="#073e91" fill-opacity="0.698039" stroke="#073e91" stroke-width="2" stroke-opacity="0.698039" points="477.084,-147.707 484.521,-140.162 474.002,-141.422 477.084,-147.707"/>
</g>
<!-- n_github_com_loov_goda_memory -->
<g id="node6" class="node"><title>n_github_com_loov_goda_memory</title>
<g id="a_node6"><a xlink:href="https://pkg.go.dev/github.com/loov/goda/memory" xlink:title="github.com/loov/goda/memory\l29 / 0.7KB\l" target="_graphviz">
<polygon fill="none" stroke="#079120" stroke-width="2" stroke-opacity="0.698039" points="1188,-198 1044,-198 1044,-162 1188,-162 1188,-198"/>
<text text-anchor="start" x="1052" y="-183" font-family="Times New Roman,serif" font-size="10.00">github.com/loov/goda/memory</text>
<text text-anchor="start" x="1052" y="-172" font-family="Times New Roman,serif" font-size="10.00">29 / 0.7KB</text>
</a>
</g>
</g>
<!-- n_github_com_loov_goda_exec&#45;&gt;n_github_com_loov_goda_memory -->
<g id="edge12" class="edge"><title>n_github_com_loov_goda_exec:e&#45;&gt;n_github_com_loov_goda_memory</title>
<path fill="none" stroke="#079120" stroke-width="2" stroke-opacity="0.698039" d="M360,-18C624.905,-18 930.69,-114.52 1056.41,-158.556"/>
<polygon fill="#079120" fill-opacity="0.698039" stroke="#079120" stroke-width="2" stroke-opacity="0.698039" points="1055.28,-161.865 1065.87,-161.888 1057.6,-155.263 1055.28,-161.865"/>
</g>
<!-- n_github_com_loov_goda_exec&#45;&gt;n_github_com_loov_goda_templates -->
<g id="edge13" class="edge"><title>n_github_com_loov_goda_exec:e&#45;&gt;n_github_com_loov_goda_templates</title>
<path fill="none" stroke="#073e91" stroke-width="2" stroke-opacity="0.698039" d="M360,-18C394.153,-18 474.949,-67.5016 521.772,-98.2014"/>
<polygon fill="#073e91" fill-opacity="0.698039" stroke="#073e91" stroke-width="2" stroke-opacity="0.698039" points="520.107,-101.296 530.38,-103.885 523.963,-95.4541 520.107,-101.296"/>
</g>
<!-- n_github_com_loov_goda_graph&#45;&gt;n_github_com_loov_goda_pkggraph -->
<g id="edge14" class="edge"><title>n_github_com_loov_goda_graph:e&#45;&gt;n_github_com_loov_goda_pkggraph</title>
<path fill="none" stroke="#079175" stroke-width="2" stroke-opacity="0.698039" d="M360,-180C372.571,-180 432.187,-195.492 482.579,-209.23"/>
<polygon fill="#079175" fill-opacity="0.698039" stroke="#079175" stroke-width="2" stroke-opacity="0.698039" points="481.948,-212.686 492.517,-211.949 483.795,-205.934 481.948,-212.686"/>
</g>
<!-- n_github_com_loov_goda_graph&#45;&gt;n_github_com_loov_goda_pkgset -->
<g id="edge15" class="edge"><title>n_github_com_loov_goda_graph:e&#45;&gt;n_github_com_loov_goda_pkgset</title>
<path fill="none" stroke="#073f91" stroke-width="2" stroke-opacity="0.698039" d="M360,-180C397.985,-180 440.081,-179.247 475.575,-178.395"/>
<polygon fill="#073f91" fill-opacity="0.698039" stroke="#073f91" stroke-width="2" stroke-opacity="0.698039" points="475.973,-181.887 485.883,-178.141 475.8,-174.889 475.973,-181.887"/>
</g>
<!-- n_github_com_loov_goda_graph&#45;&gt;n_github_com_loov_goda_templates -->
<g id="edge16" class="edge"><title>n_github_com_loov_goda_graph:e&#45;&gt;n_github_com_loov_goda_templates</title>
<path fill="none" stroke="#073e91" stroke-width="2" stroke-opacity="0.698039" d="M360,-180C363.384,-180 432.094,-159.585 487.425,-142.978"/>
<polygon fill="#073e91" fill-opacity="0.698039" stroke="#073e91" stroke-width="2" stroke-opacity="0.698039" points="488.659,-146.262 497.23,-140.034 486.646,-139.558 488.659,-146.262"/>
</g>
<!-- n_github_com_loov_goda_list&#45;&gt;n_github_com_loov_goda_pkggraph -->
<g id="edge17" class="edge"><title>n_github_com_loov_goda_list:e&#45;&gt;n_github_com_loov_goda_pkggraph</title>
<path fill="none" stroke="#079175" stroke-width="2" stroke-opacity="0.698039" d="M360,-126C418.95,-126 415.098,-176.99 468,-203 471.749,-204.843 475.65,-206.59 479.633,-208.241"/>
<polygon fill="#079175" fill-opacity="0.698039" stroke="#079175" stroke-width="2" stroke-opacity="0.698039" points="478.456,-211.538 489.044,-211.918 481.003,-205.018 478.456,-211.538"/>
</g>
<!-- n_github_com_loov_goda_list&#45;&gt;n_github_com_loov_goda_pkgset -->
<g id="edge18" class="edge"><title>n_github_com_loov_goda_list:e&#45;&gt;n_github_com_loov_goda_pkgset</title>
<path fill="none" stroke="#073f91" stroke-width="2" stroke-opacity="0.698039" d="M360,-126C372.571,-126 432.187,-141.492 482.579,-155.23"/>
<polygon fill="#073f91" fill-opacity="0.698039" stroke="#073f91" stroke-width="2" stroke-opacity="0.698039" points="481.948,-158.686 492.517,-157.949 483.795,-151.934 481.948,-158.686"/>
</g>
<!-- n_github_com_loov_goda_list&#45;&gt;n_github_com_loov_goda_templates -->
<g id="edge19" class="edge"><title>n_github_com_loov_goda_list:e&#45;&gt;n_github_com_loov_goda_templates</title>
<path fill="none" stroke="#073e91" stroke-width="2" stroke-opacity="0.698039" d="M360,-126C391.794,-126 426.468,-125.473 457.74,-124.801"/>
<polygon fill="#073e91" fill-opacity="0.698039" stroke="#073e91" stroke-width="2" stroke-opacity="0.698039" points="457.846,-128.3 467.766,-124.578 457.691,-121.301 457.846,-128.3"/>
</g>
<!-- n_github_com_loov_goda_pkggraph&#45;&gt;n_github_com_loov_goda_stat -->
<g id="edge20" class="edge"><title>n_github_com_loov_goda_pkggraph:e&#45;&gt;n_github_com_loov_goda_stat</title>
<path fill="none" stroke="#079139" stroke-width="2" stroke-opacity="0.698039" d="M648,-230C685.977,-230 728.072,-230 763.568,-230"/>
<polygon fill="#079139" fill-opacity="0.698039" stroke="#079139" stroke-width="2" stroke-opacity="0.698039" points="763.876,-233.5 773.876,-230 763.876,-226.5 763.876,-233.5"/>
</g>
<!-- n_github_com_loov_goda_pkgset_ast -->
<g id="node9" class="node"><title>n_github_com_loov_goda_pkgset_ast</title>
<g id="a_node9"><a xlink:href="https://pkg.go.dev/github.com/loov/goda/pkgset/ast" xlink:title="github.com/loov/goda/pkgset/ast\l258 / 5.7KB\l" target="_graphviz">
<polygon fill="none" stroke="#07917c" stroke-width="2" stroke-opacity="0.698039" points="936,-194 756,-194 756,-158 936,-158 936,-194"/>
<text text-anchor="start" x="764" y="-179" font-family="Times New Roman,serif" font-size="10.00">github.com/loov/goda/pkgset/ast</text>
<text text-anchor="start" x="764" y="-168" font-family="Times New Roman,serif" font-size="10.00">258 / 5.7KB</text>
</a>
</g>
</g>
<!-- n_github_com_loov_goda_pkgset&#45;&gt;n_github_com_loov_goda_pkgset_ast -->
<g id="edge21" class="edge"><title>n_github_com_loov_goda_pkgset:e&#45;&gt;n_github_com_loov_goda_pkgset_ast</title>
<path fill="none" stroke="#07917c" stroke-width="2" stroke-opacity="0.698039" d="M631,-176C668.526,-176 709.753,-176 745.919,-176"/>
<polygon fill="#07917c" fill-opacity="0.698039" stroke="#07917c" stroke-width="2" stroke-opacity="0.698039" points="745.979,-179.5 755.979,-176 745.978,-172.5 745.979,-179.5"/>
</g>
<!-- n_github_com_loov_goda_stat&#45;&gt;n_github_com_loov_goda_memory -->
<g id="edge22" class="edge"><title>n_github_com_loov_goda_stat:e&#45;&gt;n_github_com_loov_goda_memory</title>
<path fill="none" stroke="#079120" stroke-width="2" stroke-opacity="0.698039" d="M919,-230C968.208,-230 1022.27,-215.02 1061.13,-201.458"/>
<polygon fill="#079120" fill-opacity="0.698039" stroke="#079120" stroke-width="2" stroke-opacity="0.698039" points="1062.43,-204.711 1070.67,-198.051 1060.07,-198.119 1062.43,-204.711"/>
</g>
<!-- n_github_com_loov_goda_templates&#45;&gt;n_github_com_loov_goda_memory -->
<g id="edge23" class="edge"><title>n_github_com_loov_goda_templates:e&#45;&gt;n_github_com_loov_goda_memory</title>
<path fill="none" stroke="#079120" stroke-width="2" stroke-opacity="0.698039" d="M648,-122C784.174,-122 940.992,-146.587 1033.85,-163.744"/>
<polygon fill="#079120" fill-opacity="0.698039" stroke="#079120" stroke-width="2" stroke-opacity="0.698039" points="1033.27,-167.196 1043.74,-165.588 1034.55,-160.315 1033.27,-167.196"/>
</g>
<!-- n_github_com_loov_goda_tree&#45;&gt;n_github_com_loov_goda_pkgset -->
<g id="edge24" class="edge"><title>n_github_com_loov_goda_tree:e&#45;&gt;n_github_com_loov_goda_pkgset</title>
<path fill="none" stroke="#073f91" stroke-width="2" stroke-opacity="0.698039" d="M360,-72C418.95,-72 415.098,-122.99 468,-149 471.749,-150.843 475.65,-152.59 479.633,-154.241"/>
<polygon fill="#073f91" fill-opacity="0.698039" stroke="#073f91" stroke-width="2" stroke-opacity="0.698039" points="478.456,-157.538 489.044,-157.918 481.003,-151.018 478.456,-157.538"/>
</g>
<!-- n_github_com_loov_goda_tree&#45;&gt;n_github_com_loov_goda_templates -->
<g id="edge25" class="edge"><title>n_github_com_loov_goda_tree:e&#45;&gt;n_github_com_loov_goda_templates</title>
<path fill="none" stroke="#073e91" stroke-width="2" stroke-opacity="0.698039" d="M360,-72C409.444,-72 463.783,-86.9803 502.844,-100.542"/>
<polygon fill="#073e91" fill-opacity="0.698039" stroke="#073e91" stroke-width="2" stroke-opacity="0.698039" points="501.839,-103.899 512.434,-103.949 504.183,-97.3027 501.839,-103.899"/>
</g>
<!-- n_github_com_loov_goda_weight&#45;&gt;n_github_com_loov_goda_memory -->
<g id="edge26" class="edge"><title>n_github_com_loov_goda_weight:e&#45;&gt;n_github_com_loov_goda_memory</title>
<path fill="none" stroke="#079120" stroke-width="2" stroke-opacity="0.698039" d="M919,-303C991.456,-303 1059.1,-241.948 1092.75,-205.869"/>
<polygon fill="#079120" fill-opacity="0.698039" stroke="#079120" stroke-width="2" stroke-opacity="0.698039" points="1095.64,-207.897 1099.79,-198.149 1090.47,-203.18 1095.64,-207.897"/>
</g>
</g>
</svg>
